<?xml version="1.0" encoding="UTF-8" standalone="no"?>
<!DOCTYPE svg PUBLIC "-//W3C//DTD SVG 1.1//EN"
 "http://www.w3.org/Graphics/SVG/1.1/DTD/svg11.dtd">
<!-- Generated by graphviz version 2.40.1 (0)
 -->
<!-- Title: pcomp_sm Pages: 1 -->
<svg width="1018pt" height="481pt"
 viewBox="0.00 0.00 1018.00 480.70" xmlns="http://www.w3.org/2000/svg" xmlns:xlink="http://www.w3.org/1999/xlink">
<g id="graph0" class="graph" transform="scale(1 1) rotate(0) translate(4 476.7006)">
<title>pcomp_sm</title>
<polygon fill="#ffffff" stroke="transparent" points="-4,4 -4,-476.7006 1014,-476.7006 1014,4 -4,4"/>
<!-- WAIT_ENABLE -->
<g id="node1" class="node">
<title>WAIT_ENABLE</title>
<ellipse fill="none" stroke="#000000" cx="211" cy="-445.8305" rx="77.5641" ry="26.7407"/>
<text text-anchor="middle" x="211" y="-449.6305" font-family="Times,serif" font-size="14.00" fill="#000000">State 0</text>
<text text-anchor="middle" x="211" y="-434.6305" font-family="Times,serif" font-size="14.00" fill="#000000">WAIT_ENABLE</text>
</g>
<!-- UNREADY -->
<g id="node2" class="node">
<title>UNREADY</title>
<ellipse fill="none" stroke="#000000" cx="339" cy="-26.8701" rx="57.9655" ry="26.7407"/>
<text text-anchor="middle" x="339" y="-30.6701" font-family="Times,serif" font-size="14.00" fill="#000000">State 1</text>
<text text-anchor="middle" x="339" y="-15.6701" font-family="Times,serif" font-size="14.00" fill="#000000">UNREADY</text>
</g>
<!-- WAIT_ENABLE&#45;&gt;UNREADY -->
<g id="edge1" class="edge">
<title>WAIT_ENABLE&#45;&gt;UNREADY</title>
<path fill="none" stroke="#000000" d="M135.7178,-438.946C75.1216,-428.7716 0,-403.5605 0,-341.0904 0,-341.0904 0,-341.0904 0,-131.6102 0,-75.2398 173.273,-45.9357 272.0617,-33.8094"/>
<polygon fill="#000000" stroke="#000000" points="272.7471,-37.2523 282.259,-32.586 271.9133,-30.3022 272.7471,-37.2523"/>
<text text-anchor="middle" x="59" y="-232.6503" font-family="Times,serif" font-size="14.00" fill="#000000"> TABLE load started </text>
</g>
<!-- WAIT_TRIGGER -->
<g id="node3" class="node">
<title>WAIT_TRIGGER</title>
<ellipse fill="none" stroke="#000000" cx="770" cy="-341.0904" rx="82.0488" ry="26.7407"/>
<text text-anchor="middle" x="770" y="-344.8904" font-family="Times,serif" font-size="14.00" fill="#000000">State 2</text>
<text text-anchor="middle" x="770" y="-329.8904" font-family="Times,serif" font-size="14.00" fill="#000000">WAIT_TRIGGER</text>
</g>
<!-- WAIT_ENABLE&#45;&gt;WAIT_TRIGGER -->
<g id="edge2" class="edge">
<title>WAIT_ENABLE&#45;&gt;WAIT_TRIGGER</title>
<path fill="none" stroke="#000000" d="M284.1617,-436.5287C375.9204,-424.1764 537.7485,-400.1182 674,-367.9605 682.1116,-366.046 690.5685,-363.9009 698.9537,-361.6799"/>
<polygon fill="#000000" stroke="#000000" points="699.9922,-365.025 708.7393,-359.0468 698.1733,-358.2654 699.9922,-365.025"/>
<text text-anchor="middle" x="688" y="-389.7605" font-family="Times,serif" font-size="14.00" fill="#000000"> rising ENABLE and trigger not met </text>
</g>
<!-- PHASE1 -->
<g id="node4" class="node">
<title>PHASE1</title>
<ellipse fill="none" stroke="#000000" cx="489" cy="-236.3503" rx="46.8387" ry="26.7407"/>
<text text-anchor="middle" x="489" y="-240.1503" font-family="Times,serif" font-size="14.00" fill="#000000">State 3</text>
<text text-anchor="middle" x="489" y="-225.1503" font-family="Times,serif" font-size="14.00" fill="#000000">PHASE1</text>
</g>
<!-- WAIT_ENABLE&#45;&gt;PHASE1 -->
<g id="edge3" class="edge">
<title>WAIT_ENABLE&#45;&gt;PHASE1</title>
<path fill="none" stroke="#000000" d="M269.8381,-428.162C330.5889,-406.8251 423.5487,-364.9704 475,-296.2203 480.0018,-289.5369 483.2541,-281.3498 485.3591,-273.2014"/>
<polygon fill="#000000" stroke="#000000" points="488.7911,-273.8879 487.3981,-263.385 481.9374,-272.4642 488.7911,-273.8879"/>
<text text-anchor="middle" x="548.5" y="-337.3904" font-family="Times,serif" font-size="14.00" fill="#000000"> rising ENABLE and trigger met </text>
</g>
<!-- PHASE2 -->
<g id="node5" class="node">
<title>PHASE2</title>
<ellipse fill="none" stroke="#000000" cx="522" cy="-131.6102" rx="46.8387" ry="26.7407"/>
<text text-anchor="middle" x="522" y="-135.4102" font-family="Times,serif" font-size="14.00" fill="#000000">State 4</text>
<text text-anchor="middle" x="522" y="-120.4102" font-family="Times,serif" font-size="14.00" fill="#000000">PHASE2</text>
</g>
<!-- WAIT_ENABLE&#45;&gt;PHASE2 -->
<g id="edge4" class="edge">
<title>WAIT_ENABLE&#45;&gt;PHASE2</title>
<path fill="none" stroke="#000000" d="M201.0673,-419.1363C189.7127,-383.5244 176.4715,-320.4204 208,-281.2203 231.3848,-252.1455 256.4177,-279.4815 290,-263.2203 344.7888,-236.6905 341.5134,-203.6254 396,-176.4802 426.2963,-161.3867 438.2954,-170.3335 470,-158.4802 473.0459,-157.3415 476.1428,-156.0676 479.2304,-154.7101"/>
<polygon fill="#000000" stroke="#000000" points="480.8166,-157.8324 488.4048,-150.4385 477.8619,-151.4865 480.8166,-157.8324"/>
<text text-anchor="middle" x="339.5" y="-285.0203" font-family="Times,serif" font-size="14.00" fill="#000000"> rising ENABLE and trigger met and no phase1 </text>
</g>
<!-- UNREADY&#45;&gt;WAIT_ENABLE -->
<g id="edge5" class="edge">
<title>UNREADY&#45;&gt;WAIT_ENABLE</title>
<path fill="none" stroke="#000000" d="M283.243,-34.5273C228.7711,-45.5168 154,-71.5418 154,-131.6102 154,-341.0904 154,-341.0904 154,-341.0904 154,-366.8786 167.4957,-392.3694 181.3535,-411.7464"/>
<polygon fill="#000000" stroke="#000000" points="178.6882,-414.0262 187.4868,-419.9283 184.2892,-409.8275 178.6882,-414.0262"/>
<text text-anchor="middle" x="220" y="-232.6503" font-family="Times,serif" font-size="14.00" fill="#000000"> TABLE load complete </text>
</g>
<!-- WAIT_TRIGGER&#45;&gt;UNREADY -->
<g id="edge6" class="edge">
<title>WAIT_TRIGGER&#45;&gt;UNREADY</title>
<path fill="none" stroke="#000000" d="M828.4304,-322.1367C855.9218,-309.9457 886.0996,-291.0614 902,-263.2203 913.8451,-242.48 912.3495,-231.006 902,-209.4802 869.6989,-142.2978 838.8695,-135.5713 771,-104.7401 706.7888,-75.5708 509.6107,-47.8756 405.2989,-34.7705"/>
<polygon fill="#000000" stroke="#000000" points="405.5519,-31.275 395.1956,-33.5103 404.6855,-38.2212 405.5519,-31.275"/>
<text text-anchor="middle" x="951" y="-180.2802" font-family="Times,serif" font-size="14.00" fill="#000000"> TABLE load started </text>
</g>
<!-- WAIT_TRIGGER&#45;&gt;PHASE1 -->
<g id="edge7" class="edge">
<title>WAIT_TRIGGER&#45;&gt;PHASE1</title>
<path fill="none" stroke="#000000" d="M709.9138,-322.7429C698.0873,-319.5663 685.7138,-316.5434 674,-314.2203 640.8524,-307.6465 551.1461,-314.9226 523,-296.2203 514.1891,-290.3658 507.4068,-281.404 502.3034,-272.183"/>
<polygon fill="#000000" stroke="#000000" points="505.3209,-270.3894 497.7468,-262.9811 499.0479,-273.4958 505.3209,-270.3894"/>
<text text-anchor="middle" x="556.5" y="-285.0203" font-family="Times,serif" font-size="14.00" fill="#000000"> trigger met </text>
</g>
<!-- WAIT_TRIGGER&#45;&gt;PHASE2 -->
<g id="edge8" class="edge">
<title>WAIT_TRIGGER&#45;&gt;PHASE2</title>
<path fill="none" stroke="#000000" d="M709.8151,-322.8175C678.5205,-310.5261 641.9163,-291.3397 618,-263.2203 591.7544,-232.3622 614.5123,-208.7324 590,-176.4802 583.5791,-168.032 575.0815,-160.6818 566.2759,-154.5116"/>
<polygon fill="#000000" stroke="#000000" points="568.0802,-151.5095 557.7967,-148.9601 564.2459,-157.366 568.0802,-151.5095"/>
<text text-anchor="middle" x="692.5" y="-232.6503" font-family="Times,serif" font-size="14.00" fill="#000000"> trigger met and no phase1 </text>
</g>
<!-- PHASE1&#45;&gt;UNREADY -->
<g id="edge9" class="edge">
<title>PHASE1&#45;&gt;UNREADY</title>
<path fill="none" stroke="#000000" d="M445.8382,-225.6611C412.4287,-214.839 368.5066,-194.4297 348,-158.4802 331.6488,-129.8155 330.8531,-91.7238 333.2821,-63.8984"/>
<polygon fill="#000000" stroke="#000000" points="336.7813,-64.0888 334.3452,-53.7778 329.8196,-63.3574 336.7813,-64.0888"/>
<text text-anchor="middle" x="407" y="-127.9102" font-family="Times,serif" font-size="14.00" fill="#000000"> TABLE load started </text>
</g>
<!-- PHASE1&#45;&gt;PHASE2 -->
<g id="edge10" class="edge">
<title>PHASE1&#45;&gt;PHASE2</title>
<path fill="none" stroke="#000000" d="M496.1585,-209.7123C499.0624,-199.2996 502.5434,-187.2861 506,-176.4802 506.9276,-173.5804 507.9193,-170.5868 508.9374,-167.5863"/>
<polygon fill="#000000" stroke="#000000" points="512.2625,-168.6801 512.2335,-158.0853 505.6492,-166.3858 512.2625,-168.6801"/>
<text text-anchor="middle" x="548" y="-180.2802" font-family="Times,serif" font-size="14.00" fill="#000000"> time1 elapsed </text>
</g>
<!-- PHASE2&#45;&gt;UNREADY -->
<g id="edge11" class="edge">
<title>PHASE2&#45;&gt;UNREADY</title>
<path fill="none" stroke="#000000" d="M488.8601,-112.6425C459.6743,-95.938 416.8926,-71.4519 384.5032,-52.9138"/>
<polygon fill="#000000" stroke="#000000" points="386.0809,-49.7841 375.6633,-47.8543 382.6037,-55.8594 386.0809,-49.7841"/>
<text text-anchor="middle" x="501" y="-75.5401" font-family="Times,serif" font-size="14.00" fill="#000000"> TABLE load started </text>
</g>
<!-- PHASE2&#45;&gt;WAIT_TRIGGER -->
<g id="edge12" class="edge">
<title>PHASE2&#45;&gt;WAIT_TRIGGER</title>
<path fill="none" stroke="#000000" d="M566.7933,-139.4715C630.6474,-151.6824 742.8172,-177.1977 767,-209.4802 787.0751,-236.2792 785.1549,-275.5096 779.8401,-304.1653"/>
<polygon fill="#000000" stroke="#000000" points="776.3624,-303.6997 777.7629,-314.2016 783.2171,-305.1185 776.3624,-303.6997"/>
<text text-anchor="middle" x="840.5" y="-232.6503" font-family="Times,serif" font-size="14.00" fill="#000000"> next trigger not met </text>
</g>
<!-- PHASE2&#45;&gt;PHASE1 -->
<g id="edge13" class="edge">
<title>PHASE2&#45;&gt;PHASE1</title>
<path fill="none" stroke="#000000" d="M485.4948,-148.4637C477.4909,-151.9412 469.0133,-155.4604 461,-158.4802 436.1403,-167.8488 419.7042,-155.0523 404,-176.4802 390.1258,-195.4112 412.2757,-210.5571 437.4335,-220.8789"/>
<polygon fill="#000000" stroke="#000000" points="436.1869,-224.1493 446.7771,-224.4615 438.693,-217.6133 436.1869,-224.1493"/>
<text text-anchor="middle" x="451" y="-180.2802" font-family="Times,serif" font-size="14.00" fill="#000000"> next trigger met </text>
</g>
<!-- PHASE2&#45;&gt;PHASE2 -->
<g id="edge14" class="edge">
<title>PHASE2&#45;&gt;PHASE2</title>
<path fill="none" stroke="#000000" d="M565.8268,-141.2882C577.6638,-140.7776 586.669,-137.5516 586.669,-131.6102 586.669,-127.5255 582.4126,-124.7242 575.9059,-123.2064"/>
<polygon fill="#000000" stroke="#000000" points="576.1868,-119.7141 565.8268,-121.9322 575.3088,-126.6588 576.1868,-119.7141"/>
<text text-anchor="middle" x="674.169" y="-127.9102" font-family="Times,serif" font-size="14.00" fill="#000000"> next trigger met and no phase1 </text>
</g>
</g>
</svg>
