<?xml version="1.0" encoding="UTF-8" standalone="no"?>
<!DOCTYPE svg PUBLIC "-//W3C//DTD SVG 1.1//EN"
 "http://www.w3.org/Graphics/SVG/1.1/DTD/svg11.dtd">
<!-- Generated by graphviz version 2.40.1 (0)
 -->
<!-- Title: pcomp_sm Pages: 1 -->
<svg width="596pt" height="445pt"
 viewBox="0.00 0.00 596.17 445.22" xmlns="http://www.w3.org/2000/svg" xmlns:xlink="http://www.w3.org/1999/xlink">
<g id="graph0" class="graph" transform="scale(1 1) rotate(0) translate(4 441.2203)">
<title>pcomp_sm</title>
<polygon fill="#ffffff" stroke="transparent" points="-4,4 -4,-441.2203 592.1655,-441.2203 592.1655,4 -4,4"/>
<!-- WAIT_ENABLE -->
<g id="node1" class="node">
<title>WAIT_ENABLE</title>
<ellipse fill="none" stroke="#000000" cx="189.1655" cy="-410.3503" rx="77.5641" ry="26.7407"/>
<text text-anchor="middle" x="189.1655" y="-414.1503" font-family="Times,serif" font-size="14.00" fill="#000000">State 0</text>
<text text-anchor="middle" x="189.1655" y="-399.1503" font-family="Times,serif" font-size="14.00" fill="#000000">WAIT_ENABLE</text>
</g>
<!-- WAIT_DIR -->
<g id="node2" class="node">
<title>WAIT_DIR</title>
<ellipse fill="none" stroke="#000000" cx="196.1655" cy="-277.4802" rx="57.0522" ry="26.7407"/>
<text text-anchor="middle" x="196.1655" y="-281.2802" font-family="Times,serif" font-size="14.00" fill="#000000">State 1</text>
<text text-anchor="middle" x="196.1655" y="-266.2802" font-family="Times,serif" font-size="14.00" fill="#000000">WAIT_DIR</text>
</g>
<!-- WAIT_ENABLE&#45;&gt;WAIT_DIR -->
<g id="edge1" class="edge">
<title>WAIT_ENABLE&#45;&gt;WAIT_DIR</title>
<path fill="none" stroke="#000000" d="M188.6561,-383.3168C188.5357,-366.1558 188.7503,-343.4901 190.1655,-323.4802 190.3679,-320.6182 190.6302,-317.662 190.9317,-314.6931"/>
<polygon fill="#000000" stroke="#000000" points="194.4191,-315.0023 192.0784,-304.6693 187.4645,-314.2067 194.4191,-315.0023"/>
<text text-anchor="middle" x="239.1655" y="-348.0802" font-family="Times,serif" font-size="13.00" fill="#000000">rising ENABLE</text>
<text text-anchor="middle" x="239.1655" y="-334.0802" font-family="Times,serif" font-size="13.00" fill="#000000"> &amp; DIR=EITHER </text>
</g>
<!-- WAIT_PRE_START -->
<g id="node3" class="node">
<title>WAIT_PRE_START</title>
<ellipse fill="none" stroke="#000000" cx="102.1655" cy="-144.6102" rx="92.7622" ry="26.7407"/>
<text text-anchor="middle" x="102.1655" y="-148.4102" font-family="Times,serif" font-size="14.00" fill="#000000">State 2</text>
<text text-anchor="middle" x="102.1655" y="-133.4102" font-family="Times,serif" font-size="14.00" fill="#000000">WAIT_PRE_START</text>
</g>
<!-- WAIT_ENABLE&#45;&gt;WAIT_PRE_START -->
<g id="edge2" class="edge">
<title>WAIT_ENABLE&#45;&gt;WAIT_PRE_START</title>
<path fill="none" stroke="#000000" d="M142.3124,-388.5738C126.1296,-380.4386 110.4725,-371.6801 104.1655,-365.4802 82.4619,-344.1454 78.7369,-334.9573 71.1655,-305.4802 60.2961,-263.1633 73.6321,-213.7095 86.0388,-180.9195"/>
<polygon fill="#000000" stroke="#000000" points="89.4178,-181.8914 89.8315,-171.3047 82.9061,-179.3228 89.4178,-181.8914"/>
<text text-anchor="middle" x="100.6655" y="-281.0802" font-family="Times,serif" font-size="13.00" fill="#000000"> rising</text>
<text text-anchor="middle" x="100.6655" y="-267.0802" font-family="Times,serif" font-size="13.00" fill="#000000"> ENABLE </text>
</g>
<!-- WAIT_FALLING -->
<g id="node5" class="node">
<title>WAIT_FALLING</title>
<ellipse fill="none" stroke="#000000" cx="302.1655" cy="-144.6102" rx="81.135" ry="26.7407"/>
<text text-anchor="middle" x="302.1655" y="-148.4102" font-family="Times,serif" font-size="14.00" fill="#000000">State 4</text>
<text text-anchor="middle" x="302.1655" y="-133.4102" font-family="Times,serif" font-size="14.00" fill="#000000">WAIT_FALLING</text>
</g>
<!-- WAIT_ENABLE&#45;&gt;WAIT_FALLING -->
<g id="edge3" class="edge">
<title>WAIT_ENABLE&#45;&gt;WAIT_FALLING</title>
<path fill="none" stroke="#000000" d="M251.5017,-394.2299C265.7314,-387.6169 279.2666,-378.3691 288.1655,-365.4802 308.0589,-336.6674 306.7227,-236.9335 304.302,-181.8636"/>
<polygon fill="#000000" stroke="#000000" points="307.7949,-181.6268 303.8259,-171.8035 300.8027,-181.9579 307.7949,-181.6268"/>
<text text-anchor="middle" x="344.6655" y="-295.0802" font-family="Times,serif" font-size="13.00" fill="#000000">rising</text>
<text text-anchor="middle" x="344.6655" y="-281.0802" font-family="Times,serif" font-size="13.00" fill="#000000">ENABLE</text>
<text text-anchor="middle" x="344.6655" y="-267.0802" font-family="Times,serif" font-size="13.00" fill="#000000">&amp; RELATIVE</text>
<text text-anchor="middle" x="344.6655" y="-253.0802" font-family="Times,serif" font-size="13.00" fill="#000000">&amp; START=0</text>
</g>
<!-- WAIT_DIR&#45;&gt;WAIT_ENABLE -->
<g id="edge4" class="edge">
<title>WAIT_DIR&#45;&gt;WAIT_ENABLE</title>
<path fill="none" stroke="#000000" d="M149.5214,-293.4229C136.0416,-300.4448 122.8945,-310.2026 115.1655,-323.4802 105.7747,-339.6127 106.0063,-349.2151 115.1655,-365.4802 119.105,-372.476 124.6241,-378.5063 130.8919,-383.6693"/>
<polygon fill="#000000" stroke="#000000" points="129.0382,-386.6506 139.1688,-389.7527 133.1839,-381.0102 129.0382,-386.6506"/>
<text text-anchor="middle" x="149.6655" y="-355.0802" font-family="Times,serif" font-size="13.00" fill="#000000"> Can&#39;t guess</text>
<text text-anchor="middle" x="149.6655" y="-341.0802" font-family="Times,serif" font-size="13.00" fill="#000000"> DIR </text>
<text text-anchor="middle" x="149.6655" y="-327.0802" font-family="Times,serif" font-size="13.00" fill="#000000"> or Disabled </text>
</g>
<!-- WAIT_DIR&#45;&gt;WAIT_PRE_START -->
<g id="edge5" class="edge">
<title>WAIT_DIR&#45;&gt;WAIT_PRE_START</title>
<path fill="none" stroke="#000000" d="M148.9916,-261.95C134.6004,-254.8955 120.2072,-245.0137 111.1655,-231.4802 101.5613,-217.1047 98.7271,-198.3014 98.5375,-181.8664"/>
<polygon fill="#000000" stroke="#000000" points="102.0446,-181.5482 98.7502,-171.4786 95.0461,-181.4048 102.0446,-181.5482"/>
<text text-anchor="middle" x="141.6655" y="-214.0802" font-family="Times,serif" font-size="13.00" fill="#000000"> DIR</text>
<text text-anchor="middle" x="141.6655" y="-200.0802" font-family="Times,serif" font-size="13.00" fill="#000000"> calculated </text>
</g>
<!-- WAIT_DIR&#45;&gt;WAIT_FALLING -->
<g id="edge6" class="edge">
<title>WAIT_DIR&#45;&gt;WAIT_FALLING</title>
<path fill="none" stroke="#000000" d="M188.4396,-250.6208C184.7302,-231.9401 183.3206,-207.2915 195.1655,-189.4802 202.4987,-178.4531 213.1221,-170.1305 224.8621,-163.8506"/>
<polygon fill="#000000" stroke="#000000" points="226.5331,-166.9306 234.0214,-159.4355 223.4936,-160.6249 226.5331,-166.9306"/>
<text text-anchor="middle" x="241.6655" y="-221.0802" font-family="Times,serif" font-size="13.00" fill="#000000"> DIR calculated </text>
<text text-anchor="middle" x="241.6655" y="-207.0802" font-family="Times,serif" font-size="13.00" fill="#000000"> &amp; </text>
<text text-anchor="middle" x="241.6655" y="-193.0802" font-family="Times,serif" font-size="13.00" fill="#000000"> no PRE_START</text>
</g>
<!-- WAIT_PRE_START&#45;&gt;WAIT_ENABLE -->
<g id="edge7" class="edge">
<title>WAIT_PRE_START&#45;&gt;WAIT_ENABLE</title>
<path fill="none" stroke="#000000" d="M68.9474,-169.9269C46.791,-189.0351 19.5392,-217.3904 7.1655,-249.4802 -1.7889,-272.7025 -2.8168,-282.6809 7.1655,-305.4802 26.4336,-349.4884 74.0674,-375.9744 115.7702,-391.318"/>
<polygon fill="#000000" stroke="#000000" points="114.7965,-394.6857 125.3913,-394.7038 117.1203,-388.0826 114.7965,-394.6857"/>
<text text-anchor="middle" x="34.6655" y="-274.0802" font-family="Times,serif" font-size="13.00" fill="#000000"> Disabled </text>
</g>
<!-- WAIT_RISING -->
<g id="node4" class="node">
<title>WAIT_RISING</title>
<ellipse fill="none" stroke="#000000" cx="323.1655" cy="-26.8701" rx="72.6644" ry="26.7407"/>
<text text-anchor="middle" x="323.1655" y="-30.6701" font-family="Times,serif" font-size="14.00" fill="#000000">State 3</text>
<text text-anchor="middle" x="323.1655" y="-15.6701" font-family="Times,serif" font-size="14.00" fill="#000000">WAIT_RISING</text>
</g>
<!-- WAIT_PRE_START&#45;&gt;WAIT_RISING -->
<g id="edge8" class="edge">
<title>WAIT_PRE_START&#45;&gt;WAIT_RISING</title>
<path fill="none" stroke="#000000" d="M121.5343,-117.9866C134.0941,-102.4689 151.706,-83.667 171.1655,-71.7401 194.1535,-57.6506 221.814,-47.773 247.2018,-40.9474"/>
<polygon fill="#000000" stroke="#000000" points="248.3594,-44.2638 257.1755,-38.3878 246.6194,-37.4835 248.3594,-44.2638"/>
<text text-anchor="middle" x="221.1655" y="-82.3401" font-family="Times,serif" font-size="13.00" fill="#000000"> &lt; PRE_START &gt; </text>
</g>
<!-- WAIT_RISING&#45;&gt;WAIT_ENABLE -->
<g id="edge9" class="edge">
<title>WAIT_RISING&#45;&gt;WAIT_ENABLE</title>
<path fill="none" stroke="#000000" d="M370.3793,-47.555C381.7684,-54.1064 393.2182,-62.183 402.1655,-71.7401 443.5723,-115.9694 535.5043,-229.1672 488.1655,-305.4802 464.2502,-344.0332 347.0246,-376.4417 266.6599,-394.6187"/>
<polygon fill="#000000" stroke="#000000" points="265.5585,-391.2783 256.5608,-396.8723 267.0831,-398.1103 265.5585,-391.2783"/>
<text text-anchor="middle" x="543.1655" y="-221.0802" font-family="Times,serif" font-size="13.00" fill="#000000">jump &gt;</text>
<text text-anchor="middle" x="543.1655" y="-207.0802" font-family="Times,serif" font-size="13.00" fill="#000000">WIDTH + STEP</text>
<text text-anchor="middle" x="543.1655" y="-193.0802" font-family="Times,serif" font-size="13.00" fill="#000000"> or Disabled </text>
</g>
<!-- WAIT_RISING&#45;&gt;WAIT_FALLING -->
<g id="edge10" class="edge">
<title>WAIT_RISING&#45;&gt;WAIT_FALLING</title>
<path fill="none" stroke="#000000" d="M338.4782,-53.2578C344.6144,-67.2872 349.0033,-84.6969 343.1655,-99.7401 341.6194,-103.7243 339.5363,-107.5709 337.1248,-111.2237"/>
<polygon fill="#000000" stroke="#000000" points="334.2128,-109.2726 331.0004,-119.3687 339.8077,-113.4796 334.2128,-109.2726"/>
<text text-anchor="middle" x="371.6655" y="-82.3401" font-family="Times,serif" font-size="13.00" fill="#000000"> &gt;= pulse </text>
</g>
<!-- WAIT_FALLING&#45;&gt;WAIT_ENABLE -->
<g id="edge11" class="edge">
<title>WAIT_FALLING&#45;&gt;WAIT_ENABLE</title>
<path fill="none" stroke="#000000" d="M332.0286,-169.7425C365.6039,-201.2129 412.4549,-256.9014 388.1655,-305.4802 364.7679,-352.2755 311.3597,-378.8132 265.7593,-393.48"/>
<polygon fill="#000000" stroke="#000000" points="264.6897,-390.1471 256.1608,-396.4326 266.7479,-396.8377 264.6897,-390.1471"/>
<text text-anchor="middle" x="439.1655" y="-295.0802" font-family="Times,serif" font-size="13.00" fill="#000000"> jump &gt; </text>
<text text-anchor="middle" x="439.1655" y="-281.0802" font-family="Times,serif" font-size="13.00" fill="#000000">WIDTH + STEP</text>
<text text-anchor="middle" x="439.1655" y="-267.0802" font-family="Times,serif" font-size="13.00" fill="#000000"> or Finished </text>
<text text-anchor="middle" x="439.1655" y="-253.0802" font-family="Times,serif" font-size="13.00" fill="#000000">or Disabled</text>
</g>
<!-- WAIT_FALLING&#45;&gt;WAIT_RISING -->
<g id="edge12" class="edge">
<title>WAIT_FALLING&#45;&gt;WAIT_RISING</title>
<path fill="none" stroke="#000000" d="M284.3772,-118.2939C277.1801,-104.2847 271.885,-86.8715 278.1655,-71.7401 280.0238,-67.263 282.5698,-63.001 285.5126,-59.0121"/>
<polygon fill="#000000" stroke="#000000" points="288.2917,-61.1446 292.0175,-51.2265 282.9199,-56.6564 288.2917,-61.1446"/>
<text text-anchor="middle" x="308.6655" y="-89.3401" font-family="Times,serif" font-size="13.00" fill="#000000"> &gt;= pulse </text>
<text text-anchor="middle" x="308.6655" y="-75.3401" font-family="Times,serif" font-size="13.00" fill="#000000"> + WIDTH </text>
</g>
</g>
</svg>
