<?xml version="1.0" encoding="utf-8" standalone="no"?>
<!DOCTYPE svg PUBLIC "-//W3C//DTD SVG 1.1//EN"
  "http://www.w3.org/Graphics/SVG/1.1/DTD/svg11.dtd">
<svg xmlns:xlink="http://www.w3.org/1999/xlink" width="540pt" height="430.2pt" viewBox="0 0 540 430.2" xmlns="http://www.w3.org/2000/svg" version="1.1">
 <metadata>
  <rdf:RDF xmlns:dc="http://purl.org/dc/elements/1.1/" xmlns:cc="http://creativecommons.org/ns#" xmlns:rdf="http://www.w3.org/1999/02/22-rdf-syntax-ns#">
   <cc:Work>
    <dc:type rdf:resource="http://purl.org/dc/dcmitype/StillImage"/>
    <dc:date>2026-06-18T10:33:25.522682</dc:date>
    <dc:format>image/svg+xml</dc:format>
    <dc:creator>
     <cc:Agent>
      <dc:title>Matplotlib v3.11.0, https://matplotlib.org/</dc:title>
     </cc:Agent>
    </dc:creator>
   </cc:Work>
  </rdf:RDF>
 </metadata>
 <defs>
  <style type="text/css">*{stroke-linejoin: round; stroke-linecap: butt}</style>
 </defs>
 <g id="figure_1">
  <g id="patch_1">
   <path d="M 0 430.2 
L 540 430.2 
L 540 0 
L 0 0 
L 0 430.2 
z
" style="fill: none"/>
  </g>
  <g id="axes_1">
   <g id="patch_2">
    <path d="M 97.2 394.2 
L 529.2 394.2 
L 529.2 21.6 
L 97.2 21.6 
L 97.2 394.2 
z
" style="fill: none"/>
   </g>
   <g id="FillBetweenPolyCollection_1">
    <defs>
     <path id="mb5850a743e" d="M 97.2 -378.721698 
L 97.2 -399.812264 
L 115.344 -399.812264 
L 122.256 -378.721698 
L 529.2 -378.721698 
L 529.2 -399.812264 
L 529.2 -399.812264 
L 122.256 -399.812264 
L 115.344 -378.721698 
L 97.2 -378.721698 
z
" style="stroke: #1f77b4"/>
    </defs>
    <g clip-path="url(#pdee0218c33)">
     <use xlink:href="#mb5850a743e" x="0" y="430.2" style="fill: #1f77b4; stroke: #1f77b4"/>
    </g>
   </g>
   <g id="FillBetweenPolyCollection_2">
    <defs>
     <path id="mdfddddbe24" d="M 97.2 -348.843396 
L 97.2 -369.933962 
L 136.944 -369.933962 
L 143.856 -348.843396 
L 529.2 -348.843396 
L 529.2 -369.933962 
L 529.2 -369.933962 
L 143.856 -369.933962 
L 136.944 -348.843396 
L 97.2 -348.843396 
z
" style="stroke: #ff7f0e"/>
    </defs>
    <g clip-path="url(#pdee0218c33)">
     <use xlink:href="#mdfddddbe24" x="0" y="430.2" style="fill: #ff7f0e; stroke: #ff7f0e"/>
    </g>
   </g>
   <g id="FillBetweenPolyCollection_3">
    <defs>
     <path id="mf50fa29286" d="M 97.2 -318.965094 
L 97.2 -340.05566 
L 169.344 -340.05566 
L 176.256 -318.965094 
L 529.2 -318.965094 
L 529.2 -340.05566 
L 529.2 -340.05566 
L 176.256 -340.05566 
L 169.344 -318.965094 
L 97.2 -318.965094 
z
" style="stroke: #2ca02c"/>
    </defs>
    <g clip-path="url(#pdee0218c33)">
     <use xlink:href="#mf50fa29286" x="0" y="430.2" style="fill: #2ca02c; stroke: #2ca02c"/>
    </g>
   </g>
   <g id="FillBetweenPolyCollection_4">
    <defs>
     <path id="m22a1518659" d="M 97.2 -289.086792 
L 97.2 -310.177358 
L 201.744 -310.177358 
L 208.656 -289.086792 
L 529.2 -289.086792 
L 529.2 -310.177358 
L 529.2 -310.177358 
L 208.656 -310.177358 
L 201.744 -289.086792 
L 97.2 -289.086792 
z
" style="stroke: #d62728"/>
    </defs>
    <g clip-path="url(#pdee0218c33)">
     <use xlink:href="#m22a1518659" x="0" y="430.2" style="fill: #d62728; stroke: #d62728"/>
    </g>
   </g>
   <g id="FillBetweenPolyCollection_5">
    <defs>
     <path id="m8ba44091ae" d="M 97.2 -259.208491 
L 97.2 -280.299057 
L 212.544 -280.299057 
L 219.456 -259.208491 
L 234.144 -259.208491 
L 241.056 -280.299057 
L 266.544 -280.299057 
L 273.456 -259.208491 
L 288.144 -259.208491 
L 295.056 -280.299057 
L 320.544 -280.299057 
L 327.456 -259.208491 
L 342.144 -259.208491 
L 349.056 -280.299057 
L 529.2 -280.299057 
L 529.2 -259.208491 
L 529.2 -259.208491 
L 349.056 -259.208491 
L 342.144 -280.299057 
L 327.456 -280.299057 
L 320.544 -259.208491 
L 295.056 -259.208491 
L 288.144 -280.299057 
L 273.456 -280.299057 
L 266.544 -259.208491 
L 241.056 -259.208491 
L 234.144 -280.299057 
L 219.456 -280.299057 
L 212.544 -259.208491 
L 97.2 -259.208491 
z
" style="stroke: #9467bd"/>
    </defs>
    <g clip-path="url(#pdee0218c33)">
     <use xlink:href="#m8ba44091ae" x="0" y="430.2" style="fill: #9467bd; stroke: #9467bd"/>
    </g>
   </g>
   <g id="FillBetweenPolyCollection_6">
    <defs>
     <path id="m9c0bb3b69f" d="M 97.2 -44.787736 
L 97.2 -65.878302 
L 298.944 -65.878302 
L 305.856 -44.787736 
L 374.544 -44.787736 
L 381.456 -65.878302 
L 428.544 -65.878302 
L 435.456 -44.787736 
L 450.144 -44.787736 
L 457.056 -65.878302 
L 529.2 -65.878302 
L 529.2 -44.787736 
L 529.2 -44.787736 
L 457.056 -44.787736 
L 450.144 -65.878302 
L 435.456 -65.878302 
L 428.544 -44.787736 
L 381.456 -44.787736 
L 374.544 -65.878302 
L 305.856 -65.878302 
L 298.944 -44.787736 
L 97.2 -44.787736 
z
" style="stroke: #17becf"/>
    </defs>
    <g clip-path="url(#pdee0218c33)">
     <use xlink:href="#m9c0bb3b69f" x="0" y="430.2" style="fill: #17becf; stroke: #17becf"/>
    </g>
   </g>
   <g id="matplotlib.axis_1">
    <g id="xtick_1">
     <g id="line2d_1">
      <path d="M 97.2 394.2 
L 97.2 21.6 
" clip-path="url(#pdee0218c33)" style="fill: none; stroke: #b0b0b0; stroke-width: 0.8; stroke-linecap: square"/>
     </g>
     <g id="line2d_2">
      <defs>
       <path id="m19ffc88012" d="M 0 0 
L 0 3.5 
" style="stroke: #000000; stroke-width: 0.8"/>
      </defs>
      <g>
       <use xlink:href="#m19ffc88012" x="97.2" y="394.2" style="stroke: #000000; stroke-width: 0.8"/>
      </g>
     </g>
     <g id="text_1">
      <!-- 0 -->
      <g transform="translate(94.01875 408.797656) scale(0.1 -0.1)">
       <defs>
        <path id="DejaVuSans-13" d="M 2034 4250 
Q 1547 4250 1301 3770 
Q 1056 3291 1056 2328 
Q 1056 1369 1301 889 
Q 1547 409 2034 409 
Q 2525 409 2770 889 
Q 3016 1369 3016 2328 
Q 3016 3291 2770 3770 
Q 2525 4250 2034 4250 
z
M 2034 4750 
Q 2819 4750 3233 4129 
Q 3647 3509 3647 2328 
Q 3647 1150 3233 529 
Q 2819 -91 2034 -91 
Q 1250 -91 836 529 
Q 422 1150 422 2328 
Q 422 3509 836 4129 
Q 1250 4750 2034 4750 
z
" transform="scale(0.015625)"/>
       </defs>
       <use xlink:href="#DejaVuSans-13"/>
      </g>
     </g>
    </g>
    <g id="xtick_2">
     <g id="line2d_3">
      <path d="M 151.2 394.2 
L 151.2 21.6 
" clip-path="url(#pdee0218c33)" style="fill: none; stroke: #b0b0b0; stroke-width: 0.8; stroke-linecap: square"/>
     </g>
     <g id="line2d_4">
      <g>
       <use xlink:href="#m19ffc88012" x="151.2" y="394.2" style="stroke: #000000; stroke-width: 0.8"/>
      </g>
     </g>
     <g id="text_2">
      <!-- 5 -->
      <g transform="translate(148.01875 408.797656) scale(0.1 -0.1)">
       <defs>
        <path id="DejaVuSans-18" d="M 691 4666 
L 3169 4666 
L 3169 4134 
L 1269 4134 
L 1269 2991 
Q 1406 3038 1543 3061 
Q 1681 3084 1819 3084 
Q 2600 3084 3056 2656 
Q 3513 2228 3513 1497 
Q 3513 744 3044 326 
Q 2575 -91 1722 -91 
Q 1428 -91 1123 -41 
Q 819 9 494 109 
L 494 744 
Q 775 591 1075 516 
Q 1375 441 1709 441 
Q 2250 441 2565 725 
Q 2881 1009 2881 1497 
Q 2881 1984 2565 2268 
Q 2250 2553 1709 2553 
Q 1456 2553 1204 2497 
Q 953 2441 691 2322 
L 691 4666 
z
" transform="scale(0.015625)"/>
       </defs>
       <use xlink:href="#DejaVuSans-18"/>
      </g>
     </g>
    </g>
    <g id="xtick_3">
     <g id="line2d_5">
      <path d="M 205.2 394.2 
L 205.2 21.6 
" clip-path="url(#pdee0218c33)" style="fill: none; stroke: #b0b0b0; stroke-width: 0.8; stroke-linecap: square"/>
     </g>
     <g id="line2d_6">
      <g>
       <use xlink:href="#m19ffc88012" x="205.2" y="394.2" style="stroke: #000000; stroke-width: 0.8"/>
      </g>
     </g>
     <g id="text_3">
      <!-- 10 -->
      <g transform="translate(198.8375 408.797656) scale(0.1 -0.1)">
       <defs>
        <path id="DejaVuSans-14" d="M 794 531 
L 1825 531 
L 1825 4091 
L 703 3866 
L 703 4441 
L 1819 4666 
L 2450 4666 
L 2450 531 
L 3481 531 
L 3481 0 
L 794 0 
L 794 531 
z
" transform="scale(0.015625)"/>
       </defs>
       <use xlink:href="#DejaVuSans-14"/>
       <use xlink:href="#DejaVuSans-13" transform="translate(63.625 0)"/>
      </g>
     </g>
    </g>
    <g id="xtick_4">
     <g id="line2d_7">
      <path d="M 259.2 394.2 
L 259.2 21.6 
" clip-path="url(#pdee0218c33)" style="fill: none; stroke: #b0b0b0; stroke-width: 0.8; stroke-linecap: square"/>
     </g>
     <g id="line2d_8">
      <g>
       <use xlink:href="#m19ffc88012" x="259.2" y="394.2" style="stroke: #000000; stroke-width: 0.8"/>
      </g>
     </g>
     <g id="text_4">
      <!-- 15 -->
      <g transform="translate(252.8375 408.797656) scale(0.1 -0.1)">
       <use xlink:href="#DejaVuSans-14"/>
       <use xlink:href="#DejaVuSans-18" transform="translate(63.625 0)"/>
      </g>
     </g>
    </g>
    <g id="xtick_5">
     <g id="line2d_9">
      <path d="M 313.2 394.2 
L 313.2 21.6 
" clip-path="url(#pdee0218c33)" style="fill: none; stroke: #b0b0b0; stroke-width: 0.8; stroke-linecap: square"/>
     </g>
     <g id="line2d_10">
      <g>
       <use xlink:href="#m19ffc88012" x="313.2" y="394.2" style="stroke: #000000; stroke-width: 0.8"/>
      </g>
     </g>
     <g id="text_5">
      <!-- 20 -->
      <g transform="translate(306.8375 408.797656) scale(0.1 -0.1)">
       <defs>
        <path id="DejaVuSans-15" d="M 1228 531 
L 3431 531 
L 3431 0 
L 469 0 
L 469 531 
Q 828 903 1448 1529 
Q 2069 2156 2228 2338 
Q 2531 2678 2651 2914 
Q 2772 3150 2772 3378 
Q 2772 3750 2511 3984 
Q 2250 4219 1831 4219 
Q 1534 4219 1204 4116 
Q 875 4013 500 3803 
L 500 4441 
Q 881 4594 1212 4672 
Q 1544 4750 1819 4750 
Q 2544 4750 2975 4387 
Q 3406 4025 3406 3419 
Q 3406 3131 3298 2873 
Q 3191 2616 2906 2266 
Q 2828 2175 2409 1742 
Q 1991 1309 1228 531 
z
" transform="scale(0.015625)"/>
       </defs>
       <use xlink:href="#DejaVuSans-15"/>
       <use xlink:href="#DejaVuSans-13" transform="translate(63.625 0)"/>
      </g>
     </g>
    </g>
    <g id="xtick_6">
     <g id="line2d_11">
      <path d="M 367.2 394.2 
L 367.2 21.6 
" clip-path="url(#pdee0218c33)" style="fill: none; stroke: #b0b0b0; stroke-width: 0.8; stroke-linecap: square"/>
     </g>
     <g id="line2d_12">
      <g>
       <use xlink:href="#m19ffc88012" x="367.2" y="394.2" style="stroke: #000000; stroke-width: 0.8"/>
      </g>
     </g>
     <g id="text_6">
      <!-- 25 -->
      <g transform="translate(360.8375 408.797656) scale(0.1 -0.1)">
       <use xlink:href="#DejaVuSans-15"/>
       <use xlink:href="#DejaVuSans-18" transform="translate(63.625 0)"/>
      </g>
     </g>
    </g>
    <g id="xtick_7">
     <g id="line2d_13">
      <path d="M 421.2 394.2 
L 421.2 21.6 
" clip-path="url(#pdee0218c33)" style="fill: none; stroke: #b0b0b0; stroke-width: 0.8; stroke-linecap: square"/>
     </g>
     <g id="line2d_14">
      <g>
       <use xlink:href="#m19ffc88012" x="421.2" y="394.2" style="stroke: #000000; stroke-width: 0.8"/>
      </g>
     </g>
     <g id="text_7">
      <!-- 30 -->
      <g transform="translate(414.8375 408.797656) scale(0.1 -0.1)">
       <defs>
        <path id="DejaVuSans-16" d="M 2597 2516 
Q 3050 2419 3304 2112 
Q 3559 1806 3559 1356 
Q 3559 666 3084 287 
Q 2609 -91 1734 -91 
Q 1441 -91 1130 -33 
Q 819 25 488 141 
L 488 750 
Q 750 597 1062 519 
Q 1375 441 1716 441 
Q 2309 441 2620 675 
Q 2931 909 2931 1356 
Q 2931 1769 2642 2001 
Q 2353 2234 1838 2234 
L 1294 2234 
L 1294 2753 
L 1863 2753 
Q 2328 2753 2575 2939 
Q 2822 3125 2822 3475 
Q 2822 3834 2567 4026 
Q 2313 4219 1838 4219 
Q 1578 4219 1281 4162 
Q 984 4106 628 3988 
L 628 4550 
Q 988 4650 1302 4700 
Q 1616 4750 1894 4750 
Q 2613 4750 3031 4423 
Q 3450 4097 3450 3541 
Q 3450 3153 3228 2886 
Q 3006 2619 2597 2516 
z
" transform="scale(0.015625)"/>
       </defs>
       <use xlink:href="#DejaVuSans-16"/>
       <use xlink:href="#DejaVuSans-13" transform="translate(63.625 0)"/>
      </g>
     </g>
    </g>
    <g id="xtick_8">
     <g id="line2d_15">
      <path d="M 475.2 394.2 
L 475.2 21.6 
" clip-path="url(#pdee0218c33)" style="fill: none; stroke: #b0b0b0; stroke-width: 0.8; stroke-linecap: square"/>
     </g>
     <g id="line2d_16">
      <g>
       <use xlink:href="#m19ffc88012" x="475.2" y="394.2" style="stroke: #000000; stroke-width: 0.8"/>
      </g>
     </g>
     <g id="text_8">
      <!-- 35 -->
      <g transform="translate(468.8375 408.797656) scale(0.1 -0.1)">
       <use xlink:href="#DejaVuSans-16"/>
       <use xlink:href="#DejaVuSans-18" transform="translate(63.625 0)"/>
      </g>
     </g>
    </g>
    <g id="xtick_9">
     <g id="line2d_17">
      <path d="M 529.2 394.2 
L 529.2 21.6 
" clip-path="url(#pdee0218c33)" style="fill: none; stroke: #b0b0b0; stroke-width: 0.8; stroke-linecap: square"/>
     </g>
     <g id="line2d_18">
      <g>
       <use xlink:href="#m19ffc88012" x="529.2" y="394.2" style="stroke: #000000; stroke-width: 0.8"/>
      </g>
     </g>
     <g id="text_9">
      <!-- 40 -->
      <g transform="translate(522.8375 408.797656) scale(0.1 -0.1)">
       <defs>
        <path id="DejaVuSans-17" d="M 2419 4116 
L 825 1625 
L 2419 1625 
L 2419 4116 
z
M 2253 4666 
L 3047 4666 
L 3047 1625 
L 3713 1625 
L 3713 1100 
L 3047 1100 
L 3047 0 
L 2419 0 
L 2419 1100 
L 313 1100 
L 313 1709 
L 2253 4666 
z
" transform="scale(0.015625)"/>
       </defs>
       <use xlink:href="#DejaVuSans-17"/>
       <use xlink:href="#DejaVuSans-13" transform="translate(63.625 0)"/>
      </g>
     </g>
    </g>
    <g id="text_10">
     <!-- Timestamp (125MHz FPGA clock ticks) -->
     <g transform="translate(217.164844 422.798437) scale(0.1 -0.1)">
      <defs>
       <path id="DejaVuSans-37" d="M -19 4666 
L 3928 4666 
L 3928 4134 
L 2272 4134 
L 2272 0 
L 1638 0 
L 1638 4134 
L -19 4134 
L -19 4666 
z
" transform="scale(0.015625)"/>
       <path id="DejaVuSans-4c" d="M 603 3500 
L 1178 3500 
L 1178 0 
L 603 0 
L 603 3500 
z
M 603 4863 
L 1178 4863 
L 1178 4134 
L 603 4134 
L 603 4863 
z
" transform="scale(0.015625)"/>
       <path id="DejaVuSans-50" d="M 3328 2828 
Q 3544 3216 3844 3400 
Q 4144 3584 4550 3584 
Q 5097 3584 5394 3201 
Q 5691 2819 5691 2113 
L 5691 0 
L 5113 0 
L 5113 2094 
Q 5113 2597 4934 2840 
Q 4756 3084 4391 3084 
Q 3944 3084 3684 2787 
Q 3425 2491 3425 1978 
L 3425 0 
L 2847 0 
L 2847 2094 
Q 2847 2600 2669 2842 
Q 2491 3084 2119 3084 
Q 1678 3084 1418 2786 
Q 1159 2488 1159 1978 
L 1159 0 
L 581 0 
L 581 3500 
L 1159 3500 
L 1159 2956 
Q 1356 3278 1631 3431 
Q 1906 3584 2284 3584 
Q 2666 3584 2933 3390 
Q 3200 3197 3328 2828 
z
" transform="scale(0.015625)"/>
       <path id="DejaVuSans-48" d="M 3597 1894 
L 3597 1613 
L 953 1613 
Q 991 1019 1311 708 
Q 1631 397 2203 397 
Q 2534 397 2845 478 
Q 3156 559 3463 722 
L 3463 178 
Q 3153 47 2828 -22 
Q 2503 -91 2169 -91 
Q 1331 -91 842 396 
Q 353 884 353 1716 
Q 353 2575 817 3079 
Q 1281 3584 2069 3584 
Q 2775 3584 3186 3129 
Q 3597 2675 3597 1894 
z
M 3022 2063 
Q 3016 2534 2758 2815 
Q 2500 3097 2075 3097 
Q 1594 3097 1305 2825 
Q 1016 2553 972 2059 
L 3022 2063 
z
" transform="scale(0.015625)"/>
       <path id="DejaVuSans-56" d="M 2834 3397 
L 2834 2853 
Q 2591 2978 2328 3040 
Q 2066 3103 1784 3103 
Q 1356 3103 1142 2972 
Q 928 2841 928 2578 
Q 928 2378 1081 2264 
Q 1234 2150 1697 2047 
L 1894 2003 
Q 2506 1872 2764 1633 
Q 3022 1394 3022 966 
Q 3022 478 2636 193 
Q 2250 -91 1575 -91 
Q 1294 -91 989 -36 
Q 684 19 347 128 
L 347 722 
Q 666 556 975 473 
Q 1284 391 1588 391 
Q 1994 391 2212 530 
Q 2431 669 2431 922 
Q 2431 1156 2273 1281 
Q 2116 1406 1581 1522 
L 1381 1569 
Q 847 1681 609 1914 
Q 372 2147 372 2553 
Q 372 3047 722 3315 
Q 1072 3584 1716 3584 
Q 2034 3584 2315 3537 
Q 2597 3491 2834 3397 
z
" transform="scale(0.015625)"/>
       <path id="DejaVuSans-57" d="M 1172 4494 
L 1172 3500 
L 2356 3500 
L 2356 3053 
L 1172 3053 
L 1172 1153 
Q 1172 725 1289 603 
Q 1406 481 1766 481 
L 2356 481 
L 2356 0 
L 1766 0 
Q 1100 0 847 248 
Q 594 497 594 1153 
L 594 3053 
L 172 3053 
L 172 3500 
L 594 3500 
L 594 4494 
L 1172 4494 
z
" transform="scale(0.015625)"/>
       <path id="DejaVuSans-44" d="M 2194 1759 
Q 1497 1759 1228 1600 
Q 959 1441 959 1056 
Q 959 750 1161 570 
Q 1363 391 1709 391 
Q 2188 391 2477 730 
Q 2766 1069 2766 1631 
L 2766 1759 
L 2194 1759 
z
M 3341 1997 
L 3341 0 
L 2766 0 
L 2766 531 
Q 2569 213 2275 61 
Q 1981 -91 1556 -91 
Q 1019 -91 701 211 
Q 384 513 384 1019 
Q 384 1609 779 1909 
Q 1175 2209 1959 2209 
L 2766 2209 
L 2766 2266 
Q 2766 2663 2505 2880 
Q 2244 3097 1772 3097 
Q 1472 3097 1187 3025 
Q 903 2953 641 2809 
L 641 3341 
Q 956 3463 1253 3523 
Q 1550 3584 1831 3584 
Q 2591 3584 2966 3190 
Q 3341 2797 3341 1997 
z
" transform="scale(0.015625)"/>
       <path id="DejaVuSans-53" d="M 1159 525 
L 1159 -1331 
L 581 -1331 
L 581 3500 
L 1159 3500 
L 1159 2969 
Q 1341 3281 1617 3432 
Q 1894 3584 2278 3584 
Q 2916 3584 3314 3078 
Q 3713 2572 3713 1747 
Q 3713 922 3314 415 
Q 2916 -91 2278 -91 
Q 1894 -91 1617 61 
Q 1341 213 1159 525 
z
M 3116 1747 
Q 3116 2381 2855 2742 
Q 2594 3103 2138 3103 
Q 1681 3103 1420 2742 
Q 1159 2381 1159 1747 
Q 1159 1113 1420 752 
Q 1681 391 2138 391 
Q 2594 391 2855 752 
Q 3116 1113 3116 1747 
z
" transform="scale(0.015625)"/>
       <path id="DejaVuSans-3" transform="scale(0.015625)"/>
       <path id="DejaVuSans-b" d="M 1984 4856 
Q 1566 4138 1362 3434 
Q 1159 2731 1159 2009 
Q 1159 1288 1364 580 
Q 1569 -128 1984 -844 
L 1484 -844 
Q 1016 -109 783 600 
Q 550 1309 550 2009 
Q 550 2706 781 3412 
Q 1013 4119 1484 4856 
L 1984 4856 
z
" transform="scale(0.015625)"/>
       <path id="DejaVuSans-30" d="M 628 4666 
L 1569 4666 
L 2759 1491 
L 3956 4666 
L 4897 4666 
L 4897 0 
L 4281 0 
L 4281 4097 
L 3078 897 
L 2444 897 
L 1241 4097 
L 1241 0 
L 628 0 
L 628 4666 
z
" transform="scale(0.015625)"/>
       <path id="DejaVuSans-2b" d="M 628 4666 
L 1259 4666 
L 1259 2753 
L 3553 2753 
L 3553 4666 
L 4184 4666 
L 4184 0 
L 3553 0 
L 3553 2222 
L 1259 2222 
L 1259 0 
L 628 0 
L 628 4666 
z
" transform="scale(0.015625)"/>
       <path id="DejaVuSans-5d" d="M 353 3500 
L 3084 3500 
L 3084 2975 
L 922 459 
L 3084 459 
L 3084 0 
L 275 0 
L 275 525 
L 2438 3041 
L 353 3041 
L 353 3500 
z
" transform="scale(0.015625)"/>
       <path id="DejaVuSans-29" d="M 628 4666 
L 3309 4666 
L 3309 4134 
L 1259 4134 
L 1259 2759 
L 3109 2759 
L 3109 2228 
L 1259 2228 
L 1259 0 
L 628 0 
L 628 4666 
z
" transform="scale(0.015625)"/>
       <path id="DejaVuSans-33" d="M 1259 4147 
L 1259 2394 
L 2053 2394 
Q 2494 2394 2734 2622 
Q 2975 2850 2975 3272 
Q 2975 3691 2734 3919 
Q 2494 4147 2053 4147 
L 1259 4147 
z
M 628 4666 
L 2053 4666 
Q 2838 4666 3239 4311 
Q 3641 3956 3641 3272 
Q 3641 2581 3239 2228 
Q 2838 1875 2053 1875 
L 1259 1875 
L 1259 0 
L 628 0 
L 628 4666 
z
" transform="scale(0.015625)"/>
       <path id="DejaVuSans-2a" d="M 3809 666 
L 3809 1919 
L 2778 1919 
L 2778 2438 
L 4434 2438 
L 4434 434 
Q 4069 175 3628 42 
Q 3188 -91 2688 -91 
Q 1594 -91 976 548 
Q 359 1188 359 2328 
Q 359 3472 976 4111 
Q 1594 4750 2688 4750 
Q 3144 4750 3555 4637 
Q 3966 4525 4313 4306 
L 4313 3634 
Q 3963 3931 3569 4081 
Q 3175 4231 2741 4231 
Q 1884 4231 1454 3753 
Q 1025 3275 1025 2328 
Q 1025 1384 1454 906 
Q 1884 428 2741 428 
Q 3075 428 3337 486 
Q 3600 544 3809 666 
z
" transform="scale(0.015625)"/>
       <path id="DejaVuSans-24" d="M 2188 4044 
L 1331 1722 
L 3047 1722 
L 2188 4044 
z
M 1831 4666 
L 2547 4666 
L 4325 0 
L 3669 0 
L 3244 1197 
L 1141 1197 
L 716 0 
L 50 0 
L 1831 4666 
z
" transform="scale(0.015625)"/>
       <path id="DejaVuSans-46" d="M 3122 3366 
L 3122 2828 
Q 2878 2963 2633 3030 
Q 2388 3097 2138 3097 
Q 1578 3097 1268 2742 
Q 959 2388 959 1747 
Q 959 1106 1268 751 
Q 1578 397 2138 397 
Q 2388 397 2633 464 
Q 2878 531 3122 666 
L 3122 134 
Q 2881 22 2623 -34 
Q 2366 -91 2075 -91 
Q 1284 -91 818 406 
Q 353 903 353 1747 
Q 353 2603 823 3093 
Q 1294 3584 2113 3584 
Q 2378 3584 2631 3529 
Q 2884 3475 3122 3366 
z
" transform="scale(0.015625)"/>
       <path id="DejaVuSans-4f" d="M 603 4863 
L 1178 4863 
L 1178 0 
L 603 0 
L 603 4863 
z
" transform="scale(0.015625)"/>
       <path id="DejaVuSans-52" d="M 1959 3097 
Q 1497 3097 1228 2736 
Q 959 2375 959 1747 
Q 959 1119 1226 758 
Q 1494 397 1959 397 
Q 2419 397 2687 759 
Q 2956 1122 2956 1747 
Q 2956 2369 2687 2733 
Q 2419 3097 1959 3097 
z
M 1959 3584 
Q 2709 3584 3137 3096 
Q 3566 2609 3566 1747 
Q 3566 888 3137 398 
Q 2709 -91 1959 -91 
Q 1206 -91 779 398 
Q 353 888 353 1747 
Q 353 2609 779 3096 
Q 1206 3584 1959 3584 
z
" transform="scale(0.015625)"/>
       <path id="DejaVuSans-4e" d="M 581 4863 
L 1159 4863 
L 1159 1991 
L 2875 3500 
L 3609 3500 
L 1753 1863 
L 3688 0 
L 2938 0 
L 1159 1709 
L 1159 0 
L 581 0 
L 581 4863 
z
" transform="scale(0.015625)"/>
       <path id="DejaVuSans-c" d="M 513 4856 
L 1013 4856 
Q 1481 4119 1714 3412 
Q 1947 2706 1947 2009 
Q 1947 1309 1714 600 
Q 1481 -109 1013 -844 
L 513 -844 
Q 928 -128 1133 580 
Q 1338 1288 1338 2009 
Q 1338 2731 1133 3434 
Q 928 4138 513 4856 
z
" transform="scale(0.015625)"/>
      </defs>
      <use xlink:href="#DejaVuSans-37"/>
      <use xlink:href="#DejaVuSans-4c" transform="translate(58 0)"/>
      <use xlink:href="#DejaVuSans-50" transform="translate(85.78125 0)"/>
      <use xlink:href="#DejaVuSans-48" transform="translate(183.1875 0)"/>
      <use xlink:href="#DejaVuSans-56" transform="translate(244.71875 0)"/>
      <use xlink:href="#DejaVuSans-57" transform="translate(296.8125 0)"/>
      <use xlink:href="#DejaVuSans-44" transform="translate(336.015625 0)"/>
      <use xlink:href="#DejaVuSans-50" transform="translate(397.296875 0)"/>
      <use xlink:href="#DejaVuSans-53" transform="translate(494.703125 0)"/>
      <use xlink:href="#DejaVuSans-3" transform="translate(558.1875 0)"/>
      <use xlink:href="#DejaVuSans-b" transform="translate(589.96875 0)"/>
      <use xlink:href="#DejaVuSans-14" transform="translate(628.984375 0)"/>
      <use xlink:href="#DejaVuSans-15" transform="translate(692.609375 0)"/>
      <use xlink:href="#DejaVuSans-18" transform="translate(756.234375 0)"/>
      <use xlink:href="#DejaVuSans-30" transform="translate(819.859375 0)"/>
      <use xlink:href="#DejaVuSans-2b" transform="translate(906.140625 0)"/>
      <use xlink:href="#DejaVuSans-5d" transform="translate(981.34375 0)"/>
      <use xlink:href="#DejaVuSans-3" transform="translate(1033.828125 0)"/>
      <use xlink:href="#DejaVuSans-29" transform="translate(1065.609375 0)"/>
      <use xlink:href="#DejaVuSans-33" transform="translate(1123.125 0)"/>
      <use xlink:href="#DejaVuSans-2a" transform="translate(1183.421875 0)"/>
      <use xlink:href="#DejaVuSans-24" transform="translate(1260.90625 0)"/>
      <use xlink:href="#DejaVuSans-3" transform="translate(1329.3125 0)"/>
      <use xlink:href="#DejaVuSans-46" transform="translate(1361.09375 0)"/>
      <use xlink:href="#DejaVuSans-4f" transform="translate(1416.078125 0)"/>
      <use xlink:href="#DejaVuSans-52" transform="translate(1443.859375 0)"/>
      <use xlink:href="#DejaVuSans-46" transform="translate(1505.046875 0)"/>
      <use xlink:href="#DejaVuSans-4e" transform="translate(1560.03125 0)"/>
      <use xlink:href="#DejaVuSans-3" transform="translate(1617.9375 0)"/>
      <use xlink:href="#DejaVuSans-57" transform="translate(1649.71875 0)"/>
      <use xlink:href="#DejaVuSans-4c" transform="translate(1688.921875 0)"/>
      <use xlink:href="#DejaVuSans-46" transform="translate(1716.703125 0)"/>
      <use xlink:href="#DejaVuSans-4e" transform="translate(1771.6875 0)"/>
      <use xlink:href="#DejaVuSans-56" transform="translate(1829.59375 0)"/>
      <use xlink:href="#DejaVuSans-c" transform="translate(1881.6875 0)"/>
     </g>
    </g>
   </g>
   <g id="matplotlib.axis_2"/>
   <g id="line2d_19">
    <path d="M 97.2 30.387736 
L 115.344 30.387736 
L 122.256 51.478302 
L 529.2 51.478302 
" clip-path="url(#pdee0218c33)" style="fill: none; stroke: #1f77b4; stroke-width: 1.5; stroke-linecap: square"/>
   </g>
   <g id="line2d_20">
    <path d="M 97.2 51.478302 
L 115.344 51.478302 
L 122.256 30.387736 
L 529.2 30.387736 
" clip-path="url(#pdee0218c33)" style="fill: none; stroke: #1f77b4; stroke-width: 1.5; stroke-linecap: square"/>
   </g>
   <g id="line2d_21">
    <path d="M 97.2 60.266038 
L 136.944 60.266038 
L 143.856 81.356604 
L 529.2 81.356604 
" clip-path="url(#pdee0218c33)" style="fill: none; stroke: #ff7f0e; stroke-width: 1.5; stroke-linecap: square"/>
   </g>
   <g id="line2d_22">
    <path d="M 97.2 81.356604 
L 136.944 81.356604 
L 143.856 60.266038 
L 529.2 60.266038 
" clip-path="url(#pdee0218c33)" style="fill: none; stroke: #ff7f0e; stroke-width: 1.5; stroke-linecap: square"/>
   </g>
   <g id="line2d_23">
    <path d="M 97.2 90.14434 
L 169.344 90.14434 
L 176.256 111.234906 
L 529.2 111.234906 
" clip-path="url(#pdee0218c33)" style="fill: none; stroke: #2ca02c; stroke-width: 1.5; stroke-linecap: square"/>
   </g>
   <g id="line2d_24">
    <path d="M 97.2 111.234906 
L 169.344 111.234906 
L 176.256 90.14434 
L 529.2 90.14434 
" clip-path="url(#pdee0218c33)" style="fill: none; stroke: #2ca02c; stroke-width: 1.5; stroke-linecap: square"/>
   </g>
   <g id="line2d_25">
    <path d="M 97.2 120.022642 
L 201.744 120.022642 
L 208.656 141.113208 
L 529.2 141.113208 
" clip-path="url(#pdee0218c33)" style="fill: none; stroke: #d62728; stroke-width: 1.5; stroke-linecap: square"/>
   </g>
   <g id="line2d_26">
    <path d="M 97.2 141.113208 
L 201.744 141.113208 
L 208.656 120.022642 
L 529.2 120.022642 
" clip-path="url(#pdee0218c33)" style="fill: none; stroke: #d62728; stroke-width: 1.5; stroke-linecap: square"/>
   </g>
   <g id="line2d_27">
    <path d="M 97.2 149.900943 
L 212.544 149.900943 
L 219.456 170.991509 
L 234.144 170.991509 
L 241.056 149.900943 
L 266.544 149.900943 
L 273.456 170.991509 
L 288.144 170.991509 
L 295.056 149.900943 
L 320.544 149.900943 
L 327.456 170.991509 
L 342.144 170.991509 
L 349.056 149.900943 
L 529.2 149.900943 
" clip-path="url(#pdee0218c33)" style="fill: none; stroke: #9467bd; stroke-width: 1.5; stroke-linecap: square"/>
   </g>
   <g id="line2d_28">
    <path d="M 97.2 170.991509 
L 212.544 170.991509 
L 219.456 149.900943 
L 234.144 149.900943 
L 241.056 170.991509 
L 266.544 170.991509 
L 273.456 149.900943 
L 288.144 149.900943 
L 295.056 170.991509 
L 320.544 170.991509 
L 327.456 149.900943 
L 342.144 149.900943 
L 349.056 170.991509 
L 529.2 170.991509 
" clip-path="url(#pdee0218c33)" style="fill: none; stroke: #9467bd; stroke-width: 1.5; stroke-linecap: square"/>
   </g>
   <g id="line2d_29">
    <path d="M 97.2 214.930189 
L 151.2 214.930189 
L 151.2 179.779245 
L 464.4 179.779245 
L 464.4 214.930189 
L 529.2 214.930189 
" clip-path="url(#pdee0218c33)" style="fill: none; stroke: #8c564b; stroke-width: 2; stroke-linecap: square"/>
   </g>
   <g id="line2d_30">
    <path d="M 97.2 258.868868 
L 226.8 258.868868 
L 226.8 223.717925 
L 324 223.717925 
L 324 258.868868 
L 345.6 258.868868 
L 345.6 223.717925 
L 378 223.717925 
L 378 258.868868 
L 529.2 258.868868 
" clip-path="url(#pdee0218c33)" style="fill: none; stroke: #e377c2; stroke-width: 2; stroke-linecap: square"/>
   </g>
   <g id="line2d_31">
    <path d="M 97.2 302.807547 
L 248.4 302.807547 
L 248.4 267.656604 
L 324 267.656604 
L 324 302.807547 
L 378 302.807547 
L 378 267.656604 
L 399.6 267.656604 
L 399.6 302.807547 
L 529.2 302.807547 
" clip-path="url(#pdee0218c33)" style="fill: none; stroke: #7f7f7f; stroke-width: 2; stroke-linecap: square"/>
   </g>
   <g id="line2d_32">
    <path d="M 97.2 311.595283 
L 529.2 311.595283 
" clip-path="url(#pdee0218c33)" style="fill: none; stroke-dasharray: 5.55,2.4; stroke-dashoffset: 0; stroke: #000000; stroke-width: 1.5"/>
   </g>
   <g id="line2d_33">
    <path d="M 97.2 355.533962 
L 216 355.533962 
L 216 320.383019 
L 475.2 320.383019 
L 475.2 355.533962 
L 529.2 355.533962 
" clip-path="url(#pdee0218c33)" style="fill: none; stroke: #bcbd22; stroke-width: 2; stroke-linecap: square"/>
   </g>
   <g id="line2d_34">
    <path d="M 97.2 364.321698 
L 298.944 364.321698 
L 305.856 385.412264 
L 374.544 385.412264 
L 381.456 364.321698 
L 428.544 364.321698 
L 435.456 385.412264 
L 450.144 385.412264 
L 457.056 364.321698 
L 529.2 364.321698 
" clip-path="url(#pdee0218c33)" style="fill: none; stroke: #17becf; stroke-width: 1.5; stroke-linecap: square"/>
   </g>
   <g id="line2d_35">
    <path d="M 97.2 385.412264 
L 298.944 385.412264 
L 305.856 364.321698 
L 374.544 364.321698 
L 381.456 385.412264 
L 428.544 385.412264 
L 435.456 364.321698 
L 450.144 364.321698 
L 457.056 385.412264 
L 529.2 385.412264 
" clip-path="url(#pdee0218c33)" style="fill: none; stroke: #17becf; stroke-width: 1.5; stroke-linecap: square"/>
   </g>
   <g id="patch_3">
    <path d="M 97.2 394.2 
L 97.2 21.6 
" style="fill: none; stroke: #000000; stroke-width: 0.8; stroke-linejoin: miter; stroke-linecap: square"/>
   </g>
   <g id="patch_4">
    <path d="M 529.2 394.2 
L 529.2 21.6 
" style="fill: none; stroke: #000000; stroke-width: 0.8; stroke-linejoin: miter; stroke-linecap: square"/>
   </g>
   <g id="patch_5">
    <path d="M 97.2 394.2 
L 529.2 394.2 
" style="fill: none; stroke: #000000; stroke-width: 0.8; stroke-linejoin: miter; stroke-linecap: square"/>
   </g>
   <g id="patch_6">
    <path d="M 97.2 21.6 
L 529.2 21.6 
" style="fill: none; stroke: #000000; stroke-width: 0.8; stroke-linejoin: miter; stroke-linecap: square"/>
   </g>
   <g id="text_11">
    <!-- 0 -->
    <g style="fill: #ffffff" transform="translate(122.256 43.530675) scale(0.1 -0.1)">
     <use xlink:href="#DejaVuSans-13"/>
    </g>
   </g>
   <g id="text_12">
    <!-- START_WRITE -->
    <g transform="translate(25.683062 43.530675) scale(0.1 -0.1)">
     <defs>
      <path id="DejaVuSans-36" d="M 3425 4513 
L 3425 3897 
Q 3066 4069 2747 4153 
Q 2428 4238 2131 4238 
Q 1616 4238 1336 4038 
Q 1056 3838 1056 3469 
Q 1056 3159 1242 3001 
Q 1428 2844 1947 2747 
L 2328 2669 
Q 3034 2534 3370 2195 
Q 3706 1856 3706 1288 
Q 3706 609 3251 259 
Q 2797 -91 1919 -91 
Q 1588 -91 1214 -16 
Q 841 59 441 206 
L 441 856 
Q 825 641 1194 531 
Q 1563 422 1919 422 
Q 2459 422 2753 634 
Q 3047 847 3047 1241 
Q 3047 1584 2836 1778 
Q 2625 1972 2144 2069 
L 1759 2144 
Q 1053 2284 737 2584 
Q 422 2884 422 3419 
Q 422 4038 858 4394 
Q 1294 4750 2059 4750 
Q 2388 4750 2728 4690 
Q 3069 4631 3425 4513 
z
" transform="scale(0.015625)"/>
      <path id="DejaVuSans-35" d="M 2841 2188 
Q 3044 2119 3236 1894 
Q 3428 1669 3622 1275 
L 4263 0 
L 3584 0 
L 2988 1197 
Q 2756 1666 2539 1819 
Q 2322 1972 1947 1972 
L 1259 1972 
L 1259 0 
L 628 0 
L 628 4666 
L 2053 4666 
Q 2853 4666 3247 4331 
Q 3641 3997 3641 3322 
Q 3641 2881 3436 2590 
Q 3231 2300 2841 2188 
z
M 1259 4147 
L 1259 2491 
L 2053 2491 
Q 2509 2491 2742 2702 
Q 2975 2913 2975 3322 
Q 2975 3731 2742 3939 
Q 2509 4147 2053 4147 
L 1259 4147 
z
" transform="scale(0.015625)"/>
      <path id="DejaVuSans-42" d="M 3263 -1063 
L 3263 -1509 
L -63 -1509 
L -63 -1063 
L 3263 -1063 
z
" transform="scale(0.015625)"/>
      <path id="DejaVuSans-3a" d="M 213 4666 
L 850 4666 
L 1831 722 
L 2809 4666 
L 3519 4666 
L 4500 722 
L 5478 4666 
L 6119 4666 
L 4947 0 
L 4153 0 
L 3169 4050 
L 2175 0 
L 1381 0 
L 213 4666 
z
" transform="scale(0.015625)"/>
      <path id="DejaVuSans-2c" d="M 628 4666 
L 1259 4666 
L 1259 0 
L 628 0 
L 628 4666 
z
" transform="scale(0.015625)"/>
      <path id="DejaVuSans-28" d="M 628 4666 
L 3578 4666 
L 3578 4134 
L 1259 4134 
L 1259 2753 
L 3481 2753 
L 3481 2222 
L 1259 2222 
L 1259 531 
L 3634 531 
L 3634 0 
L 628 0 
L 628 4666 
z
" transform="scale(0.015625)"/>
     </defs>
     <use xlink:href="#DejaVuSans-36"/>
     <use xlink:href="#DejaVuSans-37" transform="translate(63.484375 0)"/>
     <use xlink:href="#DejaVuSans-24" transform="translate(116.796875 0)"/>
     <use xlink:href="#DejaVuSans-35" transform="translate(185.203125 0)"/>
     <use xlink:href="#DejaVuSans-37" transform="translate(247.40625 0)"/>
     <use xlink:href="#DejaVuSans-42" transform="translate(308.484375 0)"/>
     <use xlink:href="#DejaVuSans-3a" transform="translate(358.484375 0)"/>
     <use xlink:href="#DejaVuSans-35" transform="translate(457.359375 0)"/>
     <use xlink:href="#DejaVuSans-2c" transform="translate(526.84375 0)"/>
     <use xlink:href="#DejaVuSans-37" transform="translate(556.34375 0)"/>
     <use xlink:href="#DejaVuSans-28" transform="translate(617.421875 0)"/>
    </g>
   </g>
   <g id="text_13">
    <!-- 0x12 -->
    <g style="fill: #ffffff" transform="translate(143.856 73.408977) scale(0.1 -0.1)">
     <defs>
      <path id="DejaVuSans-5b" d="M 3513 3500 
L 2247 1797 
L 3578 0 
L 2900 0 
L 1881 1375 
L 863 0 
L 184 0 
L 1544 1831 
L 300 3500 
L 978 3500 
L 1906 2253 
L 2834 3500 
L 3513 3500 
z
" transform="scale(0.015625)"/>
     </defs>
     <use xlink:href="#DejaVuSans-13"/>
     <use xlink:href="#DejaVuSans-5b" transform="translate(63.625 0)"/>
     <use xlink:href="#DejaVuSans-14" transform="translate(122.8125 0)"/>
     <use xlink:href="#DejaVuSans-15" transform="translate(186.4375 0)"/>
    </g>
   </g>
   <g id="text_14">
    <!-- WRITE -->
    <g transform="translate(61.5315 73.408977) scale(0.1 -0.1)">
     <use xlink:href="#DejaVuSans-3a"/>
     <use xlink:href="#DejaVuSans-35" transform="translate(98.875 0)"/>
     <use xlink:href="#DejaVuSans-2c" transform="translate(168.359375 0)"/>
     <use xlink:href="#DejaVuSans-37" transform="translate(197.859375 0)"/>
     <use xlink:href="#DejaVuSans-28" transform="translate(258.9375 0)"/>
    </g>
   </g>
   <g id="text_15">
    <!-- 2 -->
    <g style="fill: #ffffff" transform="translate(176.256 103.287279) scale(0.1 -0.1)">
     <use xlink:href="#DejaVuSans-15"/>
    </g>
   </g>
   <g id="text_16">
    <!-- TRIG_EDGE -->
    <g transform="translate(36.903375 103.287279) scale(0.1 -0.1)">
     <defs>
      <path id="DejaVuSans-27" d="M 1259 4147 
L 1259 519 
L 2022 519 
Q 2988 519 3436 956 
Q 3884 1394 3884 2338 
Q 3884 3275 3436 3711 
Q 2988 4147 2022 4147 
L 1259 4147 
z
M 628 4666 
L 1925 4666 
Q 3281 4666 3915 4102 
Q 4550 3538 4550 2338 
Q 4550 1131 3912 565 
Q 3275 0 1925 0 
L 628 0 
L 628 4666 
z
" transform="scale(0.015625)"/>
     </defs>
     <use xlink:href="#DejaVuSans-37"/>
     <use xlink:href="#DejaVuSans-35" transform="translate(61.078125 0)"/>
     <use xlink:href="#DejaVuSans-2c" transform="translate(130.5625 0)"/>
     <use xlink:href="#DejaVuSans-2a" transform="translate(160.0625 0)"/>
     <use xlink:href="#DejaVuSans-42" transform="translate(237.546875 0)"/>
     <use xlink:href="#DejaVuSans-28" transform="translate(287.546875 0)"/>
     <use xlink:href="#DejaVuSans-27" transform="translate(350.734375 0)"/>
     <use xlink:href="#DejaVuSans-2a" transform="translate(427.734375 0)"/>
     <use xlink:href="#DejaVuSans-28" transform="translate(505.21875 0)"/>
    </g>
   </g>
   <g id="text_17">
    <!-- 0 -->
    <g style="fill: #ffffff" transform="translate(208.656 133.165581) scale(0.1 -0.1)">
     <use xlink:href="#DejaVuSans-13"/>
    </g>
   </g>
   <g id="text_18">
    <!-- ARM -->
    <g transform="translate(71.326813 133.165581) scale(0.1 -0.1)">
     <use xlink:href="#DejaVuSans-24"/>
     <use xlink:href="#DejaVuSans-35" transform="translate(68.40625 0)"/>
     <use xlink:href="#DejaVuSans-30" transform="translate(137.890625 0)"/>
    </g>
   </g>
   <g id="text_19">
    <!-- 10 -->
    <g style="fill: #ffffff" transform="translate(219.456 163.043883) scale(0.1 -0.1)">
     <use xlink:href="#DejaVuSans-14"/>
     <use xlink:href="#DejaVuSans-13" transform="translate(63.625 0)"/>
    </g>
   </g>
   <g id="text_20">
    <!-- 20 -->
    <g style="fill: #ffffff" transform="translate(241.056 163.043883) scale(0.1 -0.1)">
     <use xlink:href="#DejaVuSans-15"/>
     <use xlink:href="#DejaVuSans-13" transform="translate(63.625 0)"/>
    </g>
   </g>
   <g id="text_21">
    <!-- 24 -->
    <g style="fill: #ffffff" transform="translate(273.456 163.043883) scale(0.1 -0.1)">
     <use xlink:href="#DejaVuSans-15"/>
     <use xlink:href="#DejaVuSans-17" transform="translate(63.625 0)"/>
    </g>
   </g>
   <g id="text_22">
    <!-- 30 -->
    <g style="fill: #ffffff" transform="translate(295.056 163.043883) scale(0.1 -0.1)">
     <use xlink:href="#DejaVuSans-16"/>
     <use xlink:href="#DejaVuSans-13" transform="translate(63.625 0)"/>
    </g>
   </g>
   <g id="text_23">
    <!-- 22 -->
    <g style="fill: #ffffff" transform="translate(327.456 163.043883) scale(0.1 -0.1)">
     <use xlink:href="#DejaVuSans-15"/>
     <use xlink:href="#DejaVuSans-15" transform="translate(63.625 0)"/>
    </g>
   </g>
   <g id="text_24">
    <!-- 13 -->
    <g style="fill: #ffffff" transform="translate(349.056 163.043883) scale(0.1 -0.1)">
     <use xlink:href="#DejaVuSans-14"/>
     <use xlink:href="#DejaVuSans-16" transform="translate(63.625 0)"/>
    </g>
   </g>
   <g id="text_25">
    <!-- POS[1] -->
    <g transform="translate(59.328375 163.044273) scale(0.1 -0.1)">
     <defs>
      <path id="DejaVuSans-32" d="M 2522 4238 
Q 1834 4238 1429 3725 
Q 1025 3213 1025 2328 
Q 1025 1447 1429 934 
Q 1834 422 2522 422 
Q 3209 422 3611 934 
Q 4013 1447 4013 2328 
Q 4013 3213 3611 3725 
Q 3209 4238 2522 4238 
z
M 2522 4750 
Q 3503 4750 4090 4092 
Q 4678 3434 4678 2328 
Q 4678 1225 4090 567 
Q 3503 -91 2522 -91 
Q 1538 -91 948 565 
Q 359 1222 359 2328 
Q 359 3434 948 4092 
Q 1538 4750 2522 4750 
z
" transform="scale(0.015625)"/>
      <path id="DejaVuSans-3e" d="M 550 4863 
L 1875 4863 
L 1875 4416 
L 1125 4416 
L 1125 -397 
L 1875 -397 
L 1875 -844 
L 550 -844 
L 550 4863 
z
" transform="scale(0.015625)"/>
      <path id="DejaVuSans-40" d="M 1947 4863 
L 1947 -844 
L 622 -844 
L 622 -397 
L 1369 -397 
L 1369 4416 
L 622 4416 
L 622 4863 
L 1947 4863 
z
" transform="scale(0.015625)"/>
     </defs>
     <use xlink:href="#DejaVuSans-33"/>
     <use xlink:href="#DejaVuSans-32" transform="translate(60.296875 0)"/>
     <use xlink:href="#DejaVuSans-36" transform="translate(139.015625 0)"/>
     <use xlink:href="#DejaVuSans-3e" transform="translate(202.5 0)"/>
     <use xlink:href="#DejaVuSans-14" transform="translate(241.515625 0)"/>
     <use xlink:href="#DejaVuSans-40" transform="translate(305.140625 0)"/>
    </g>
   </g>
   <g id="text_26">
    <!-- ENABLE -->
    <g transform="translate(54.351812 199.952373) scale(0.1 -0.1)">
     <defs>
      <path id="DejaVuSans-31" d="M 628 4666 
L 1478 4666 
L 3547 763 
L 3547 4666 
L 4159 4666 
L 4159 0 
L 3309 0 
L 1241 3903 
L 1241 0 
L 628 0 
L 628 4666 
z
" transform="scale(0.015625)"/>
      <path id="DejaVuSans-25" d="M 1259 2228 
L 1259 519 
L 2272 519 
Q 2781 519 3026 730 
Q 3272 941 3272 1375 
Q 3272 1813 3026 2020 
Q 2781 2228 2272 2228 
L 1259 2228 
z
M 1259 4147 
L 1259 2741 
L 2194 2741 
Q 2656 2741 2882 2914 
Q 3109 3088 3109 3444 
Q 3109 3797 2882 3972 
Q 2656 4147 2194 4147 
L 1259 4147 
z
M 628 4666 
L 2241 4666 
Q 2963 4666 3353 4366 
Q 3744 4066 3744 3513 
Q 3744 3084 3544 2831 
Q 3344 2578 2956 2516 
Q 3422 2416 3680 2098 
Q 3938 1781 3938 1306 
Q 3938 681 3513 340 
Q 3088 0 2303 0 
L 628 0 
L 628 4666 
z
" transform="scale(0.015625)"/>
      <path id="DejaVuSans-2f" d="M 628 4666 
L 1259 4666 
L 1259 531 
L 3531 531 
L 3531 0 
L 628 0 
L 628 4666 
z
" transform="scale(0.015625)"/>
     </defs>
     <use xlink:href="#DejaVuSans-28"/>
     <use xlink:href="#DejaVuSans-31" transform="translate(63.1875 0)"/>
     <use xlink:href="#DejaVuSans-24" transform="translate(138 0)"/>
     <use xlink:href="#DejaVuSans-25" transform="translate(206.40625 0)"/>
     <use xlink:href="#DejaVuSans-2f" transform="translate(275.015625 0)"/>
     <use xlink:href="#DejaVuSans-28" transform="translate(330.734375 0)"/>
    </g>
   </g>
   <g id="text_27">
    <!-- GATE -->
    <g transform="translate(67.504937 243.891052) scale(0.1 -0.1)">
     <use xlink:href="#DejaVuSans-2a"/>
     <use xlink:href="#DejaVuSans-24" transform="translate(77.484375 0)"/>
     <use xlink:href="#DejaVuSans-37" transform="translate(138.125 0)"/>
     <use xlink:href="#DejaVuSans-28" transform="translate(199.203125 0)"/>
    </g>
   </g>
   <g id="text_28">
    <!-- TRIG -->
    <g transform="translate(69.989312 287.829732) scale(0.1 -0.1)">
     <use xlink:href="#DejaVuSans-37"/>
     <use xlink:href="#DejaVuSans-35" transform="translate(61.078125 0)"/>
     <use xlink:href="#DejaVuSans-2c" transform="translate(130.5625 0)"/>
     <use xlink:href="#DejaVuSans-2a" transform="translate(160.0625 0)"/>
    </g>
   </g>
   <g id="text_29">
    <!-- ACTIVE -->
    <g transform="translate(57.878375 340.556147) scale(0.1 -0.1)">
     <defs>
      <path id="DejaVuSans-26" d="M 4122 4306 
L 4122 3641 
Q 3803 3938 3442 4084 
Q 3081 4231 2675 4231 
Q 1875 4231 1450 3742 
Q 1025 3253 1025 2328 
Q 1025 1406 1450 917 
Q 1875 428 2675 428 
Q 3081 428 3442 575 
Q 3803 722 4122 1019 
L 4122 359 
Q 3791 134 3420 21 
Q 3050 -91 2638 -91 
Q 1578 -91 968 557 
Q 359 1206 359 2328 
Q 359 3453 968 4101 
Q 1578 4750 2638 4750 
Q 3056 4750 3426 4639 
Q 3797 4528 4122 4306 
z
" transform="scale(0.015625)"/>
      <path id="DejaVuSans-39" d="M 1831 0 
L 50 4666 
L 709 4666 
L 2188 738 
L 3669 4666 
L 4325 4666 
L 2547 0 
L 1831 0 
z
" transform="scale(0.015625)"/>
     </defs>
     <use xlink:href="#DejaVuSans-24"/>
     <use xlink:href="#DejaVuSans-26" transform="translate(66.65625 0)"/>
     <use xlink:href="#DejaVuSans-37" transform="translate(136.484375 0)"/>
     <use xlink:href="#DejaVuSans-2c" transform="translate(197.5625 0)"/>
     <use xlink:href="#DejaVuSans-39" transform="translate(227.0625 0)"/>
     <use xlink:href="#DejaVuSans-28" transform="translate(295.46875 0)"/>
    </g>
   </g>
   <g id="text_30">
    <!-- Row1 -->
    <g style="fill: #ffffff" transform="translate(305.856 377.464637) scale(0.1 -0.1)">
     <defs>
      <path id="DejaVuSans-5a" d="M 269 3500 
L 844 3500 
L 1563 769 
L 2278 3500 
L 2956 3500 
L 3675 769 
L 4391 3500 
L 4966 3500 
L 4050 0 
L 3372 0 
L 2619 2869 
L 1863 0 
L 1184 0 
L 269 3500 
z
" transform="scale(0.015625)"/>
     </defs>
     <use xlink:href="#DejaVuSans-35"/>
     <use xlink:href="#DejaVuSans-52" transform="translate(65 0)"/>
     <use xlink:href="#DejaVuSans-5a" transform="translate(126.1875 0)"/>
     <use xlink:href="#DejaVuSans-14" transform="translate(207.96875 0)"/>
    </g>
   </g>
   <g id="text_31">
    <!-- Row2 -->
    <g style="fill: #ffffff" transform="translate(381.456 377.464637) scale(0.1 -0.1)">
     <use xlink:href="#DejaVuSans-35"/>
     <use xlink:href="#DejaVuSans-52" transform="translate(65 0)"/>
     <use xlink:href="#DejaVuSans-5a" transform="translate(126.1875 0)"/>
     <use xlink:href="#DejaVuSans-15" transform="translate(207.96875 0)"/>
    </g>
   </g>
   <g id="text_32">
    <!-- Row3 -->
    <g style="fill: #ffffff" transform="translate(435.456 377.464637) scale(0.1 -0.1)">
     <use xlink:href="#DejaVuSans-35"/>
     <use xlink:href="#DejaVuSans-52" transform="translate(65 0)"/>
     <use xlink:href="#DejaVuSans-5a" transform="translate(126.1875 0)"/>
     <use xlink:href="#DejaVuSans-16" transform="translate(207.96875 0)"/>
    </g>
   </g>
   <g id="text_33">
    <!-- Row4 -->
    <g style="fill: #ffffff" transform="translate(457.056 377.464637) scale(0.1 -0.1)">
     <use xlink:href="#DejaVuSans-35"/>
     <use xlink:href="#DejaVuSans-52" transform="translate(65 0)"/>
     <use xlink:href="#DejaVuSans-5a" transform="translate(126.1875 0)"/>
     <use xlink:href="#DejaVuSans-17" transform="translate(207.96875 0)"/>
    </g>
   </g>
   <g id="text_34">
    <!-- DATA -->
    <g transform="translate(67.983063 377.464637) scale(0.1 -0.1)">
     <use xlink:href="#DejaVuSans-27"/>
     <use xlink:href="#DejaVuSans-24" transform="translate(75.25 0)"/>
     <use xlink:href="#DejaVuSans-37" transform="translate(135.890625 0)"/>
     <use xlink:href="#DejaVuSans-24" transform="translate(189.203125 0)"/>
    </g>
   </g>
   <g id="text_35">
    <!-- Gap-less sum -->
    <g transform="translate(272.610938 15.6) scale(0.12 -0.12)">
     <defs>
      <path id="DejaVuSans-10" d="M 313 2009 
L 1997 2009 
L 1997 1497 
L 313 1497 
L 313 2009 
z
" transform="scale(0.015625)"/>
      <path id="DejaVuSans-58" d="M 544 1381 
L 544 3500 
L 1119 3500 
L 1119 1403 
Q 1119 906 1312 657 
Q 1506 409 1894 409 
Q 2359 409 2629 706 
Q 2900 1003 2900 1516 
L 2900 3500 
L 3475 3500 
L 3475 0 
L 2900 0 
L 2900 538 
Q 2691 219 2414 64 
Q 2138 -91 1772 -91 
Q 1169 -91 856 284 
Q 544 659 544 1381 
z
M 1991 3584 
L 1991 3584 
z
" transform="scale(0.015625)"/>
     </defs>
     <use xlink:href="#DejaVuSans-2a"/>
     <use xlink:href="#DejaVuSans-44" transform="translate(77.484375 0)"/>
     <use xlink:href="#DejaVuSans-53" transform="translate(138.765625 0)"/>
     <use xlink:href="#DejaVuSans-10" transform="translate(202.25 0)"/>
     <use xlink:href="#DejaVuSans-4f" transform="translate(238.328125 0)"/>
     <use xlink:href="#DejaVuSans-48" transform="translate(266.109375 0)"/>
     <use xlink:href="#DejaVuSans-56" transform="translate(327.640625 0)"/>
     <use xlink:href="#DejaVuSans-56" transform="translate(379.734375 0)"/>
     <use xlink:href="#DejaVuSans-3" transform="translate(431.828125 0)"/>
     <use xlink:href="#DejaVuSans-56" transform="translate(463.609375 0)"/>
     <use xlink:href="#DejaVuSans-58" transform="translate(515.703125 0)"/>
     <use xlink:href="#DejaVuSans-50" transform="translate(579.078125 0)"/>
    </g>
   </g>
  </g>
 </g>
 <defs>
  <clipPath id="pdee0218c33">
   <rect x="97.2" y="21.6" width="432" height="372.6"/>
  </clipPath>
 </defs>
</svg>
