<?xml version="1.0" encoding="utf-8" standalone="no"?>
<!DOCTYPE svg PUBLIC "-//W3C//DTD SVG 1.1//EN"
  "http://www.w3.org/Graphics/SVG/1.1/DTD/svg11.dtd">
<svg xmlns:xlink="http://www.w3.org/1999/xlink" width="540pt" height="401.4pt" viewBox="0 0 540 401.4" xmlns="http://www.w3.org/2000/svg" version="1.1">
 <metadata>
  <rdf:RDF xmlns:dc="http://purl.org/dc/elements/1.1/" xmlns:cc="http://creativecommons.org/ns#" xmlns:rdf="http://www.w3.org/1999/02/22-rdf-syntax-ns#">
   <cc:Work>
    <dc:type rdf:resource="http://purl.org/dc/dcmitype/StillImage"/>
    <dc:date>2026-06-18T10:33:26.968016</dc:date>
    <dc:format>image/svg+xml</dc:format>
    <dc:creator>
     <cc:Agent>
      <dc:title>Matplotlib v3.11.0, https://matplotlib.org/</dc:title>
     </cc:Agent>
    </dc:creator>
   </cc:Work>
  </rdf:RDF>
 </metadata>
 <defs>
  <style type="text/css">*{stroke-linejoin: round; stroke-linecap: butt}</style>
 </defs>
 <g id="figure_1">
  <g id="patch_1">
   <path d="M 0 401.4 
L 540 401.4 
L 540 0 
L 0 0 
L 0 401.4 
z
" style="fill: none"/>
  </g>
  <g id="axes_1">
   <g id="patch_2">
    <path d="M 97.2 365.4 
L 529.2 365.4 
L 529.2 21.6 
L 97.2 21.6 
L 97.2 365.4 
z
" style="fill: none"/>
   </g>
   <g id="FillBetweenPolyCollection_1">
    <defs>
     <path id="m2564824120" d="M 97.2 -349.980612 
L 97.2 -371.029592 
L 104.544 -371.029592 
L 111.456 -349.980612 
L 529.2 -349.980612 
L 529.2 -371.029592 
L 529.2 -371.029592 
L 111.456 -371.029592 
L 104.544 -349.980612 
L 97.2 -349.980612 
z
" style="stroke: #1f77b4"/>
    </defs>
    <g clip-path="url(#p5aebd6a0d5)">
     <use xlink:href="#m2564824120" x="0" y="401.4" style="fill: #1f77b4; stroke: #1f77b4"/>
    </g>
   </g>
   <g id="FillBetweenPolyCollection_2">
    <defs>
     <path id="m01a739a6ba" d="M 97.2 -320.161224 
L 97.2 -341.210204 
L 104.544 -341.210204 
L 111.456 -320.161224 
L 529.2 -320.161224 
L 529.2 -341.210204 
L 529.2 -341.210204 
L 111.456 -341.210204 
L 104.544 -320.161224 
L 97.2 -320.161224 
z
" style="stroke: #ff7f0e"/>
    </defs>
    <g clip-path="url(#p5aebd6a0d5)">
     <use xlink:href="#m01a739a6ba" x="0" y="401.4" style="fill: #ff7f0e; stroke: #ff7f0e"/>
    </g>
   </g>
   <g id="FillBetweenPolyCollection_3">
    <defs>
     <path id="ma6393d96ae" d="M 97.2 -290.341837 
L 97.2 -311.390816 
L 104.544 -311.390816 
L 111.456 -290.341837 
L 529.2 -290.341837 
L 529.2 -311.390816 
L 529.2 -311.390816 
L 111.456 -311.390816 
L 104.544 -290.341837 
L 97.2 -290.341837 
z
" style="stroke: #2ca02c"/>
    </defs>
    <g clip-path="url(#p5aebd6a0d5)">
     <use xlink:href="#ma6393d96ae" x="0" y="401.4" style="fill: #2ca02c; stroke: #2ca02c"/>
    </g>
   </g>
   <g id="FillBetweenPolyCollection_4">
    <defs>
     <path id="mf52884adf7" d="M 97.2 -260.522449 
L 97.2 -281.571429 
L 104.544 -281.571429 
L 111.456 -260.522449 
L 529.2 -260.522449 
L 529.2 -281.571429 
L 529.2 -281.571429 
L 111.456 -281.571429 
L 104.544 -260.522449 
L 97.2 -260.522449 
z
" style="stroke: #d62728"/>
    </defs>
    <g clip-path="url(#p5aebd6a0d5)">
     <use xlink:href="#mf52884adf7" x="0" y="401.4" style="fill: #d62728; stroke: #d62728"/>
    </g>
   </g>
   <g id="FillBetweenPolyCollection_5">
    <defs>
     <path id="maf8d4f22d4" d="M 97.2 -230.703061 
L 97.2 -251.752041 
L 115.344 -251.752041 
L 122.256 -230.703061 
L 169.344 -230.703061 
L 176.256 -251.752041 
L 190.944 -251.752041 
L 197.856 -230.703061 
L 212.544 -230.703061 
L 219.456 -251.752041 
L 234.144 -251.752041 
L 241.056 -230.703061 
L 255.744 -230.703061 
L 262.656 -251.752041 
L 288.144 -251.752041 
L 295.056 -230.703061 
L 320.544 -230.703061 
L 327.456 -251.752041 
L 352.944 -251.752041 
L 359.856 -230.703061 
L 385.344 -230.703061 
L 392.256 -251.752041 
L 428.544 -251.752041 
L 435.456 -230.703061 
L 471.744 -230.703061 
L 478.656 -251.752041 
L 529.2 -251.752041 
L 529.2 -230.703061 
L 529.2 -230.703061 
L 478.656 -230.703061 
L 471.744 -251.752041 
L 435.456 -251.752041 
L 428.544 -230.703061 
L 392.256 -230.703061 
L 385.344 -251.752041 
L 359.856 -251.752041 
L 352.944 -230.703061 
L 327.456 -230.703061 
L 320.544 -251.752041 
L 295.056 -251.752041 
L 288.144 -230.703061 
L 262.656 -230.703061 
L 255.744 -251.752041 
L 241.056 -251.752041 
L 234.144 -230.703061 
L 219.456 -230.703061 
L 212.544 -251.752041 
L 197.856 -251.752041 
L 190.944 -230.703061 
L 176.256 -230.703061 
L 169.344 -251.752041 
L 122.256 -251.752041 
L 115.344 -230.703061 
L 97.2 -230.703061 
z
" style="stroke: #9467bd"/>
    </defs>
    <g clip-path="url(#p5aebd6a0d5)">
     <use xlink:href="#maf8d4f22d4" x="0" y="401.4" style="fill: #9467bd; stroke: #9467bd"/>
    </g>
   </g>
   <g id="FillBetweenPolyCollection_6">
    <defs>
     <path id="m6c3b4d66a7" d="M 97.2 -200.883673 
L 97.2 -221.932653 
L 126.144 -221.932653 
L 133.056 -200.883673 
L 529.2 -200.883673 
L 529.2 -221.932653 
L 529.2 -221.932653 
L 133.056 -221.932653 
L 126.144 -200.883673 
L 97.2 -200.883673 
z
" style="stroke: #8c564b"/>
    </defs>
    <g clip-path="url(#p5aebd6a0d5)">
     <use xlink:href="#m6c3b4d66a7" x="0" y="401.4" style="fill: #8c564b; stroke: #8c564b"/>
    </g>
   </g>
   <g id="FillBetweenPolyCollection_7">
    <defs>
     <path id="m992e8c0972" d="M 97.2 -74.589796 
L 97.2 -95.638776 
L 136.944 -95.638776 
L 143.856 -74.589796 
L 147.744 -74.589796 
L 154.656 -95.638776 
L 201.744 -95.638776 
L 208.656 -74.589796 
L 244.944 -74.589796 
L 251.856 -95.638776 
L 266.544 -95.638776 
L 273.456 -74.589796 
L 331.344 -74.589796 
L 338.256 -95.638776 
L 363.744 -95.638776 
L 370.656 -74.589796 
L 439.344 -74.589796 
L 446.256 -95.638776 
L 529.2 -95.638776 
L 529.2 -74.589796 
L 529.2 -74.589796 
L 446.256 -74.589796 
L 439.344 -95.638776 
L 370.656 -95.638776 
L 363.744 -74.589796 
L 338.256 -74.589796 
L 331.344 -95.638776 
L 273.456 -95.638776 
L 266.544 -74.589796 
L 251.856 -74.589796 
L 244.944 -95.638776 
L 208.656 -95.638776 
L 201.744 -74.589796 
L 154.656 -74.589796 
L 147.744 -95.638776 
L 143.856 -95.638776 
L 136.944 -74.589796 
L 97.2 -74.589796 
z
" style="stroke: #bcbd22"/>
    </defs>
    <g clip-path="url(#p5aebd6a0d5)">
     <use xlink:href="#m992e8c0972" x="0" y="401.4" style="fill: #bcbd22; stroke: #bcbd22"/>
    </g>
   </g>
   <g id="FillBetweenPolyCollection_8">
    <defs>
     <path id="m2297975a60" d="M 97.2 -44.770408 
L 97.2 -65.819388 
L 201.744 -65.819388 
L 208.656 -44.770408 
L 266.544 -44.770408 
L 273.456 -65.819388 
L 363.744 -65.819388 
L 370.656 -44.770408 
L 529.2 -44.770408 
L 529.2 -65.819388 
L 529.2 -65.819388 
L 370.656 -65.819388 
L 363.744 -44.770408 
L 273.456 -44.770408 
L 266.544 -65.819388 
L 208.656 -65.819388 
L 201.744 -44.770408 
L 97.2 -44.770408 
z
" style="stroke: #17becf"/>
    </defs>
    <g clip-path="url(#p5aebd6a0d5)">
     <use xlink:href="#m2297975a60" x="0" y="401.4" style="fill: #17becf; stroke: #17becf"/>
    </g>
   </g>
   <g id="matplotlib.axis_1">
    <g id="xtick_1">
     <g id="line2d_1">
      <path d="M 97.2 365.4 
L 97.2 21.6 
" clip-path="url(#p5aebd6a0d5)" style="fill: none; stroke: #b0b0b0; stroke-width: 0.8; stroke-linecap: square"/>
     </g>
     <g id="line2d_2">
      <defs>
       <path id="ma802525d11" d="M 0 0 
L 0 3.5 
" style="stroke: #000000; stroke-width: 0.8"/>
      </defs>
      <g>
       <use xlink:href="#ma802525d11" x="97.2" y="365.4" style="stroke: #000000; stroke-width: 0.8"/>
      </g>
     </g>
     <g id="text_1">
      <!-- 0 -->
      <g transform="translate(94.01875 379.997656) scale(0.1 -0.1)">
       <defs>
        <path id="DejaVuSans-13" d="M 2034 4250 
Q 1547 4250 1301 3770 
Q 1056 3291 1056 2328 
Q 1056 1369 1301 889 
Q 1547 409 2034 409 
Q 2525 409 2770 889 
Q 3016 1369 3016 2328 
Q 3016 3291 2770 3770 
Q 2525 4250 2034 4250 
z
M 2034 4750 
Q 2819 4750 3233 4129 
Q 3647 3509 3647 2328 
Q 3647 1150 3233 529 
Q 2819 -91 2034 -91 
Q 1250 -91 836 529 
Q 422 1150 422 2328 
Q 422 3509 836 4129 
Q 1250 4750 2034 4750 
z
" transform="scale(0.015625)"/>
       </defs>
       <use xlink:href="#DejaVuSans-13"/>
      </g>
     </g>
    </g>
    <g id="xtick_2">
     <g id="line2d_3">
      <path d="M 151.2 365.4 
L 151.2 21.6 
" clip-path="url(#p5aebd6a0d5)" style="fill: none; stroke: #b0b0b0; stroke-width: 0.8; stroke-linecap: square"/>
     </g>
     <g id="line2d_4">
      <g>
       <use xlink:href="#ma802525d11" x="151.2" y="365.4" style="stroke: #000000; stroke-width: 0.8"/>
      </g>
     </g>
     <g id="text_2">
      <!-- 5 -->
      <g transform="translate(148.01875 379.997656) scale(0.1 -0.1)">
       <defs>
        <path id="DejaVuSans-18" d="M 691 4666 
L 3169 4666 
L 3169 4134 
L 1269 4134 
L 1269 2991 
Q 1406 3038 1543 3061 
Q 1681 3084 1819 3084 
Q 2600 3084 3056 2656 
Q 3513 2228 3513 1497 
Q 3513 744 3044 326 
Q 2575 -91 1722 -91 
Q 1428 -91 1123 -41 
Q 819 9 494 109 
L 494 744 
Q 775 591 1075 516 
Q 1375 441 1709 441 
Q 2250 441 2565 725 
Q 2881 1009 2881 1497 
Q 2881 1984 2565 2268 
Q 2250 2553 1709 2553 
Q 1456 2553 1204 2497 
Q 953 2441 691 2322 
L 691 4666 
z
" transform="scale(0.015625)"/>
       </defs>
       <use xlink:href="#DejaVuSans-18"/>
      </g>
     </g>
    </g>
    <g id="xtick_3">
     <g id="line2d_5">
      <path d="M 205.2 365.4 
L 205.2 21.6 
" clip-path="url(#p5aebd6a0d5)" style="fill: none; stroke: #b0b0b0; stroke-width: 0.8; stroke-linecap: square"/>
     </g>
     <g id="line2d_6">
      <g>
       <use xlink:href="#ma802525d11" x="205.2" y="365.4" style="stroke: #000000; stroke-width: 0.8"/>
      </g>
     </g>
     <g id="text_3">
      <!-- 10 -->
      <g transform="translate(198.8375 379.997656) scale(0.1 -0.1)">
       <defs>
        <path id="DejaVuSans-14" d="M 794 531 
L 1825 531 
L 1825 4091 
L 703 3866 
L 703 4441 
L 1819 4666 
L 2450 4666 
L 2450 531 
L 3481 531 
L 3481 0 
L 794 0 
L 794 531 
z
" transform="scale(0.015625)"/>
       </defs>
       <use xlink:href="#DejaVuSans-14"/>
       <use xlink:href="#DejaVuSans-13" transform="translate(63.625 0)"/>
      </g>
     </g>
    </g>
    <g id="xtick_4">
     <g id="line2d_7">
      <path d="M 259.2 365.4 
L 259.2 21.6 
" clip-path="url(#p5aebd6a0d5)" style="fill: none; stroke: #b0b0b0; stroke-width: 0.8; stroke-linecap: square"/>
     </g>
     <g id="line2d_8">
      <g>
       <use xlink:href="#ma802525d11" x="259.2" y="365.4" style="stroke: #000000; stroke-width: 0.8"/>
      </g>
     </g>
     <g id="text_4">
      <!-- 15 -->
      <g transform="translate(252.8375 379.997656) scale(0.1 -0.1)">
       <use xlink:href="#DejaVuSans-14"/>
       <use xlink:href="#DejaVuSans-18" transform="translate(63.625 0)"/>
      </g>
     </g>
    </g>
    <g id="xtick_5">
     <g id="line2d_9">
      <path d="M 313.2 365.4 
L 313.2 21.6 
" clip-path="url(#p5aebd6a0d5)" style="fill: none; stroke: #b0b0b0; stroke-width: 0.8; stroke-linecap: square"/>
     </g>
     <g id="line2d_10">
      <g>
       <use xlink:href="#ma802525d11" x="313.2" y="365.4" style="stroke: #000000; stroke-width: 0.8"/>
      </g>
     </g>
     <g id="text_5">
      <!-- 20 -->
      <g transform="translate(306.8375 379.997656) scale(0.1 -0.1)">
       <defs>
        <path id="DejaVuSans-15" d="M 1228 531 
L 3431 531 
L 3431 0 
L 469 0 
L 469 531 
Q 828 903 1448 1529 
Q 2069 2156 2228 2338 
Q 2531 2678 2651 2914 
Q 2772 3150 2772 3378 
Q 2772 3750 2511 3984 
Q 2250 4219 1831 4219 
Q 1534 4219 1204 4116 
Q 875 4013 500 3803 
L 500 4441 
Q 881 4594 1212 4672 
Q 1544 4750 1819 4750 
Q 2544 4750 2975 4387 
Q 3406 4025 3406 3419 
Q 3406 3131 3298 2873 
Q 3191 2616 2906 2266 
Q 2828 2175 2409 1742 
Q 1991 1309 1228 531 
z
" transform="scale(0.015625)"/>
       </defs>
       <use xlink:href="#DejaVuSans-15"/>
       <use xlink:href="#DejaVuSans-13" transform="translate(63.625 0)"/>
      </g>
     </g>
    </g>
    <g id="xtick_6">
     <g id="line2d_11">
      <path d="M 367.2 365.4 
L 367.2 21.6 
" clip-path="url(#p5aebd6a0d5)" style="fill: none; stroke: #b0b0b0; stroke-width: 0.8; stroke-linecap: square"/>
     </g>
     <g id="line2d_12">
      <g>
       <use xlink:href="#ma802525d11" x="367.2" y="365.4" style="stroke: #000000; stroke-width: 0.8"/>
      </g>
     </g>
     <g id="text_6">
      <!-- 25 -->
      <g transform="translate(360.8375 379.997656) scale(0.1 -0.1)">
       <use xlink:href="#DejaVuSans-15"/>
       <use xlink:href="#DejaVuSans-18" transform="translate(63.625 0)"/>
      </g>
     </g>
    </g>
    <g id="xtick_7">
     <g id="line2d_13">
      <path d="M 421.2 365.4 
L 421.2 21.6 
" clip-path="url(#p5aebd6a0d5)" style="fill: none; stroke: #b0b0b0; stroke-width: 0.8; stroke-linecap: square"/>
     </g>
     <g id="line2d_14">
      <g>
       <use xlink:href="#ma802525d11" x="421.2" y="365.4" style="stroke: #000000; stroke-width: 0.8"/>
      </g>
     </g>
     <g id="text_7">
      <!-- 30 -->
      <g transform="translate(414.8375 379.997656) scale(0.1 -0.1)">
       <defs>
        <path id="DejaVuSans-16" d="M 2597 2516 
Q 3050 2419 3304 2112 
Q 3559 1806 3559 1356 
Q 3559 666 3084 287 
Q 2609 -91 1734 -91 
Q 1441 -91 1130 -33 
Q 819 25 488 141 
L 488 750 
Q 750 597 1062 519 
Q 1375 441 1716 441 
Q 2309 441 2620 675 
Q 2931 909 2931 1356 
Q 2931 1769 2642 2001 
Q 2353 2234 1838 2234 
L 1294 2234 
L 1294 2753 
L 1863 2753 
Q 2328 2753 2575 2939 
Q 2822 3125 2822 3475 
Q 2822 3834 2567 4026 
Q 2313 4219 1838 4219 
Q 1578 4219 1281 4162 
Q 984 4106 628 3988 
L 628 4550 
Q 988 4650 1302 4700 
Q 1616 4750 1894 4750 
Q 2613 4750 3031 4423 
Q 3450 4097 3450 3541 
Q 3450 3153 3228 2886 
Q 3006 2619 2597 2516 
z
" transform="scale(0.015625)"/>
       </defs>
       <use xlink:href="#DejaVuSans-16"/>
       <use xlink:href="#DejaVuSans-13" transform="translate(63.625 0)"/>
      </g>
     </g>
    </g>
    <g id="xtick_8">
     <g id="line2d_15">
      <path d="M 475.2 365.4 
L 475.2 21.6 
" clip-path="url(#p5aebd6a0d5)" style="fill: none; stroke: #b0b0b0; stroke-width: 0.8; stroke-linecap: square"/>
     </g>
     <g id="line2d_16">
      <g>
       <use xlink:href="#ma802525d11" x="475.2" y="365.4" style="stroke: #000000; stroke-width: 0.8"/>
      </g>
     </g>
     <g id="text_8">
      <!-- 35 -->
      <g transform="translate(468.8375 379.997656) scale(0.1 -0.1)">
       <use xlink:href="#DejaVuSans-16"/>
       <use xlink:href="#DejaVuSans-18" transform="translate(63.625 0)"/>
      </g>
     </g>
    </g>
    <g id="xtick_9">
     <g id="line2d_17">
      <path d="M 529.2 365.4 
L 529.2 21.6 
" clip-path="url(#p5aebd6a0d5)" style="fill: none; stroke: #b0b0b0; stroke-width: 0.8; stroke-linecap: square"/>
     </g>
     <g id="line2d_18">
      <g>
       <use xlink:href="#ma802525d11" x="529.2" y="365.4" style="stroke: #000000; stroke-width: 0.8"/>
      </g>
     </g>
     <g id="text_9">
      <!-- 40 -->
      <g transform="translate(522.8375 379.997656) scale(0.1 -0.1)">
       <defs>
        <path id="DejaVuSans-17" d="M 2419 4116 
L 825 1625 
L 2419 1625 
L 2419 4116 
z
M 2253 4666 
L 3047 4666 
L 3047 1625 
L 3713 1625 
L 3713 1100 
L 3047 1100 
L 3047 0 
L 2419 0 
L 2419 1100 
L 313 1100 
L 313 1709 
L 2253 4666 
z
" transform="scale(0.015625)"/>
       </defs>
       <use xlink:href="#DejaVuSans-17"/>
       <use xlink:href="#DejaVuSans-13" transform="translate(63.625 0)"/>
      </g>
     </g>
    </g>
    <g id="text_10">
     <!-- Timestamp (125MHz FPGA clock ticks) -->
     <g transform="translate(217.164844 393.998437) scale(0.1 -0.1)">
      <defs>
       <path id="DejaVuSans-37" d="M -19 4666 
L 3928 4666 
L 3928 4134 
L 2272 4134 
L 2272 0 
L 1638 0 
L 1638 4134 
L -19 4134 
L -19 4666 
z
" transform="scale(0.015625)"/>
       <path id="DejaVuSans-4c" d="M 603 3500 
L 1178 3500 
L 1178 0 
L 603 0 
L 603 3500 
z
M 603 4863 
L 1178 4863 
L 1178 4134 
L 603 4134 
L 603 4863 
z
" transform="scale(0.015625)"/>
       <path id="DejaVuSans-50" d="M 3328 2828 
Q 3544 3216 3844 3400 
Q 4144 3584 4550 3584 
Q 5097 3584 5394 3201 
Q 5691 2819 5691 2113 
L 5691 0 
L 5113 0 
L 5113 2094 
Q 5113 2597 4934 2840 
Q 4756 3084 4391 3084 
Q 3944 3084 3684 2787 
Q 3425 2491 3425 1978 
L 3425 0 
L 2847 0 
L 2847 2094 
Q 2847 2600 2669 2842 
Q 2491 3084 2119 3084 
Q 1678 3084 1418 2786 
Q 1159 2488 1159 1978 
L 1159 0 
L 581 0 
L 581 3500 
L 1159 3500 
L 1159 2956 
Q 1356 3278 1631 3431 
Q 1906 3584 2284 3584 
Q 2666 3584 2933 3390 
Q 3200 3197 3328 2828 
z
" transform="scale(0.015625)"/>
       <path id="DejaVuSans-48" d="M 3597 1894 
L 3597 1613 
L 953 1613 
Q 991 1019 1311 708 
Q 1631 397 2203 397 
Q 2534 397 2845 478 
Q 3156 559 3463 722 
L 3463 178 
Q 3153 47 2828 -22 
Q 2503 -91 2169 -91 
Q 1331 -91 842 396 
Q 353 884 353 1716 
Q 353 2575 817 3079 
Q 1281 3584 2069 3584 
Q 2775 3584 3186 3129 
Q 3597 2675 3597 1894 
z
M 3022 2063 
Q 3016 2534 2758 2815 
Q 2500 3097 2075 3097 
Q 1594 3097 1305 2825 
Q 1016 2553 972 2059 
L 3022 2063 
z
" transform="scale(0.015625)"/>
       <path id="DejaVuSans-56" d="M 2834 3397 
L 2834 2853 
Q 2591 2978 2328 3040 
Q 2066 3103 1784 3103 
Q 1356 3103 1142 2972 
Q 928 2841 928 2578 
Q 928 2378 1081 2264 
Q 1234 2150 1697 2047 
L 1894 2003 
Q 2506 1872 2764 1633 
Q 3022 1394 3022 966 
Q 3022 478 2636 193 
Q 2250 -91 1575 -91 
Q 1294 -91 989 -36 
Q 684 19 347 128 
L 347 722 
Q 666 556 975 473 
Q 1284 391 1588 391 
Q 1994 391 2212 530 
Q 2431 669 2431 922 
Q 2431 1156 2273 1281 
Q 2116 1406 1581 1522 
L 1381 1569 
Q 847 1681 609 1914 
Q 372 2147 372 2553 
Q 372 3047 722 3315 
Q 1072 3584 1716 3584 
Q 2034 3584 2315 3537 
Q 2597 3491 2834 3397 
z
" transform="scale(0.015625)"/>
       <path id="DejaVuSans-57" d="M 1172 4494 
L 1172 3500 
L 2356 3500 
L 2356 3053 
L 1172 3053 
L 1172 1153 
Q 1172 725 1289 603 
Q 1406 481 1766 481 
L 2356 481 
L 2356 0 
L 1766 0 
Q 1100 0 847 248 
Q 594 497 594 1153 
L 594 3053 
L 172 3053 
L 172 3500 
L 594 3500 
L 594 4494 
L 1172 4494 
z
" transform="scale(0.015625)"/>
       <path id="DejaVuSans-44" d="M 2194 1759 
Q 1497 1759 1228 1600 
Q 959 1441 959 1056 
Q 959 750 1161 570 
Q 1363 391 1709 391 
Q 2188 391 2477 730 
Q 2766 1069 2766 1631 
L 2766 1759 
L 2194 1759 
z
M 3341 1997 
L 3341 0 
L 2766 0 
L 2766 531 
Q 2569 213 2275 61 
Q 1981 -91 1556 -91 
Q 1019 -91 701 211 
Q 384 513 384 1019 
Q 384 1609 779 1909 
Q 1175 2209 1959 2209 
L 2766 2209 
L 2766 2266 
Q 2766 2663 2505 2880 
Q 2244 3097 1772 3097 
Q 1472 3097 1187 3025 
Q 903 2953 641 2809 
L 641 3341 
Q 956 3463 1253 3523 
Q 1550 3584 1831 3584 
Q 2591 3584 2966 3190 
Q 3341 2797 3341 1997 
z
" transform="scale(0.015625)"/>
       <path id="DejaVuSans-53" d="M 1159 525 
L 1159 -1331 
L 581 -1331 
L 581 3500 
L 1159 3500 
L 1159 2969 
Q 1341 3281 1617 3432 
Q 1894 3584 2278 3584 
Q 2916 3584 3314 3078 
Q 3713 2572 3713 1747 
Q 3713 922 3314 415 
Q 2916 -91 2278 -91 
Q 1894 -91 1617 61 
Q 1341 213 1159 525 
z
M 3116 1747 
Q 3116 2381 2855 2742 
Q 2594 3103 2138 3103 
Q 1681 3103 1420 2742 
Q 1159 2381 1159 1747 
Q 1159 1113 1420 752 
Q 1681 391 2138 391 
Q 2594 391 2855 752 
Q 3116 1113 3116 1747 
z
" transform="scale(0.015625)"/>
       <path id="DejaVuSans-3" transform="scale(0.015625)"/>
       <path id="DejaVuSans-b" d="M 1984 4856 
Q 1566 4138 1362 3434 
Q 1159 2731 1159 2009 
Q 1159 1288 1364 580 
Q 1569 -128 1984 -844 
L 1484 -844 
Q 1016 -109 783 600 
Q 550 1309 550 2009 
Q 550 2706 781 3412 
Q 1013 4119 1484 4856 
L 1984 4856 
z
" transform="scale(0.015625)"/>
       <path id="DejaVuSans-30" d="M 628 4666 
L 1569 4666 
L 2759 1491 
L 3956 4666 
L 4897 4666 
L 4897 0 
L 4281 0 
L 4281 4097 
L 3078 897 
L 2444 897 
L 1241 4097 
L 1241 0 
L 628 0 
L 628 4666 
z
" transform="scale(0.015625)"/>
       <path id="DejaVuSans-2b" d="M 628 4666 
L 1259 4666 
L 1259 2753 
L 3553 2753 
L 3553 4666 
L 4184 4666 
L 4184 0 
L 3553 0 
L 3553 2222 
L 1259 2222 
L 1259 0 
L 628 0 
L 628 4666 
z
" transform="scale(0.015625)"/>
       <path id="DejaVuSans-5d" d="M 353 3500 
L 3084 3500 
L 3084 2975 
L 922 459 
L 3084 459 
L 3084 0 
L 275 0 
L 275 525 
L 2438 3041 
L 353 3041 
L 353 3500 
z
" transform="scale(0.015625)"/>
       <path id="DejaVuSans-29" d="M 628 4666 
L 3309 4666 
L 3309 4134 
L 1259 4134 
L 1259 2759 
L 3109 2759 
L 3109 2228 
L 1259 2228 
L 1259 0 
L 628 0 
L 628 4666 
z
" transform="scale(0.015625)"/>
       <path id="DejaVuSans-33" d="M 1259 4147 
L 1259 2394 
L 2053 2394 
Q 2494 2394 2734 2622 
Q 2975 2850 2975 3272 
Q 2975 3691 2734 3919 
Q 2494 4147 2053 4147 
L 1259 4147 
z
M 628 4666 
L 2053 4666 
Q 2838 4666 3239 4311 
Q 3641 3956 3641 3272 
Q 3641 2581 3239 2228 
Q 2838 1875 2053 1875 
L 1259 1875 
L 1259 0 
L 628 0 
L 628 4666 
z
" transform="scale(0.015625)"/>
       <path id="DejaVuSans-2a" d="M 3809 666 
L 3809 1919 
L 2778 1919 
L 2778 2438 
L 4434 2438 
L 4434 434 
Q 4069 175 3628 42 
Q 3188 -91 2688 -91 
Q 1594 -91 976 548 
Q 359 1188 359 2328 
Q 359 3472 976 4111 
Q 1594 4750 2688 4750 
Q 3144 4750 3555 4637 
Q 3966 4525 4313 4306 
L 4313 3634 
Q 3963 3931 3569 4081 
Q 3175 4231 2741 4231 
Q 1884 4231 1454 3753 
Q 1025 3275 1025 2328 
Q 1025 1384 1454 906 
Q 1884 428 2741 428 
Q 3075 428 3337 486 
Q 3600 544 3809 666 
z
" transform="scale(0.015625)"/>
       <path id="DejaVuSans-24" d="M 2188 4044 
L 1331 1722 
L 3047 1722 
L 2188 4044 
z
M 1831 4666 
L 2547 4666 
L 4325 0 
L 3669 0 
L 3244 1197 
L 1141 1197 
L 716 0 
L 50 0 
L 1831 4666 
z
" transform="scale(0.015625)"/>
       <path id="DejaVuSans-46" d="M 3122 3366 
L 3122 2828 
Q 2878 2963 2633 3030 
Q 2388 3097 2138 3097 
Q 1578 3097 1268 2742 
Q 959 2388 959 1747 
Q 959 1106 1268 751 
Q 1578 397 2138 397 
Q 2388 397 2633 464 
Q 2878 531 3122 666 
L 3122 134 
Q 2881 22 2623 -34 
Q 2366 -91 2075 -91 
Q 1284 -91 818 406 
Q 353 903 353 1747 
Q 353 2603 823 3093 
Q 1294 3584 2113 3584 
Q 2378 3584 2631 3529 
Q 2884 3475 3122 3366 
z
" transform="scale(0.015625)"/>
       <path id="DejaVuSans-4f" d="M 603 4863 
L 1178 4863 
L 1178 0 
L 603 0 
L 603 4863 
z
" transform="scale(0.015625)"/>
       <path id="DejaVuSans-52" d="M 1959 3097 
Q 1497 3097 1228 2736 
Q 959 2375 959 1747 
Q 959 1119 1226 758 
Q 1494 397 1959 397 
Q 2419 397 2687 759 
Q 2956 1122 2956 1747 
Q 2956 2369 2687 2733 
Q 2419 3097 1959 3097 
z
M 1959 3584 
Q 2709 3584 3137 3096 
Q 3566 2609 3566 1747 
Q 3566 888 3137 398 
Q 2709 -91 1959 -91 
Q 1206 -91 779 398 
Q 353 888 353 1747 
Q 353 2609 779 3096 
Q 1206 3584 1959 3584 
z
" transform="scale(0.015625)"/>
       <path id="DejaVuSans-4e" d="M 581 4863 
L 1159 4863 
L 1159 1991 
L 2875 3500 
L 3609 3500 
L 1753 1863 
L 3688 0 
L 2938 0 
L 1159 1709 
L 1159 0 
L 581 0 
L 581 4863 
z
" transform="scale(0.015625)"/>
       <path id="DejaVuSans-c" d="M 513 4856 
L 1013 4856 
Q 1481 4119 1714 3412 
Q 1947 2706 1947 2009 
Q 1947 1309 1714 600 
Q 1481 -109 1013 -844 
L 513 -844 
Q 928 -128 1133 580 
Q 1338 1288 1338 2009 
Q 1338 2731 1133 3434 
Q 928 4138 513 4856 
z
" transform="scale(0.015625)"/>
      </defs>
      <use xlink:href="#DejaVuSans-37"/>
      <use xlink:href="#DejaVuSans-4c" transform="translate(58 0)"/>
      <use xlink:href="#DejaVuSans-50" transform="translate(85.78125 0)"/>
      <use xlink:href="#DejaVuSans-48" transform="translate(183.1875 0)"/>
      <use xlink:href="#DejaVuSans-56" transform="translate(244.71875 0)"/>
      <use xlink:href="#DejaVuSans-57" transform="translate(296.8125 0)"/>
      <use xlink:href="#DejaVuSans-44" transform="translate(336.015625 0)"/>
      <use xlink:href="#DejaVuSans-50" transform="translate(397.296875 0)"/>
      <use xlink:href="#DejaVuSans-53" transform="translate(494.703125 0)"/>
      <use xlink:href="#DejaVuSans-3" transform="translate(558.1875 0)"/>
      <use xlink:href="#DejaVuSans-b" transform="translate(589.96875 0)"/>
      <use xlink:href="#DejaVuSans-14" transform="translate(628.984375 0)"/>
      <use xlink:href="#DejaVuSans-15" transform="translate(692.609375 0)"/>
      <use xlink:href="#DejaVuSans-18" transform="translate(756.234375 0)"/>
      <use xlink:href="#DejaVuSans-30" transform="translate(819.859375 0)"/>
      <use xlink:href="#DejaVuSans-2b" transform="translate(906.140625 0)"/>
      <use xlink:href="#DejaVuSans-5d" transform="translate(981.34375 0)"/>
      <use xlink:href="#DejaVuSans-3" transform="translate(1033.828125 0)"/>
      <use xlink:href="#DejaVuSans-29" transform="translate(1065.609375 0)"/>
      <use xlink:href="#DejaVuSans-33" transform="translate(1123.125 0)"/>
      <use xlink:href="#DejaVuSans-2a" transform="translate(1183.421875 0)"/>
      <use xlink:href="#DejaVuSans-24" transform="translate(1260.90625 0)"/>
      <use xlink:href="#DejaVuSans-3" transform="translate(1329.3125 0)"/>
      <use xlink:href="#DejaVuSans-46" transform="translate(1361.09375 0)"/>
      <use xlink:href="#DejaVuSans-4f" transform="translate(1416.078125 0)"/>
      <use xlink:href="#DejaVuSans-52" transform="translate(1443.859375 0)"/>
      <use xlink:href="#DejaVuSans-46" transform="translate(1505.046875 0)"/>
      <use xlink:href="#DejaVuSans-4e" transform="translate(1560.03125 0)"/>
      <use xlink:href="#DejaVuSans-3" transform="translate(1617.9375 0)"/>
      <use xlink:href="#DejaVuSans-57" transform="translate(1649.71875 0)"/>
      <use xlink:href="#DejaVuSans-4c" transform="translate(1688.921875 0)"/>
      <use xlink:href="#DejaVuSans-46" transform="translate(1716.703125 0)"/>
      <use xlink:href="#DejaVuSans-4e" transform="translate(1771.6875 0)"/>
      <use xlink:href="#DejaVuSans-56" transform="translate(1829.59375 0)"/>
      <use xlink:href="#DejaVuSans-c" transform="translate(1881.6875 0)"/>
     </g>
    </g>
   </g>
   <g id="matplotlib.axis_2"/>
   <g id="line2d_19">
    <path d="M 97.2 30.370408 
L 104.544 30.370408 
L 111.456 51.419388 
L 529.2 51.419388 
" clip-path="url(#p5aebd6a0d5)" style="fill: none; stroke: #1f77b4; stroke-width: 1.5; stroke-linecap: square"/>
   </g>
   <g id="line2d_20">
    <path d="M 97.2 51.419388 
L 104.544 51.419388 
L 111.456 30.370408 
L 529.2 30.370408 
" clip-path="url(#p5aebd6a0d5)" style="fill: none; stroke: #1f77b4; stroke-width: 1.5; stroke-linecap: square"/>
   </g>
   <g id="line2d_21">
    <path d="M 97.2 60.189796 
L 104.544 60.189796 
L 111.456 81.238776 
L 529.2 81.238776 
" clip-path="url(#p5aebd6a0d5)" style="fill: none; stroke: #ff7f0e; stroke-width: 1.5; stroke-linecap: square"/>
   </g>
   <g id="line2d_22">
    <path d="M 97.2 81.238776 
L 104.544 81.238776 
L 111.456 60.189796 
L 529.2 60.189796 
" clip-path="url(#p5aebd6a0d5)" style="fill: none; stroke: #ff7f0e; stroke-width: 1.5; stroke-linecap: square"/>
   </g>
   <g id="line2d_23">
    <path d="M 97.2 90.009184 
L 104.544 90.009184 
L 111.456 111.058163 
L 529.2 111.058163 
" clip-path="url(#p5aebd6a0d5)" style="fill: none; stroke: #2ca02c; stroke-width: 1.5; stroke-linecap: square"/>
   </g>
   <g id="line2d_24">
    <path d="M 97.2 111.058163 
L 104.544 111.058163 
L 111.456 90.009184 
L 529.2 90.009184 
" clip-path="url(#p5aebd6a0d5)" style="fill: none; stroke: #2ca02c; stroke-width: 1.5; stroke-linecap: square"/>
   </g>
   <g id="line2d_25">
    <path d="M 97.2 119.828571 
L 104.544 119.828571 
L 111.456 140.877551 
L 529.2 140.877551 
" clip-path="url(#p5aebd6a0d5)" style="fill: none; stroke: #d62728; stroke-width: 1.5; stroke-linecap: square"/>
   </g>
   <g id="line2d_26">
    <path d="M 97.2 140.877551 
L 104.544 140.877551 
L 111.456 119.828571 
L 529.2 119.828571 
" clip-path="url(#p5aebd6a0d5)" style="fill: none; stroke: #d62728; stroke-width: 1.5; stroke-linecap: square"/>
   </g>
   <g id="line2d_27">
    <path d="M 97.2 149.647959 
L 115.344 149.647959 
L 122.256 170.696939 
L 169.344 170.696939 
L 176.256 149.647959 
L 190.944 149.647959 
L 197.856 170.696939 
L 212.544 170.696939 
L 219.456 149.647959 
L 234.144 149.647959 
L 241.056 170.696939 
L 255.744 170.696939 
L 262.656 149.647959 
L 288.144 149.647959 
L 295.056 170.696939 
L 320.544 170.696939 
L 327.456 149.647959 
L 352.944 149.647959 
L 359.856 170.696939 
L 385.344 170.696939 
L 392.256 149.647959 
L 428.544 149.647959 
L 435.456 170.696939 
L 471.744 170.696939 
L 478.656 149.647959 
L 529.2 149.647959 
" clip-path="url(#p5aebd6a0d5)" style="fill: none; stroke: #9467bd; stroke-width: 1.5; stroke-linecap: square"/>
   </g>
   <g id="line2d_28">
    <path d="M 97.2 170.696939 
L 115.344 170.696939 
L 122.256 149.647959 
L 169.344 149.647959 
L 176.256 170.696939 
L 190.944 170.696939 
L 197.856 149.647959 
L 212.544 149.647959 
L 219.456 170.696939 
L 234.144 170.696939 
L 241.056 149.647959 
L 255.744 149.647959 
L 262.656 170.696939 
L 288.144 170.696939 
L 295.056 149.647959 
L 320.544 149.647959 
L 327.456 170.696939 
L 352.944 170.696939 
L 359.856 149.647959 
L 385.344 149.647959 
L 392.256 170.696939 
L 428.544 170.696939 
L 435.456 149.647959 
L 471.744 149.647959 
L 478.656 170.696939 
L 529.2 170.696939 
" clip-path="url(#p5aebd6a0d5)" style="fill: none; stroke: #9467bd; stroke-width: 1.5; stroke-linecap: square"/>
   </g>
   <g id="line2d_29">
    <path d="M 97.2 179.467347 
L 126.144 179.467347 
L 133.056 200.516327 
L 529.2 200.516327 
" clip-path="url(#p5aebd6a0d5)" style="fill: none; stroke: #8c564b; stroke-width: 1.5; stroke-linecap: square"/>
   </g>
   <g id="line2d_30">
    <path d="M 97.2 200.516327 
L 126.144 200.516327 
L 133.056 179.467347 
L 529.2 179.467347 
" clip-path="url(#p5aebd6a0d5)" style="fill: none; stroke: #8c564b; stroke-width: 1.5; stroke-linecap: square"/>
   </g>
   <g id="line2d_31">
    <path d="M 97.2 209.286735 
L 529.2 209.286735 
" clip-path="url(#p5aebd6a0d5)" style="fill: none; stroke-dasharray: 5.55,2.4; stroke-dashoffset: 0; stroke: #000000; stroke-width: 1.5"/>
   </g>
   <g id="line2d_32">
    <path d="M 97.2 253.138776 
L 140.4 253.138776 
L 140.4 218.057143 
L 442.8 218.057143 
L 442.8 253.138776 
L 529.2 253.138776 
" clip-path="url(#p5aebd6a0d5)" style="fill: none; stroke: #e377c2; stroke-width: 2; stroke-linecap: square"/>
   </g>
   <g id="line2d_33">
    <path d="M 97.2 296.990816 
L 205.2 296.990816 
L 205.2 261.909184 
L 248.4 261.909184 
L 248.4 296.990816 
L 270 296.990816 
L 270 261.909184 
L 334.8 261.909184 
L 334.8 296.990816 
L 367.2 296.990816 
L 367.2 261.909184 
L 442.8 261.909184 
L 442.8 296.990816 
L 529.2 296.990816 
" clip-path="url(#p5aebd6a0d5)" style="fill: none; stroke: #7f7f7f; stroke-width: 2; stroke-linecap: square"/>
   </g>
   <g id="line2d_34">
    <path d="M 97.2 305.761224 
L 136.944 305.761224 
L 143.856 326.810204 
L 147.744 326.810204 
L 154.656 305.761224 
L 201.744 305.761224 
L 208.656 326.810204 
L 244.944 326.810204 
L 251.856 305.761224 
L 266.544 305.761224 
L 273.456 326.810204 
L 331.344 326.810204 
L 338.256 305.761224 
L 363.744 305.761224 
L 370.656 326.810204 
L 439.344 326.810204 
L 446.256 305.761224 
L 529.2 305.761224 
" clip-path="url(#p5aebd6a0d5)" style="fill: none; stroke: #bcbd22; stroke-width: 1.5; stroke-linecap: square"/>
   </g>
   <g id="line2d_35">
    <path d="M 97.2 326.810204 
L 136.944 326.810204 
L 143.856 305.761224 
L 147.744 305.761224 
L 154.656 326.810204 
L 201.744 326.810204 
L 208.656 305.761224 
L 244.944 305.761224 
L 251.856 326.810204 
L 266.544 326.810204 
L 273.456 305.761224 
L 331.344 305.761224 
L 338.256 326.810204 
L 363.744 326.810204 
L 370.656 305.761224 
L 439.344 305.761224 
L 446.256 326.810204 
L 529.2 326.810204 
" clip-path="url(#p5aebd6a0d5)" style="fill: none; stroke: #bcbd22; stroke-width: 1.5; stroke-linecap: square"/>
   </g>
   <g id="line2d_36">
    <path d="M 97.2 335.580612 
L 201.744 335.580612 
L 208.656 356.629592 
L 266.544 356.629592 
L 273.456 335.580612 
L 363.744 335.580612 
L 370.656 356.629592 
L 529.2 356.629592 
" clip-path="url(#p5aebd6a0d5)" style="fill: none; stroke: #17becf; stroke-width: 1.5; stroke-linecap: square"/>
   </g>
   <g id="line2d_37">
    <path d="M 97.2 356.629592 
L 201.744 356.629592 
L 208.656 335.580612 
L 266.544 335.580612 
L 273.456 356.629592 
L 363.744 356.629592 
L 370.656 335.580612 
L 529.2 335.580612 
" clip-path="url(#p5aebd6a0d5)" style="fill: none; stroke: #17becf; stroke-width: 1.5; stroke-linecap: square"/>
   </g>
   <g id="patch_3">
    <path d="M 97.2 365.4 
L 97.2 21.6 
" style="fill: none; stroke: #000000; stroke-width: 0.8; stroke-linejoin: miter; stroke-linecap: square"/>
   </g>
   <g id="patch_4">
    <path d="M 529.2 365.4 
L 529.2 21.6 
" style="fill: none; stroke: #000000; stroke-width: 0.8; stroke-linejoin: miter; stroke-linecap: square"/>
   </g>
   <g id="patch_5">
    <path d="M 97.2 365.4 
L 529.2 365.4 
" style="fill: none; stroke: #000000; stroke-width: 0.8; stroke-linejoin: miter; stroke-linecap: square"/>
   </g>
   <g id="patch_6">
    <path d="M 97.2 21.6 
L 529.2 21.6 
" style="fill: none; stroke: #000000; stroke-width: 0.8; stroke-linejoin: miter; stroke-linecap: square"/>
   </g>
   <g id="text_11">
    <!-- 4 -->
    <g style="fill: #ffffff" transform="translate(111.456 43.492554) scale(0.1 -0.1)">
     <use xlink:href="#DejaVuSans-17"/>
    </g>
   </g>
   <g id="text_12">
    <!-- START -->
    <g transform="translate(62.895562 43.492554) scale(0.1 -0.1)">
     <defs>
      <path id="DejaVuSans-36" d="M 3425 4513 
L 3425 3897 
Q 3066 4069 2747 4153 
Q 2428 4238 2131 4238 
Q 1616 4238 1336 4038 
Q 1056 3838 1056 3469 
Q 1056 3159 1242 3001 
Q 1428 2844 1947 2747 
L 2328 2669 
Q 3034 2534 3370 2195 
Q 3706 1856 3706 1288 
Q 3706 609 3251 259 
Q 2797 -91 1919 -91 
Q 1588 -91 1214 -16 
Q 841 59 441 206 
L 441 856 
Q 825 641 1194 531 
Q 1563 422 1919 422 
Q 2459 422 2753 634 
Q 3047 847 3047 1241 
Q 3047 1584 2836 1778 
Q 2625 1972 2144 2069 
L 1759 2144 
Q 1053 2284 737 2584 
Q 422 2884 422 3419 
Q 422 4038 858 4394 
Q 1294 4750 2059 4750 
Q 2388 4750 2728 4690 
Q 3069 4631 3425 4513 
z
" transform="scale(0.015625)"/>
      <path id="DejaVuSans-35" d="M 2841 2188 
Q 3044 2119 3236 1894 
Q 3428 1669 3622 1275 
L 4263 0 
L 3584 0 
L 2988 1197 
Q 2756 1666 2539 1819 
Q 2322 1972 1947 1972 
L 1259 1972 
L 1259 0 
L 628 0 
L 628 4666 
L 2053 4666 
Q 2853 4666 3247 4331 
Q 3641 3997 3641 3322 
Q 3641 2881 3436 2590 
Q 3231 2300 2841 2188 
z
M 1259 4147 
L 1259 2491 
L 2053 2491 
Q 2509 2491 2742 2702 
Q 2975 2913 2975 3322 
Q 2975 3731 2742 3939 
Q 2509 4147 2053 4147 
L 1259 4147 
z
" transform="scale(0.015625)"/>
     </defs>
     <use xlink:href="#DejaVuSans-36"/>
     <use xlink:href="#DejaVuSans-37" transform="translate(63.484375 0)"/>
     <use xlink:href="#DejaVuSans-24" transform="translate(116.796875 0)"/>
     <use xlink:href="#DejaVuSans-35" transform="translate(185.203125 0)"/>
     <use xlink:href="#DejaVuSans-37" transform="translate(247.40625 0)"/>
    </g>
   </g>
   <g id="text_13">
    <!-- 3 -->
    <g style="fill: #ffffff" transform="translate(111.456 73.311942) scale(0.1 -0.1)">
     <use xlink:href="#DejaVuSans-16"/>
    </g>
   </g>
   <g id="text_14">
    <!-- STEP -->
    <g transform="translate(68.939312 73.311942) scale(0.1 -0.1)">
     <defs>
      <path id="DejaVuSans-28" d="M 628 4666 
L 3578 4666 
L 3578 4134 
L 1259 4134 
L 1259 2753 
L 3481 2753 
L 3481 2222 
L 1259 2222 
L 1259 531 
L 3634 531 
L 3634 0 
L 628 0 
L 628 4666 
z
" transform="scale(0.015625)"/>
     </defs>
     <use xlink:href="#DejaVuSans-36"/>
     <use xlink:href="#DejaVuSans-37" transform="translate(63.484375 0)"/>
     <use xlink:href="#DejaVuSans-28" transform="translate(124.5625 0)"/>
     <use xlink:href="#DejaVuSans-33" transform="translate(187.75 0)"/>
    </g>
   </g>
   <g id="text_15">
    <!-- 2 -->
    <g style="fill: #ffffff" transform="translate(111.456 103.13133) scale(0.1 -0.1)">
     <use xlink:href="#DejaVuSans-15"/>
    </g>
   </g>
   <g id="text_16">
    <!-- WIDTH -->
    <g transform="translate(59.578375 103.13133) scale(0.1 -0.1)">
     <defs>
      <path id="DejaVuSans-3a" d="M 213 4666 
L 850 4666 
L 1831 722 
L 2809 4666 
L 3519 4666 
L 4500 722 
L 5478 4666 
L 6119 4666 
L 4947 0 
L 4153 0 
L 3169 4050 
L 2175 0 
L 1381 0 
L 213 4666 
z
" transform="scale(0.015625)"/>
      <path id="DejaVuSans-2c" d="M 628 4666 
L 1259 4666 
L 1259 0 
L 628 0 
L 628 4666 
z
" transform="scale(0.015625)"/>
      <path id="DejaVuSans-27" d="M 1259 4147 
L 1259 519 
L 2022 519 
Q 2988 519 3436 956 
Q 3884 1394 3884 2338 
Q 3884 3275 3436 3711 
Q 2988 4147 2022 4147 
L 1259 4147 
z
M 628 4666 
L 1925 4666 
Q 3281 4666 3915 4102 
Q 4550 3538 4550 2338 
Q 4550 1131 3912 565 
Q 3275 0 1925 0 
L 628 0 
L 628 4666 
z
" transform="scale(0.015625)"/>
     </defs>
     <use xlink:href="#DejaVuSans-3a"/>
     <use xlink:href="#DejaVuSans-2c" transform="translate(98.875 0)"/>
     <use xlink:href="#DejaVuSans-27" transform="translate(128.375 0)"/>
     <use xlink:href="#DejaVuSans-37" transform="translate(205.375 0)"/>
     <use xlink:href="#DejaVuSans-2b" transform="translate(266.453125 0)"/>
    </g>
   </g>
   <g id="text_17">
    <!-- 3 -->
    <g style="fill: #ffffff" transform="translate(111.456 132.950717) scale(0.1 -0.1)">
     <use xlink:href="#DejaVuSans-16"/>
    </g>
   </g>
   <g id="text_18">
    <!-- PULSES -->
    <g transform="translate(55.808062 132.950717) scale(0.1 -0.1)">
     <defs>
      <path id="DejaVuSans-38" d="M 556 4666 
L 1191 4666 
L 1191 1831 
Q 1191 1081 1462 751 
Q 1734 422 2344 422 
Q 2950 422 3222 751 
Q 3494 1081 3494 1831 
L 3494 4666 
L 4128 4666 
L 4128 1753 
Q 4128 841 3676 375 
Q 3225 -91 2344 -91 
Q 1459 -91 1007 375 
Q 556 841 556 1753 
L 556 4666 
z
" transform="scale(0.015625)"/>
      <path id="DejaVuSans-2f" d="M 628 4666 
L 1259 4666 
L 1259 531 
L 3531 531 
L 3531 0 
L 628 0 
L 628 4666 
z
" transform="scale(0.015625)"/>
     </defs>
     <use xlink:href="#DejaVuSans-33"/>
     <use xlink:href="#DejaVuSans-38" transform="translate(60.296875 0)"/>
     <use xlink:href="#DejaVuSans-2f" transform="translate(133.484375 0)"/>
     <use xlink:href="#DejaVuSans-36" transform="translate(189.203125 0)"/>
     <use xlink:href="#DejaVuSans-28" transform="translate(252.6875 0)"/>
     <use xlink:href="#DejaVuSans-36" transform="translate(315.875 0)"/>
    </g>
   </g>
   <g id="text_19">
    <!-- 2 -->
    <g style="fill: #ffffff" transform="translate(122.256 162.770105) scale(0.1 -0.1)">
     <use xlink:href="#DejaVuSans-15"/>
    </g>
   </g>
   <g id="text_20">
    <!-- 3 -->
    <g style="fill: #ffffff" transform="translate(176.256 162.770105) scale(0.1 -0.1)">
     <use xlink:href="#DejaVuSans-16"/>
    </g>
   </g>
   <g id="text_21">
    <!-- 4 -->
    <g style="fill: #ffffff" transform="translate(197.856 162.770105) scale(0.1 -0.1)">
     <use xlink:href="#DejaVuSans-17"/>
    </g>
   </g>
   <g id="text_22">
    <!-- 5 -->
    <g style="fill: #ffffff" transform="translate(219.456 162.770105) scale(0.1 -0.1)">
     <use xlink:href="#DejaVuSans-18"/>
    </g>
   </g>
   <g id="text_23">
    <!-- 6 -->
    <g style="fill: #ffffff" transform="translate(241.056 162.770105) scale(0.1 -0.1)">
     <defs>
      <path id="DejaVuSans-19" d="M 2113 2584 
Q 1688 2584 1439 2293 
Q 1191 2003 1191 1497 
Q 1191 994 1439 701 
Q 1688 409 2113 409 
Q 2538 409 2786 701 
Q 3034 994 3034 1497 
Q 3034 2003 2786 2293 
Q 2538 2584 2113 2584 
z
M 3366 4563 
L 3366 3988 
Q 3128 4100 2886 4159 
Q 2644 4219 2406 4219 
Q 1781 4219 1451 3797 
Q 1122 3375 1075 2522 
Q 1259 2794 1537 2939 
Q 1816 3084 2150 3084 
Q 2853 3084 3261 2657 
Q 3669 2231 3669 1497 
Q 3669 778 3244 343 
Q 2819 -91 2113 -91 
Q 1303 -91 875 529 
Q 447 1150 447 2328 
Q 447 3434 972 4092 
Q 1497 4750 2381 4750 
Q 2619 4750 2861 4703 
Q 3103 4656 3366 4563 
z
" transform="scale(0.015625)"/>
     </defs>
     <use xlink:href="#DejaVuSans-19"/>
    </g>
   </g>
   <g id="text_24">
    <!-- 7 -->
    <g style="fill: #ffffff" transform="translate(262.656 162.770105) scale(0.1 -0.1)">
     <defs>
      <path id="DejaVuSans-1a" d="M 525 4666 
L 3525 4666 
L 3525 4397 
L 1831 0 
L 1172 0 
L 2766 4134 
L 525 4134 
L 525 4666 
z
" transform="scale(0.015625)"/>
     </defs>
     <use xlink:href="#DejaVuSans-1a"/>
    </g>
   </g>
   <g id="text_25">
    <!-- 8 -->
    <g style="fill: #ffffff" transform="translate(295.056 162.770105) scale(0.1 -0.1)">
     <defs>
      <path id="DejaVuSans-1b" d="M 2034 2216 
Q 1584 2216 1326 1975 
Q 1069 1734 1069 1313 
Q 1069 891 1326 650 
Q 1584 409 2034 409 
Q 2484 409 2743 651 
Q 3003 894 3003 1313 
Q 3003 1734 2745 1975 
Q 2488 2216 2034 2216 
z
M 1403 2484 
Q 997 2584 770 2862 
Q 544 3141 544 3541 
Q 544 4100 942 4425 
Q 1341 4750 2034 4750 
Q 2731 4750 3128 4425 
Q 3525 4100 3525 3541 
Q 3525 3141 3298 2862 
Q 3072 2584 2669 2484 
Q 3125 2378 3379 2068 
Q 3634 1759 3634 1313 
Q 3634 634 3220 271 
Q 2806 -91 2034 -91 
Q 1263 -91 848 271 
Q 434 634 434 1313 
Q 434 1759 690 2068 
Q 947 2378 1403 2484 
z
M 1172 3481 
Q 1172 3119 1398 2916 
Q 1625 2713 2034 2713 
Q 2441 2713 2670 2916 
Q 2900 3119 2900 3481 
Q 2900 3844 2670 4047 
Q 2441 4250 2034 4250 
Q 1625 4250 1398 4047 
Q 1172 3844 1172 3481 
z
" transform="scale(0.015625)"/>
     </defs>
     <use xlink:href="#DejaVuSans-1b"/>
    </g>
   </g>
   <g id="text_26">
    <!-- 9 -->
    <g style="fill: #ffffff" transform="translate(327.456 162.770105) scale(0.1 -0.1)">
     <defs>
      <path id="DejaVuSans-1c" d="M 703 97 
L 703 672 
Q 941 559 1184 500 
Q 1428 441 1663 441 
Q 2288 441 2617 861 
Q 2947 1281 2994 2138 
Q 2813 1869 2534 1725 
Q 2256 1581 1919 1581 
Q 1219 1581 811 2004 
Q 403 2428 403 3163 
Q 403 3881 828 4315 
Q 1253 4750 1959 4750 
Q 2769 4750 3195 4129 
Q 3622 3509 3622 2328 
Q 3622 1225 3098 567 
Q 2575 -91 1691 -91 
Q 1453 -91 1209 -44 
Q 966 3 703 97 
z
M 1959 2075 
Q 2384 2075 2632 2365 
Q 2881 2656 2881 3163 
Q 2881 3666 2632 3958 
Q 2384 4250 1959 4250 
Q 1534 4250 1286 3958 
Q 1038 3666 1038 3163 
Q 1038 2656 1286 2365 
Q 1534 2075 1959 2075 
z
" transform="scale(0.015625)"/>
     </defs>
     <use xlink:href="#DejaVuSans-1c"/>
    </g>
   </g>
   <g id="text_27">
    <!-- 10 -->
    <g style="fill: #ffffff" transform="translate(359.856 162.770105) scale(0.1 -0.1)">
     <use xlink:href="#DejaVuSans-14"/>
     <use xlink:href="#DejaVuSans-13" transform="translate(63.625 0)"/>
    </g>
   </g>
   <g id="text_28">
    <!-- 11 -->
    <g style="fill: #ffffff" transform="translate(392.256 162.770105) scale(0.1 -0.1)">
     <use xlink:href="#DejaVuSans-14"/>
     <use xlink:href="#DejaVuSans-14" transform="translate(63.625 0)"/>
    </g>
   </g>
   <g id="text_29">
    <!-- 12 -->
    <g style="fill: #ffffff" transform="translate(435.456 162.770105) scale(0.1 -0.1)">
     <use xlink:href="#DejaVuSans-14"/>
     <use xlink:href="#DejaVuSans-15" transform="translate(63.625 0)"/>
    </g>
   </g>
   <g id="text_30">
    <!-- 13 -->
    <g style="fill: #ffffff" transform="translate(478.656 162.770105) scale(0.1 -0.1)">
     <use xlink:href="#DejaVuSans-14"/>
     <use xlink:href="#DejaVuSans-16" transform="translate(63.625 0)"/>
    </g>
   </g>
   <g id="text_31">
    <!-- INP -->
    <g transform="translate(77.283062 162.770105) scale(0.1 -0.1)">
     <defs>
      <path id="DejaVuSans-31" d="M 628 4666 
L 1478 4666 
L 3547 763 
L 3547 4666 
L 4159 4666 
L 4159 0 
L 3309 0 
L 1241 3903 
L 1241 0 
L 628 0 
L 628 4666 
z
" transform="scale(0.015625)"/>
     </defs>
     <use xlink:href="#DejaVuSans-2c"/>
     <use xlink:href="#DejaVuSans-31" transform="translate(29.5 0)"/>
     <use xlink:href="#DejaVuSans-33" transform="translate(104.3125 0)"/>
    </g>
   </g>
   <g id="text_32">
    <!-- 1 -->
    <g style="fill: #ffffff" transform="translate(133.056 192.589493) scale(0.1 -0.1)">
     <use xlink:href="#DejaVuSans-14"/>
    </g>
   </g>
   <g id="text_33">
    <!-- ENABLE -->
    <g transform="translate(54.351812 192.589493) scale(0.1 -0.1)">
     <defs>
      <path id="DejaVuSans-25" d="M 1259 2228 
L 1259 519 
L 2272 519 
Q 2781 519 3026 730 
Q 3272 941 3272 1375 
Q 3272 1813 3026 2020 
Q 2781 2228 2272 2228 
L 1259 2228 
z
M 1259 4147 
L 1259 2741 
L 2194 2741 
Q 2656 2741 2882 2914 
Q 3109 3088 3109 3444 
Q 3109 3797 2882 3972 
Q 2656 4147 2194 4147 
L 1259 4147 
z
M 628 4666 
L 2241 4666 
Q 2963 4666 3353 4366 
Q 3744 4066 3744 3513 
Q 3744 3084 3544 2831 
Q 3344 2578 2956 2516 
Q 3422 2416 3680 2098 
Q 3938 1781 3938 1306 
Q 3938 681 3513 340 
Q 3088 0 2303 0 
L 628 0 
L 628 4666 
z
" transform="scale(0.015625)"/>
     </defs>
     <use xlink:href="#DejaVuSans-28"/>
     <use xlink:href="#DejaVuSans-31" transform="translate(63.1875 0)"/>
     <use xlink:href="#DejaVuSans-24" transform="translate(138 0)"/>
     <use xlink:href="#DejaVuSans-25" transform="translate(206.40625 0)"/>
     <use xlink:href="#DejaVuSans-2f" transform="translate(275.015625 0)"/>
     <use xlink:href="#DejaVuSans-28" transform="translate(330.734375 0)"/>
    </g>
   </g>
   <g id="text_34">
    <!-- ACTIVE -->
    <g transform="translate(57.878375 238.195615) scale(0.1 -0.1)">
     <defs>
      <path id="DejaVuSans-26" d="M 4122 4306 
L 4122 3641 
Q 3803 3938 3442 4084 
Q 3081 4231 2675 4231 
Q 1875 4231 1450 3742 
Q 1025 3253 1025 2328 
Q 1025 1406 1450 917 
Q 1875 428 2675 428 
Q 3081 428 3442 575 
Q 3803 722 4122 1019 
L 4122 359 
Q 3791 134 3420 21 
Q 3050 -91 2638 -91 
Q 1578 -91 968 557 
Q 359 1206 359 2328 
Q 359 3453 968 4101 
Q 1578 4750 2638 4750 
Q 3056 4750 3426 4639 
Q 3797 4528 4122 4306 
z
" transform="scale(0.015625)"/>
      <path id="DejaVuSans-39" d="M 1831 0 
L 50 4666 
L 709 4666 
L 2188 738 
L 3669 4666 
L 4325 4666 
L 2547 0 
L 1831 0 
z
" transform="scale(0.015625)"/>
     </defs>
     <use xlink:href="#DejaVuSans-24"/>
     <use xlink:href="#DejaVuSans-26" transform="translate(66.65625 0)"/>
     <use xlink:href="#DejaVuSans-37" transform="translate(136.484375 0)"/>
     <use xlink:href="#DejaVuSans-2c" transform="translate(197.5625 0)"/>
     <use xlink:href="#DejaVuSans-39" transform="translate(227.0625 0)"/>
     <use xlink:href="#DejaVuSans-28" transform="translate(295.46875 0)"/>
    </g>
   </g>
   <g id="text_35">
    <!-- OUT -->
    <g transform="translate(72.445562 282.047656) scale(0.1 -0.1)">
     <defs>
      <path id="DejaVuSans-32" d="M 2522 4238 
Q 1834 4238 1429 3725 
Q 1025 3213 1025 2328 
Q 1025 1447 1429 934 
Q 1834 422 2522 422 
Q 3209 422 3611 934 
Q 4013 1447 4013 2328 
Q 4013 3213 3611 3725 
Q 3209 4238 2522 4238 
z
M 2522 4750 
Q 3503 4750 4090 4092 
Q 4678 3434 4678 2328 
Q 4678 1225 4090 567 
Q 3503 -91 2522 -91 
Q 1538 -91 948 565 
Q 359 1222 359 2328 
Q 359 3434 948 4092 
Q 1538 4750 2522 4750 
z
" transform="scale(0.015625)"/>
     </defs>
     <use xlink:href="#DejaVuSans-32"/>
     <use xlink:href="#DejaVuSans-38" transform="translate(78.71875 0)"/>
     <use xlink:href="#DejaVuSans-37" transform="translate(151.90625 0)"/>
    </g>
   </g>
   <g id="text_36">
    <!-- 2 -->
    <g style="fill: #ffffff" transform="translate(143.856 318.883371) scale(0.1 -0.1)">
     <use xlink:href="#DejaVuSans-15"/>
    </g>
   </g>
   <g id="text_37">
    <!-- 3 -->
    <g style="fill: #ffffff" transform="translate(154.656 318.883371) scale(0.1 -0.1)">
     <use xlink:href="#DejaVuSans-16"/>
    </g>
   </g>
   <g id="text_38">
    <!-- 4 -->
    <g style="fill: #ffffff" transform="translate(208.656 318.883371) scale(0.1 -0.1)">
     <use xlink:href="#DejaVuSans-17"/>
    </g>
   </g>
   <g id="text_39">
    <!-- 3 -->
    <g style="fill: #ffffff" transform="translate(251.856 318.883371) scale(0.1 -0.1)">
     <use xlink:href="#DejaVuSans-16"/>
    </g>
   </g>
   <g id="text_40">
    <!-- 4 -->
    <g style="fill: #ffffff" transform="translate(273.456 318.883371) scale(0.1 -0.1)">
     <use xlink:href="#DejaVuSans-17"/>
    </g>
   </g>
   <g id="text_41">
    <!-- 3 -->
    <g style="fill: #ffffff" transform="translate(338.256 318.883371) scale(0.1 -0.1)">
     <use xlink:href="#DejaVuSans-16"/>
    </g>
   </g>
   <g id="text_42">
    <!-- 4 -->
    <g style="fill: #ffffff" transform="translate(370.656 318.883371) scale(0.1 -0.1)">
     <use xlink:href="#DejaVuSans-17"/>
    </g>
   </g>
   <g id="text_43">
    <!-- 0 -->
    <g style="fill: #ffffff" transform="translate(446.256 318.883371) scale(0.1 -0.1)">
     <use xlink:href="#DejaVuSans-13"/>
    </g>
   </g>
   <g id="text_44">
    <!-- STATE -->
    <g transform="translate(63.573687 318.883371) scale(0.1 -0.1)">
     <use xlink:href="#DejaVuSans-36"/>
     <use xlink:href="#DejaVuSans-37" transform="translate(63.484375 0)"/>
     <use xlink:href="#DejaVuSans-24" transform="translate(116.796875 0)"/>
     <use xlink:href="#DejaVuSans-37" transform="translate(177.4375 0)"/>
     <use xlink:href="#DejaVuSans-28" transform="translate(238.515625 0)"/>
    </g>
   </g>
   <g id="text_45">
    <!-- 1 -->
    <g style="fill: #ffffff" transform="translate(208.656 348.702758) scale(0.1 -0.1)">
     <use xlink:href="#DejaVuSans-14"/>
    </g>
   </g>
   <g id="text_46">
    <!-- 2 -->
    <g style="fill: #ffffff" transform="translate(273.456 348.702758) scale(0.1 -0.1)">
     <use xlink:href="#DejaVuSans-15"/>
    </g>
   </g>
   <g id="text_47">
    <!-- 3 -->
    <g style="fill: #ffffff" transform="translate(370.656 348.702758) scale(0.1 -0.1)">
     <use xlink:href="#DejaVuSans-16"/>
    </g>
   </g>
   <g id="text_48">
    <!-- PRODUCED -->
    <g transform="translate(36.873687 348.702758) scale(0.1 -0.1)">
     <use xlink:href="#DejaVuSans-33"/>
     <use xlink:href="#DejaVuSans-35" transform="translate(60.296875 0)"/>
     <use xlink:href="#DejaVuSans-32" transform="translate(129.78125 0)"/>
     <use xlink:href="#DejaVuSans-27" transform="translate(208.5 0)"/>
     <use xlink:href="#DejaVuSans-38" transform="translate(285.5 0)"/>
     <use xlink:href="#DejaVuSans-26" transform="translate(358.6875 0)"/>
     <use xlink:href="#DejaVuSans-28" transform="translate(428.515625 0)"/>
     <use xlink:href="#DejaVuSans-27" transform="translate(491.703125 0)"/>
    </g>
   </g>
   <g id="text_49">
    <!-- 3 Pulses in a +ve direction -->
    <g transform="translate(233.211563 15.6) scale(0.12 -0.12)">
     <defs>
      <path id="DejaVuSans-58" d="M 544 1381 
L 544 3500 
L 1119 3500 
L 1119 1403 
Q 1119 906 1312 657 
Q 1506 409 1894 409 
Q 2359 409 2629 706 
Q 2900 1003 2900 1516 
L 2900 3500 
L 3475 3500 
L 3475 0 
L 2900 0 
L 2900 538 
Q 2691 219 2414 64 
Q 2138 -91 1772 -91 
Q 1169 -91 856 284 
Q 544 659 544 1381 
z
M 1991 3584 
L 1991 3584 
z
" transform="scale(0.015625)"/>
      <path id="DejaVuSans-51" d="M 3513 2113 
L 3513 0 
L 2938 0 
L 2938 2094 
Q 2938 2591 2744 2837 
Q 2550 3084 2163 3084 
Q 1697 3084 1428 2787 
Q 1159 2491 1159 1978 
L 1159 0 
L 581 0 
L 581 3500 
L 1159 3500 
L 1159 2956 
Q 1366 3272 1645 3428 
Q 1925 3584 2291 3584 
Q 2894 3584 3203 3211 
Q 3513 2838 3513 2113 
z
" transform="scale(0.015625)"/>
      <path id="DejaVuSans-e" d="M 2944 4013 
L 2944 2272 
L 4684 2272 
L 4684 1741 
L 2944 1741 
L 2944 0 
L 2419 0 
L 2419 1741 
L 678 1741 
L 678 2272 
L 2419 2272 
L 2419 4013 
L 2944 4013 
z
" transform="scale(0.015625)"/>
      <path id="DejaVuSans-59" d="M 191 3500 
L 800 3500 
L 1894 563 
L 2988 3500 
L 3597 3500 
L 2284 0 
L 1503 0 
L 191 3500 
z
" transform="scale(0.015625)"/>
      <path id="DejaVuSans-47" d="M 2906 2969 
L 2906 4863 
L 3481 4863 
L 3481 0 
L 2906 0 
L 2906 525 
Q 2725 213 2448 61 
Q 2172 -91 1784 -91 
Q 1150 -91 751 415 
Q 353 922 353 1747 
Q 353 2572 751 3078 
Q 1150 3584 1784 3584 
Q 2172 3584 2448 3432 
Q 2725 3281 2906 2969 
z
M 947 1747 
Q 947 1113 1208 752 
Q 1469 391 1925 391 
Q 2381 391 2643 752 
Q 2906 1113 2906 1747 
Q 2906 2381 2643 2742 
Q 2381 3103 1925 3103 
Q 1469 3103 1208 2742 
Q 947 2381 947 1747 
z
" transform="scale(0.015625)"/>
      <path id="DejaVuSans-55" d="M 2631 2963 
Q 2534 3019 2420 3045 
Q 2306 3072 2169 3072 
Q 1681 3072 1420 2755 
Q 1159 2438 1159 1844 
L 1159 0 
L 581 0 
L 581 3500 
L 1159 3500 
L 1159 2956 
Q 1341 3275 1631 3429 
Q 1922 3584 2338 3584 
Q 2397 3584 2469 3576 
Q 2541 3569 2628 3553 
L 2631 2963 
z
" transform="scale(0.015625)"/>
     </defs>
     <use xlink:href="#DejaVuSans-16"/>
     <use xlink:href="#DejaVuSans-3" transform="translate(63.625 0)"/>
     <use xlink:href="#DejaVuSans-33" transform="translate(95.40625 0)"/>
     <use xlink:href="#DejaVuSans-58" transform="translate(153.953125 0)"/>
     <use xlink:href="#DejaVuSans-4f" transform="translate(217.328125 0)"/>
     <use xlink:href="#DejaVuSans-56" transform="translate(245.109375 0)"/>
     <use xlink:href="#DejaVuSans-48" transform="translate(297.203125 0)"/>
     <use xlink:href="#DejaVuSans-56" transform="translate(358.734375 0)"/>
     <use xlink:href="#DejaVuSans-3" transform="translate(410.828125 0)"/>
     <use xlink:href="#DejaVuSans-4c" transform="translate(442.609375 0)"/>
     <use xlink:href="#DejaVuSans-51" transform="translate(470.390625 0)"/>
     <use xlink:href="#DejaVuSans-3" transform="translate(533.765625 0)"/>
     <use xlink:href="#DejaVuSans-44" transform="translate(565.546875 0)"/>
     <use xlink:href="#DejaVuSans-3" transform="translate(626.828125 0)"/>
     <use xlink:href="#DejaVuSans-e" transform="translate(658.609375 0)"/>
     <use xlink:href="#DejaVuSans-59" transform="translate(742.40625 0)"/>
     <use xlink:href="#DejaVuSans-48" transform="translate(801.59375 0)"/>
     <use xlink:href="#DejaVuSans-3" transform="translate(863.125 0)"/>
     <use xlink:href="#DejaVuSans-47" transform="translate(894.90625 0)"/>
     <use xlink:href="#DejaVuSans-4c" transform="translate(958.390625 0)"/>
     <use xlink:href="#DejaVuSans-55" transform="translate(986.171875 0)"/>
     <use xlink:href="#DejaVuSans-48" transform="translate(1025.078125 0)"/>
     <use xlink:href="#DejaVuSans-46" transform="translate(1086.609375 0)"/>
     <use xlink:href="#DejaVuSans-57" transform="translate(1141.59375 0)"/>
     <use xlink:href="#DejaVuSans-4c" transform="translate(1180.796875 0)"/>
     <use xlink:href="#DejaVuSans-52" transform="translate(1208.578125 0)"/>
     <use xlink:href="#DejaVuSans-51" transform="translate(1269.765625 0)"/>
    </g>
   </g>
  </g>
 </g>
 <defs>
  <clipPath id="p5aebd6a0d5">
   <rect x="97.2" y="21.6" width="432" height="343.8"/>
  </clipPath>
 </defs>
</svg>
