<?xml version="1.0" encoding="utf-8" standalone="no"?>
<!DOCTYPE svg PUBLIC "-//W3C//DTD SVG 1.1//EN"
  "http://www.w3.org/Graphics/SVG/1.1/DTD/svg11.dtd">
<svg xmlns:xlink="http://www.w3.org/1999/xlink" width="540pt" height="309.6pt" viewBox="0 0 540 309.6" xmlns="http://www.w3.org/2000/svg" version="1.1">
 <metadata>
  <rdf:RDF xmlns:dc="http://purl.org/dc/elements/1.1/" xmlns:cc="http://creativecommons.org/ns#" xmlns:rdf="http://www.w3.org/1999/02/22-rdf-syntax-ns#">
   <cc:Work>
    <dc:type rdf:resource="http://purl.org/dc/dcmitype/StillImage"/>
    <dc:date>2026-06-19T08:08:53.871880</dc:date>
    <dc:format>image/svg+xml</dc:format>
    <dc:creator>
     <cc:Agent>
      <dc:title>Matplotlib v3.11.0, https://matplotlib.org/</dc:title>
     </cc:Agent>
    </dc:creator>
   </cc:Work>
  </rdf:RDF>
 </metadata>
 <defs>
  <style type="text/css">*{stroke-linejoin: round; stroke-linecap: butt}</style>
 </defs>
 <g id="figure_1">
  <g id="patch_1">
   <path d="M 0 309.6 
L 540 309.6 
L 540 0 
L 0 0 
L 0 309.6 
z
" style="fill: none"/>
  </g>
  <g id="axes_1">
   <g id="patch_2">
    <path d="M 97.2 273.6 
L 529.2 273.6 
L 529.2 21.6 
L 97.2 21.6 
L 97.2 273.6 
z
" style="fill: none"/>
   </g>
   <g id="FillBetweenPolyCollection_1">
    <defs>
     <path id="m055cb49c57" d="M 97.2 -258.455172 
L 97.2 -279.310345 
L 112.258286 -279.310345 
L 119.170286 -258.455172 
L 529.2 -258.455172 
L 529.2 -279.310345 
L 529.2 -279.310345 
L 119.170286 -279.310345 
L 112.258286 -258.455172 
L 97.2 -258.455172 
z
" style="stroke: #1f77b4"/>
    </defs>
    <g clip-path="url(#pe251bdca24)">
     <use xlink:href="#m055cb49c57" x="0" y="309.6" style="fill: #1f77b4; stroke: #1f77b4"/>
    </g>
   </g>
   <g id="FillBetweenPolyCollection_2">
    <defs>
     <path id="m39d0cc69b3" d="M 97.2 -228.910345 
L 97.2 -249.765517 
L 124.601143 -249.765517 
L 131.513143 -228.910345 
L 529.2 -228.910345 
L 529.2 -249.765517 
L 529.2 -249.765517 
L 131.513143 -249.765517 
L 124.601143 -228.910345 
L 97.2 -228.910345 
z
" style="stroke: #ff7f0e"/>
    </defs>
    <g clip-path="url(#pe251bdca24)">
     <use xlink:href="#m39d0cc69b3" x="0" y="309.6" style="fill: #ff7f0e; stroke: #ff7f0e"/>
    </g>
   </g>
   <g id="FillBetweenPolyCollection_3">
    <defs>
     <path id="m7d7cd40a25" d="M 97.2 -199.365517 
L 97.2 -220.22069 
L 217.172571 -220.22069 
L 224.084571 -199.365517 
L 529.2 -199.365517 
L 529.2 -220.22069 
L 529.2 -220.22069 
L 224.084571 -220.22069 
L 217.172571 -199.365517 
L 97.2 -199.365517 
z
" style="stroke: #2ca02c"/>
    </defs>
    <g clip-path="url(#pe251bdca24)">
     <use xlink:href="#m7d7cd40a25" x="0" y="309.6" style="fill: #2ca02c; stroke: #2ca02c"/>
    </g>
   </g>
   <g id="FillBetweenPolyCollection_4">
    <defs>
     <path id="m24eae5e1ec" d="M 97.2 -74.234483 
L 97.2 -95.089655 
L 180.144 -95.089655 
L 187.056 -74.234483 
L 223.344 -74.234483 
L 230.256 -95.089655 
L 476.372571 -95.089655 
L 483.284571 -74.234483 
L 529.2 -74.234483 
L 529.2 -95.089655 
L 529.2 -95.089655 
L 483.284571 -95.089655 
L 476.372571 -74.234483 
L 230.256 -74.234483 
L 223.344 -95.089655 
L 187.056 -95.089655 
L 180.144 -74.234483 
L 97.2 -74.234483 
z
" style="stroke: #8c564b"/>
    </defs>
    <g clip-path="url(#pe251bdca24)">
     <use xlink:href="#m24eae5e1ec" x="0" y="309.6" style="fill: #8c564b; stroke: #8c564b"/>
    </g>
   </g>
   <g id="FillBetweenPolyCollection_5">
    <defs>
     <path id="m52d6bbf0c8" d="M 97.2 -44.689655 
L 97.2 -65.544828 
L 241.858286 -65.544828 
L 248.770286 -44.689655 
L 254.201143 -44.689655 
L 261.113143 -65.544828 
L 266.544 -65.544828 
L 273.456 -44.689655 
L 278.886857 -44.689655 
L 285.798857 -65.544828 
L 291.229714 -65.544828 
L 298.141714 -44.689655 
L 303.572571 -44.689655 
L 310.484571 -65.544828 
L 315.915429 -65.544828 
L 322.827429 -44.689655 
L 328.258286 -44.689655 
L 335.170286 -65.544828 
L 340.601143 -65.544828 
L 347.513143 -44.689655 
L 352.944 -44.689655 
L 359.856 -65.544828 
L 365.286857 -65.544828 
L 372.198857 -44.689655 
L 377.629714 -44.689655 
L 384.541714 -65.544828 
L 389.972571 -65.544828 
L 396.884571 -44.689655 
L 402.315429 -44.689655 
L 409.227429 -65.544828 
L 414.658286 -65.544828 
L 421.570286 -44.689655 
L 427.001143 -44.689655 
L 433.913143 -65.544828 
L 439.344 -65.544828 
L 446.256 -44.689655 
L 451.686857 -44.689655 
L 458.598857 -65.544828 
L 464.029714 -65.544828 
L 470.941714 -44.689655 
L 476.372571 -44.689655 
L 483.284571 -65.544828 
L 529.2 -65.544828 
L 529.2 -44.689655 
L 529.2 -44.689655 
L 483.284571 -44.689655 
L 476.372571 -65.544828 
L 470.941714 -65.544828 
L 464.029714 -44.689655 
L 458.598857 -44.689655 
L 451.686857 -65.544828 
L 446.256 -65.544828 
L 439.344 -44.689655 
L 433.913143 -44.689655 
L 427.001143 -65.544828 
L 421.570286 -65.544828 
L 414.658286 -44.689655 
L 409.227429 -44.689655 
L 402.315429 -65.544828 
L 396.884571 -65.544828 
L 389.972571 -44.689655 
L 384.541714 -44.689655 
L 377.629714 -65.544828 
L 372.198857 -65.544828 
L 365.286857 -44.689655 
L 359.856 -44.689655 
L 352.944 -65.544828 
L 347.513143 -65.544828 
L 340.601143 -44.689655 
L 335.170286 -44.689655 
L 328.258286 -65.544828 
L 322.827429 -65.544828 
L 315.915429 -44.689655 
L 310.484571 -44.689655 
L 303.572571 -65.544828 
L 298.141714 -65.544828 
L 291.229714 -44.689655 
L 285.798857 -44.689655 
L 278.886857 -65.544828 
L 273.456 -65.544828 
L 266.544 -44.689655 
L 261.113143 -44.689655 
L 254.201143 -65.544828 
L 248.770286 -65.544828 
L 241.858286 -44.689655 
L 97.2 -44.689655 
z
" style="stroke: #e377c2"/>
    </defs>
    <g clip-path="url(#pe251bdca24)">
     <use xlink:href="#m52d6bbf0c8" x="0" y="309.6" style="fill: #e377c2; stroke: #e377c2"/>
    </g>
   </g>
   <g id="matplotlib.axis_1">
    <g id="xtick_1">
     <g id="line2d_1">
      <path d="M 97.2 273.6 
L 97.2 21.6 
" clip-path="url(#pe251bdca24)" style="fill: none; stroke: #666666; stroke-width: 0.8; stroke-linecap: square"/>
     </g>
     <g id="line2d_2">
      <defs>
       <path id="mc444e13759" d="M 0 0 
L 0 3.5 
" style="stroke: #d4d4d4; stroke-width: 0.8"/>
      </defs>
      <g>
       <use xlink:href="#mc444e13759" x="97.2" y="273.6" style="fill: #d4d4d4; stroke: #d4d4d4; stroke-width: 0.8"/>
      </g>
     </g>
     <g id="text_1">
      <!-- 0 -->
      <g style="fill: #d4d4d4" transform="translate(94.01875 288.197656) scale(0.1 -0.1)">
       <defs>
        <path id="DejaVuSans-13" d="M 2034 4250 
Q 1547 4250 1301 3770 
Q 1056 3291 1056 2328 
Q 1056 1369 1301 889 
Q 1547 409 2034 409 
Q 2525 409 2770 889 
Q 3016 1369 3016 2328 
Q 3016 3291 2770 3770 
Q 2525 4250 2034 4250 
z
M 2034 4750 
Q 2819 4750 3233 4129 
Q 3647 3509 3647 2328 
Q 3647 1150 3233 529 
Q 2819 -91 2034 -91 
Q 1250 -91 836 529 
Q 422 1150 422 2328 
Q 422 3509 836 4129 
Q 1250 4750 2034 4750 
z
" transform="scale(0.015625)"/>
       </defs>
       <use xlink:href="#DejaVuSans-13"/>
      </g>
     </g>
    </g>
    <g id="xtick_2">
     <g id="line2d_3">
      <path d="M 158.914286 273.6 
L 158.914286 21.6 
" clip-path="url(#pe251bdca24)" style="fill: none; stroke: #666666; stroke-width: 0.8; stroke-linecap: square"/>
     </g>
     <g id="line2d_4">
      <g>
       <use xlink:href="#mc444e13759" x="158.914286" y="273.6" style="fill: #d4d4d4; stroke: #d4d4d4; stroke-width: 0.8"/>
      </g>
     </g>
     <g id="text_2">
      <!-- 10 -->
      <g style="fill: #d4d4d4" transform="translate(152.551786 288.197656) scale(0.1 -0.1)">
       <defs>
        <path id="DejaVuSans-14" d="M 794 531 
L 1825 531 
L 1825 4091 
L 703 3866 
L 703 4441 
L 1819 4666 
L 2450 4666 
L 2450 531 
L 3481 531 
L 3481 0 
L 794 0 
L 794 531 
z
" transform="scale(0.015625)"/>
       </defs>
       <use xlink:href="#DejaVuSans-14"/>
       <use xlink:href="#DejaVuSans-13" transform="translate(63.625 0)"/>
      </g>
     </g>
    </g>
    <g id="xtick_3">
     <g id="line2d_5">
      <path d="M 220.628571 273.6 
L 220.628571 21.6 
" clip-path="url(#pe251bdca24)" style="fill: none; stroke: #666666; stroke-width: 0.8; stroke-linecap: square"/>
     </g>
     <g id="line2d_6">
      <g>
       <use xlink:href="#mc444e13759" x="220.628571" y="273.6" style="fill: #d4d4d4; stroke: #d4d4d4; stroke-width: 0.8"/>
      </g>
     </g>
     <g id="text_3">
      <!-- 20 -->
      <g style="fill: #d4d4d4" transform="translate(214.266071 288.197656) scale(0.1 -0.1)">
       <defs>
        <path id="DejaVuSans-15" d="M 1228 531 
L 3431 531 
L 3431 0 
L 469 0 
L 469 531 
Q 828 903 1448 1529 
Q 2069 2156 2228 2338 
Q 2531 2678 2651 2914 
Q 2772 3150 2772 3378 
Q 2772 3750 2511 3984 
Q 2250 4219 1831 4219 
Q 1534 4219 1204 4116 
Q 875 4013 500 3803 
L 500 4441 
Q 881 4594 1212 4672 
Q 1544 4750 1819 4750 
Q 2544 4750 2975 4387 
Q 3406 4025 3406 3419 
Q 3406 3131 3298 2873 
Q 3191 2616 2906 2266 
Q 2828 2175 2409 1742 
Q 1991 1309 1228 531 
z
" transform="scale(0.015625)"/>
       </defs>
       <use xlink:href="#DejaVuSans-15"/>
       <use xlink:href="#DejaVuSans-13" transform="translate(63.625 0)"/>
      </g>
     </g>
    </g>
    <g id="xtick_4">
     <g id="line2d_7">
      <path d="M 282.342857 273.6 
L 282.342857 21.6 
" clip-path="url(#pe251bdca24)" style="fill: none; stroke: #666666; stroke-width: 0.8; stroke-linecap: square"/>
     </g>
     <g id="line2d_8">
      <g>
       <use xlink:href="#mc444e13759" x="282.342857" y="273.6" style="fill: #d4d4d4; stroke: #d4d4d4; stroke-width: 0.8"/>
      </g>
     </g>
     <g id="text_4">
      <!-- 30 -->
      <g style="fill: #d4d4d4" transform="translate(275.980357 288.197656) scale(0.1 -0.1)">
       <defs>
        <path id="DejaVuSans-16" d="M 2597 2516 
Q 3050 2419 3304 2112 
Q 3559 1806 3559 1356 
Q 3559 666 3084 287 
Q 2609 -91 1734 -91 
Q 1441 -91 1130 -33 
Q 819 25 488 141 
L 488 750 
Q 750 597 1062 519 
Q 1375 441 1716 441 
Q 2309 441 2620 675 
Q 2931 909 2931 1356 
Q 2931 1769 2642 2001 
Q 2353 2234 1838 2234 
L 1294 2234 
L 1294 2753 
L 1863 2753 
Q 2328 2753 2575 2939 
Q 2822 3125 2822 3475 
Q 2822 3834 2567 4026 
Q 2313 4219 1838 4219 
Q 1578 4219 1281 4162 
Q 984 4106 628 3988 
L 628 4550 
Q 988 4650 1302 4700 
Q 1616 4750 1894 4750 
Q 2613 4750 3031 4423 
Q 3450 4097 3450 3541 
Q 3450 3153 3228 2886 
Q 3006 2619 2597 2516 
z
" transform="scale(0.015625)"/>
       </defs>
       <use xlink:href="#DejaVuSans-16"/>
       <use xlink:href="#DejaVuSans-13" transform="translate(63.625 0)"/>
      </g>
     </g>
    </g>
    <g id="xtick_5">
     <g id="line2d_9">
      <path d="M 344.057143 273.6 
L 344.057143 21.6 
" clip-path="url(#pe251bdca24)" style="fill: none; stroke: #666666; stroke-width: 0.8; stroke-linecap: square"/>
     </g>
     <g id="line2d_10">
      <g>
       <use xlink:href="#mc444e13759" x="344.057143" y="273.6" style="fill: #d4d4d4; stroke: #d4d4d4; stroke-width: 0.8"/>
      </g>
     </g>
     <g id="text_5">
      <!-- 40 -->
      <g style="fill: #d4d4d4" transform="translate(337.694643 288.197656) scale(0.1 -0.1)">
       <defs>
        <path id="DejaVuSans-17" d="M 2419 4116 
L 825 1625 
L 2419 1625 
L 2419 4116 
z
M 2253 4666 
L 3047 4666 
L 3047 1625 
L 3713 1625 
L 3713 1100 
L 3047 1100 
L 3047 0 
L 2419 0 
L 2419 1100 
L 313 1100 
L 313 1709 
L 2253 4666 
z
" transform="scale(0.015625)"/>
       </defs>
       <use xlink:href="#DejaVuSans-17"/>
       <use xlink:href="#DejaVuSans-13" transform="translate(63.625 0)"/>
      </g>
     </g>
    </g>
    <g id="xtick_6">
     <g id="line2d_11">
      <path d="M 405.771429 273.6 
L 405.771429 21.6 
" clip-path="url(#pe251bdca24)" style="fill: none; stroke: #666666; stroke-width: 0.8; stroke-linecap: square"/>
     </g>
     <g id="line2d_12">
      <g>
       <use xlink:href="#mc444e13759" x="405.771429" y="273.6" style="fill: #d4d4d4; stroke: #d4d4d4; stroke-width: 0.8"/>
      </g>
     </g>
     <g id="text_6">
      <!-- 50 -->
      <g style="fill: #d4d4d4" transform="translate(399.408929 288.197656) scale(0.1 -0.1)">
       <defs>
        <path id="DejaVuSans-18" d="M 691 4666 
L 3169 4666 
L 3169 4134 
L 1269 4134 
L 1269 2991 
Q 1406 3038 1543 3061 
Q 1681 3084 1819 3084 
Q 2600 3084 3056 2656 
Q 3513 2228 3513 1497 
Q 3513 744 3044 326 
Q 2575 -91 1722 -91 
Q 1428 -91 1123 -41 
Q 819 9 494 109 
L 494 744 
Q 775 591 1075 516 
Q 1375 441 1709 441 
Q 2250 441 2565 725 
Q 2881 1009 2881 1497 
Q 2881 1984 2565 2268 
Q 2250 2553 1709 2553 
Q 1456 2553 1204 2497 
Q 953 2441 691 2322 
L 691 4666 
z
" transform="scale(0.015625)"/>
       </defs>
       <use xlink:href="#DejaVuSans-18"/>
       <use xlink:href="#DejaVuSans-13" transform="translate(63.625 0)"/>
      </g>
     </g>
    </g>
    <g id="xtick_7">
     <g id="line2d_13">
      <path d="M 467.485714 273.6 
L 467.485714 21.6 
" clip-path="url(#pe251bdca24)" style="fill: none; stroke: #666666; stroke-width: 0.8; stroke-linecap: square"/>
     </g>
     <g id="line2d_14">
      <g>
       <use xlink:href="#mc444e13759" x="467.485714" y="273.6" style="fill: #d4d4d4; stroke: #d4d4d4; stroke-width: 0.8"/>
      </g>
     </g>
     <g id="text_7">
      <!-- 60 -->
      <g style="fill: #d4d4d4" transform="translate(461.123214 288.197656) scale(0.1 -0.1)">
       <defs>
        <path id="DejaVuSans-19" d="M 2113 2584 
Q 1688 2584 1439 2293 
Q 1191 2003 1191 1497 
Q 1191 994 1439 701 
Q 1688 409 2113 409 
Q 2538 409 2786 701 
Q 3034 994 3034 1497 
Q 3034 2003 2786 2293 
Q 2538 2584 2113 2584 
z
M 3366 4563 
L 3366 3988 
Q 3128 4100 2886 4159 
Q 2644 4219 2406 4219 
Q 1781 4219 1451 3797 
Q 1122 3375 1075 2522 
Q 1259 2794 1537 2939 
Q 1816 3084 2150 3084 
Q 2853 3084 3261 2657 
Q 3669 2231 3669 1497 
Q 3669 778 3244 343 
Q 2819 -91 2113 -91 
Q 1303 -91 875 529 
Q 447 1150 447 2328 
Q 447 3434 972 4092 
Q 1497 4750 2381 4750 
Q 2619 4750 2861 4703 
Q 3103 4656 3366 4563 
z
" transform="scale(0.015625)"/>
       </defs>
       <use xlink:href="#DejaVuSans-19"/>
       <use xlink:href="#DejaVuSans-13" transform="translate(63.625 0)"/>
      </g>
     </g>
    </g>
    <g id="xtick_8">
     <g id="line2d_15">
      <path d="M 529.2 273.6 
L 529.2 21.6 
" clip-path="url(#pe251bdca24)" style="fill: none; stroke: #666666; stroke-width: 0.8; stroke-linecap: square"/>
     </g>
     <g id="line2d_16">
      <g>
       <use xlink:href="#mc444e13759" x="529.2" y="273.6" style="fill: #d4d4d4; stroke: #d4d4d4; stroke-width: 0.8"/>
      </g>
     </g>
     <g id="text_8">
      <!-- 70 -->
      <g style="fill: #d4d4d4" transform="translate(522.8375 288.197656) scale(0.1 -0.1)">
       <defs>
        <path id="DejaVuSans-1a" d="M 525 4666 
L 3525 4666 
L 3525 4397 
L 1831 0 
L 1172 0 
L 2766 4134 
L 525 4134 
L 525 4666 
z
" transform="scale(0.015625)"/>
       </defs>
       <use xlink:href="#DejaVuSans-1a"/>
       <use xlink:href="#DejaVuSans-13" transform="translate(63.625 0)"/>
      </g>
     </g>
    </g>
    <g id="text_9">
     <!-- Timestamp (125MHz FPGA clock ticks) -->
     <g style="fill: #d4d4d4" transform="translate(217.164844 302.198437) scale(0.1 -0.1)">
      <defs>
       <path id="DejaVuSans-37" d="M -19 4666 
L 3928 4666 
L 3928 4134 
L 2272 4134 
L 2272 0 
L 1638 0 
L 1638 4134 
L -19 4134 
L -19 4666 
z
" transform="scale(0.015625)"/>
       <path id="DejaVuSans-4c" d="M 603 3500 
L 1178 3500 
L 1178 0 
L 603 0 
L 603 3500 
z
M 603 4863 
L 1178 4863 
L 1178 4134 
L 603 4134 
L 603 4863 
z
" transform="scale(0.015625)"/>
       <path id="DejaVuSans-50" d="M 3328 2828 
Q 3544 3216 3844 3400 
Q 4144 3584 4550 3584 
Q 5097 3584 5394 3201 
Q 5691 2819 5691 2113 
L 5691 0 
L 5113 0 
L 5113 2094 
Q 5113 2597 4934 2840 
Q 4756 3084 4391 3084 
Q 3944 3084 3684 2787 
Q 3425 2491 3425 1978 
L 3425 0 
L 2847 0 
L 2847 2094 
Q 2847 2600 2669 2842 
Q 2491 3084 2119 3084 
Q 1678 3084 1418 2786 
Q 1159 2488 1159 1978 
L 1159 0 
L 581 0 
L 581 3500 
L 1159 3500 
L 1159 2956 
Q 1356 3278 1631 3431 
Q 1906 3584 2284 3584 
Q 2666 3584 2933 3390 
Q 3200 3197 3328 2828 
z
" transform="scale(0.015625)"/>
       <path id="DejaVuSans-48" d="M 3597 1894 
L 3597 1613 
L 953 1613 
Q 991 1019 1311 708 
Q 1631 397 2203 397 
Q 2534 397 2845 478 
Q 3156 559 3463 722 
L 3463 178 
Q 3153 47 2828 -22 
Q 2503 -91 2169 -91 
Q 1331 -91 842 396 
Q 353 884 353 1716 
Q 353 2575 817 3079 
Q 1281 3584 2069 3584 
Q 2775 3584 3186 3129 
Q 3597 2675 3597 1894 
z
M 3022 2063 
Q 3016 2534 2758 2815 
Q 2500 3097 2075 3097 
Q 1594 3097 1305 2825 
Q 1016 2553 972 2059 
L 3022 2063 
z
" transform="scale(0.015625)"/>
       <path id="DejaVuSans-56" d="M 2834 3397 
L 2834 2853 
Q 2591 2978 2328 3040 
Q 2066 3103 1784 3103 
Q 1356 3103 1142 2972 
Q 928 2841 928 2578 
Q 928 2378 1081 2264 
Q 1234 2150 1697 2047 
L 1894 2003 
Q 2506 1872 2764 1633 
Q 3022 1394 3022 966 
Q 3022 478 2636 193 
Q 2250 -91 1575 -91 
Q 1294 -91 989 -36 
Q 684 19 347 128 
L 347 722 
Q 666 556 975 473 
Q 1284 391 1588 391 
Q 1994 391 2212 530 
Q 2431 669 2431 922 
Q 2431 1156 2273 1281 
Q 2116 1406 1581 1522 
L 1381 1569 
Q 847 1681 609 1914 
Q 372 2147 372 2553 
Q 372 3047 722 3315 
Q 1072 3584 1716 3584 
Q 2034 3584 2315 3537 
Q 2597 3491 2834 3397 
z
" transform="scale(0.015625)"/>
       <path id="DejaVuSans-57" d="M 1172 4494 
L 1172 3500 
L 2356 3500 
L 2356 3053 
L 1172 3053 
L 1172 1153 
Q 1172 725 1289 603 
Q 1406 481 1766 481 
L 2356 481 
L 2356 0 
L 1766 0 
Q 1100 0 847 248 
Q 594 497 594 1153 
L 594 3053 
L 172 3053 
L 172 3500 
L 594 3500 
L 594 4494 
L 1172 4494 
z
" transform="scale(0.015625)"/>
       <path id="DejaVuSans-44" d="M 2194 1759 
Q 1497 1759 1228 1600 
Q 959 1441 959 1056 
Q 959 750 1161 570 
Q 1363 391 1709 391 
Q 2188 391 2477 730 
Q 2766 1069 2766 1631 
L 2766 1759 
L 2194 1759 
z
M 3341 1997 
L 3341 0 
L 2766 0 
L 2766 531 
Q 2569 213 2275 61 
Q 1981 -91 1556 -91 
Q 1019 -91 701 211 
Q 384 513 384 1019 
Q 384 1609 779 1909 
Q 1175 2209 1959 2209 
L 2766 2209 
L 2766 2266 
Q 2766 2663 2505 2880 
Q 2244 3097 1772 3097 
Q 1472 3097 1187 3025 
Q 903 2953 641 2809 
L 641 3341 
Q 956 3463 1253 3523 
Q 1550 3584 1831 3584 
Q 2591 3584 2966 3190 
Q 3341 2797 3341 1997 
z
" transform="scale(0.015625)"/>
       <path id="DejaVuSans-53" d="M 1159 525 
L 1159 -1331 
L 581 -1331 
L 581 3500 
L 1159 3500 
L 1159 2969 
Q 1341 3281 1617 3432 
Q 1894 3584 2278 3584 
Q 2916 3584 3314 3078 
Q 3713 2572 3713 1747 
Q 3713 922 3314 415 
Q 2916 -91 2278 -91 
Q 1894 -91 1617 61 
Q 1341 213 1159 525 
z
M 3116 1747 
Q 3116 2381 2855 2742 
Q 2594 3103 2138 3103 
Q 1681 3103 1420 2742 
Q 1159 2381 1159 1747 
Q 1159 1113 1420 752 
Q 1681 391 2138 391 
Q 2594 391 2855 752 
Q 3116 1113 3116 1747 
z
" transform="scale(0.015625)"/>
       <path id="DejaVuSans-3" transform="scale(0.015625)"/>
       <path id="DejaVuSans-b" d="M 1984 4856 
Q 1566 4138 1362 3434 
Q 1159 2731 1159 2009 
Q 1159 1288 1364 580 
Q 1569 -128 1984 -844 
L 1484 -844 
Q 1016 -109 783 600 
Q 550 1309 550 2009 
Q 550 2706 781 3412 
Q 1013 4119 1484 4856 
L 1984 4856 
z
" transform="scale(0.015625)"/>
       <path id="DejaVuSans-30" d="M 628 4666 
L 1569 4666 
L 2759 1491 
L 3956 4666 
L 4897 4666 
L 4897 0 
L 4281 0 
L 4281 4097 
L 3078 897 
L 2444 897 
L 1241 4097 
L 1241 0 
L 628 0 
L 628 4666 
z
" transform="scale(0.015625)"/>
       <path id="DejaVuSans-2b" d="M 628 4666 
L 1259 4666 
L 1259 2753 
L 3553 2753 
L 3553 4666 
L 4184 4666 
L 4184 0 
L 3553 0 
L 3553 2222 
L 1259 2222 
L 1259 0 
L 628 0 
L 628 4666 
z
" transform="scale(0.015625)"/>
       <path id="DejaVuSans-5d" d="M 353 3500 
L 3084 3500 
L 3084 2975 
L 922 459 
L 3084 459 
L 3084 0 
L 275 0 
L 275 525 
L 2438 3041 
L 353 3041 
L 353 3500 
z
" transform="scale(0.015625)"/>
       <path id="DejaVuSans-29" d="M 628 4666 
L 3309 4666 
L 3309 4134 
L 1259 4134 
L 1259 2759 
L 3109 2759 
L 3109 2228 
L 1259 2228 
L 1259 0 
L 628 0 
L 628 4666 
z
" transform="scale(0.015625)"/>
       <path id="DejaVuSans-33" d="M 1259 4147 
L 1259 2394 
L 2053 2394 
Q 2494 2394 2734 2622 
Q 2975 2850 2975 3272 
Q 2975 3691 2734 3919 
Q 2494 4147 2053 4147 
L 1259 4147 
z
M 628 4666 
L 2053 4666 
Q 2838 4666 3239 4311 
Q 3641 3956 3641 3272 
Q 3641 2581 3239 2228 
Q 2838 1875 2053 1875 
L 1259 1875 
L 1259 0 
L 628 0 
L 628 4666 
z
" transform="scale(0.015625)"/>
       <path id="DejaVuSans-2a" d="M 3809 666 
L 3809 1919 
L 2778 1919 
L 2778 2438 
L 4434 2438 
L 4434 434 
Q 4069 175 3628 42 
Q 3188 -91 2688 -91 
Q 1594 -91 976 548 
Q 359 1188 359 2328 
Q 359 3472 976 4111 
Q 1594 4750 2688 4750 
Q 3144 4750 3555 4637 
Q 3966 4525 4313 4306 
L 4313 3634 
Q 3963 3931 3569 4081 
Q 3175 4231 2741 4231 
Q 1884 4231 1454 3753 
Q 1025 3275 1025 2328 
Q 1025 1384 1454 906 
Q 1884 428 2741 428 
Q 3075 428 3337 486 
Q 3600 544 3809 666 
z
" transform="scale(0.015625)"/>
       <path id="DejaVuSans-24" d="M 2188 4044 
L 1331 1722 
L 3047 1722 
L 2188 4044 
z
M 1831 4666 
L 2547 4666 
L 4325 0 
L 3669 0 
L 3244 1197 
L 1141 1197 
L 716 0 
L 50 0 
L 1831 4666 
z
" transform="scale(0.015625)"/>
       <path id="DejaVuSans-46" d="M 3122 3366 
L 3122 2828 
Q 2878 2963 2633 3030 
Q 2388 3097 2138 3097 
Q 1578 3097 1268 2742 
Q 959 2388 959 1747 
Q 959 1106 1268 751 
Q 1578 397 2138 397 
Q 2388 397 2633 464 
Q 2878 531 3122 666 
L 3122 134 
Q 2881 22 2623 -34 
Q 2366 -91 2075 -91 
Q 1284 -91 818 406 
Q 353 903 353 1747 
Q 353 2603 823 3093 
Q 1294 3584 2113 3584 
Q 2378 3584 2631 3529 
Q 2884 3475 3122 3366 
z
" transform="scale(0.015625)"/>
       <path id="DejaVuSans-4f" d="M 603 4863 
L 1178 4863 
L 1178 0 
L 603 0 
L 603 4863 
z
" transform="scale(0.015625)"/>
       <path id="DejaVuSans-52" d="M 1959 3097 
Q 1497 3097 1228 2736 
Q 959 2375 959 1747 
Q 959 1119 1226 758 
Q 1494 397 1959 397 
Q 2419 397 2687 759 
Q 2956 1122 2956 1747 
Q 2956 2369 2687 2733 
Q 2419 3097 1959 3097 
z
M 1959 3584 
Q 2709 3584 3137 3096 
Q 3566 2609 3566 1747 
Q 3566 888 3137 398 
Q 2709 -91 1959 -91 
Q 1206 -91 779 398 
Q 353 888 353 1747 
Q 353 2609 779 3096 
Q 1206 3584 1959 3584 
z
" transform="scale(0.015625)"/>
       <path id="DejaVuSans-4e" d="M 581 4863 
L 1159 4863 
L 1159 1991 
L 2875 3500 
L 3609 3500 
L 1753 1863 
L 3688 0 
L 2938 0 
L 1159 1709 
L 1159 0 
L 581 0 
L 581 4863 
z
" transform="scale(0.015625)"/>
       <path id="DejaVuSans-c" d="M 513 4856 
L 1013 4856 
Q 1481 4119 1714 3412 
Q 1947 2706 1947 2009 
Q 1947 1309 1714 600 
Q 1481 -109 1013 -844 
L 513 -844 
Q 928 -128 1133 580 
Q 1338 1288 1338 2009 
Q 1338 2731 1133 3434 
Q 928 4138 513 4856 
z
" transform="scale(0.015625)"/>
      </defs>
      <use xlink:href="#DejaVuSans-37"/>
      <use xlink:href="#DejaVuSans-4c" transform="translate(58 0)"/>
      <use xlink:href="#DejaVuSans-50" transform="translate(85.78125 0)"/>
      <use xlink:href="#DejaVuSans-48" transform="translate(183.1875 0)"/>
      <use xlink:href="#DejaVuSans-56" transform="translate(244.71875 0)"/>
      <use xlink:href="#DejaVuSans-57" transform="translate(296.8125 0)"/>
      <use xlink:href="#DejaVuSans-44" transform="translate(336.015625 0)"/>
      <use xlink:href="#DejaVuSans-50" transform="translate(397.296875 0)"/>
      <use xlink:href="#DejaVuSans-53" transform="translate(494.703125 0)"/>
      <use xlink:href="#DejaVuSans-3" transform="translate(558.1875 0)"/>
      <use xlink:href="#DejaVuSans-b" transform="translate(589.96875 0)"/>
      <use xlink:href="#DejaVuSans-14" transform="translate(628.984375 0)"/>
      <use xlink:href="#DejaVuSans-15" transform="translate(692.609375 0)"/>
      <use xlink:href="#DejaVuSans-18" transform="translate(756.234375 0)"/>
      <use xlink:href="#DejaVuSans-30" transform="translate(819.859375 0)"/>
      <use xlink:href="#DejaVuSans-2b" transform="translate(906.140625 0)"/>
      <use xlink:href="#DejaVuSans-5d" transform="translate(981.34375 0)"/>
      <use xlink:href="#DejaVuSans-3" transform="translate(1033.828125 0)"/>
      <use xlink:href="#DejaVuSans-29" transform="translate(1065.609375 0)"/>
      <use xlink:href="#DejaVuSans-33" transform="translate(1123.125 0)"/>
      <use xlink:href="#DejaVuSans-2a" transform="translate(1183.421875 0)"/>
      <use xlink:href="#DejaVuSans-24" transform="translate(1260.90625 0)"/>
      <use xlink:href="#DejaVuSans-3" transform="translate(1329.3125 0)"/>
      <use xlink:href="#DejaVuSans-46" transform="translate(1361.09375 0)"/>
      <use xlink:href="#DejaVuSans-4f" transform="translate(1416.078125 0)"/>
      <use xlink:href="#DejaVuSans-52" transform="translate(1443.859375 0)"/>
      <use xlink:href="#DejaVuSans-46" transform="translate(1505.046875 0)"/>
      <use xlink:href="#DejaVuSans-4e" transform="translate(1560.03125 0)"/>
      <use xlink:href="#DejaVuSans-3" transform="translate(1617.9375 0)"/>
      <use xlink:href="#DejaVuSans-57" transform="translate(1649.71875 0)"/>
      <use xlink:href="#DejaVuSans-4c" transform="translate(1688.921875 0)"/>
      <use xlink:href="#DejaVuSans-46" transform="translate(1716.703125 0)"/>
      <use xlink:href="#DejaVuSans-4e" transform="translate(1771.6875 0)"/>
      <use xlink:href="#DejaVuSans-56" transform="translate(1829.59375 0)"/>
      <use xlink:href="#DejaVuSans-c" transform="translate(1881.6875 0)"/>
     </g>
    </g>
   </g>
   <g id="matplotlib.axis_2"/>
   <g id="line2d_17">
    <path d="M 97.2 30.289655 
L 112.258286 30.289655 
L 119.170286 51.144828 
L 529.2 51.144828 
" clip-path="url(#pe251bdca24)" style="fill: none; stroke: #1f77b4; stroke-width: 1.5; stroke-linecap: square"/>
   </g>
   <g id="line2d_18">
    <path d="M 97.2 51.144828 
L 112.258286 51.144828 
L 119.170286 30.289655 
L 529.2 30.289655 
" clip-path="url(#pe251bdca24)" style="fill: none; stroke: #1f77b4; stroke-width: 1.5; stroke-linecap: square"/>
   </g>
   <g id="line2d_19">
    <path d="M 97.2 59.834483 
L 124.601143 59.834483 
L 131.513143 80.689655 
L 529.2 80.689655 
" clip-path="url(#pe251bdca24)" style="fill: none; stroke: #ff7f0e; stroke-width: 1.5; stroke-linecap: square"/>
   </g>
   <g id="line2d_20">
    <path d="M 97.2 80.689655 
L 124.601143 80.689655 
L 131.513143 59.834483 
L 529.2 59.834483 
" clip-path="url(#pe251bdca24)" style="fill: none; stroke: #ff7f0e; stroke-width: 1.5; stroke-linecap: square"/>
   </g>
   <g id="line2d_21">
    <path d="M 97.2 89.37931 
L 217.172571 89.37931 
L 224.084571 110.234483 
L 529.2 110.234483 
" clip-path="url(#pe251bdca24)" style="fill: none; stroke: #2ca02c; stroke-width: 1.5; stroke-linecap: square"/>
   </g>
   <g id="line2d_22">
    <path d="M 97.2 110.234483 
L 217.172571 110.234483 
L 224.084571 89.37931 
L 529.2 89.37931 
" clip-path="url(#pe251bdca24)" style="fill: none; stroke: #2ca02c; stroke-width: 1.5; stroke-linecap: square"/>
   </g>
   <g id="line2d_23">
    <path d="M 97.2 153.682759 
L 239.142857 153.682759 
L 239.142857 118.924138 
L 245.314286 118.924138 
L 245.314286 153.682759 
L 251.485714 153.682759 
L 251.485714 118.924138 
L 257.657143 118.924138 
L 257.657143 153.682759 
L 263.828571 153.682759 
L 263.828571 118.924138 
L 270 118.924138 
L 270 153.682759 
L 276.171429 153.682759 
L 276.171429 118.924138 
L 282.342857 118.924138 
L 282.342857 153.682759 
L 288.514286 153.682759 
L 288.514286 118.924138 
L 294.685714 118.924138 
L 294.685714 153.682759 
L 300.857143 153.682759 
L 300.857143 118.924138 
L 307.028571 118.924138 
L 307.028571 153.682759 
L 313.2 153.682759 
L 313.2 118.924138 
L 319.371429 118.924138 
L 319.371429 153.682759 
L 325.542857 153.682759 
L 325.542857 118.924138 
L 331.714286 118.924138 
L 331.714286 153.682759 
L 337.885714 153.682759 
L 337.885714 118.924138 
L 344.057143 118.924138 
L 344.057143 153.682759 
L 350.228571 153.682759 
L 350.228571 118.924138 
L 356.4 118.924138 
L 356.4 153.682759 
L 362.571429 153.682759 
L 362.571429 118.924138 
L 368.742857 118.924138 
L 368.742857 153.682759 
L 374.914286 153.682759 
L 374.914286 118.924138 
L 381.085714 118.924138 
L 381.085714 153.682759 
L 387.257143 153.682759 
L 387.257143 118.924138 
L 393.428571 118.924138 
L 393.428571 153.682759 
L 399.6 153.682759 
L 399.6 118.924138 
L 405.771429 118.924138 
L 405.771429 153.682759 
L 411.942857 153.682759 
L 411.942857 118.924138 
L 418.114286 118.924138 
L 418.114286 153.682759 
L 424.285714 153.682759 
L 424.285714 118.924138 
L 430.457143 118.924138 
L 430.457143 153.682759 
L 436.628571 153.682759 
L 436.628571 118.924138 
L 442.8 118.924138 
L 442.8 153.682759 
L 448.971429 153.682759 
L 448.971429 118.924138 
L 455.142857 118.924138 
L 455.142857 153.682759 
L 461.314286 153.682759 
L 461.314286 118.924138 
L 467.485714 118.924138 
L 467.485714 153.682759 
L 473.657143 153.682759 
L 473.657143 118.924138 
L 479.828571 118.924138 
L 479.828571 153.682759 
L 486 153.682759 
L 486 118.924138 
L 492.171429 118.924138 
L 492.171429 153.682759 
L 529.2 153.682759 
" clip-path="url(#pe251bdca24)" style="fill: none; stroke: #d62728; stroke-width: 2; stroke-linecap: square"/>
   </g>
   <g id="line2d_24">
    <path d="M 97.2 162.372414 
L 529.2 162.372414 
" clip-path="url(#pe251bdca24)" style="fill: none; stroke-dasharray: 5.55,2.4; stroke-dashoffset: 0; stroke: #d4d4d4; stroke-width: 1.5"/>
   </g>
   <g id="line2d_25">
    <path d="M 97.2 205.82069 
L 226.8 205.82069 
L 226.8 171.062069 
L 479.828571 171.062069 
L 479.828571 205.82069 
L 529.2 205.82069 
" clip-path="url(#pe251bdca24)" style="fill: none; stroke: #9467bd; stroke-width: 2; stroke-linecap: square"/>
   </g>
   <g id="line2d_26">
    <path d="M 97.2 214.510345 
L 180.144 214.510345 
L 187.056 235.365517 
L 223.344 235.365517 
L 230.256 214.510345 
L 476.372571 214.510345 
L 483.284571 235.365517 
L 529.2 235.365517 
" clip-path="url(#pe251bdca24)" style="fill: none; stroke: #8c564b; stroke-width: 1.5; stroke-linecap: square"/>
   </g>
   <g id="line2d_27">
    <path d="M 97.2 235.365517 
L 180.144 235.365517 
L 187.056 214.510345 
L 223.344 214.510345 
L 230.256 235.365517 
L 476.372571 235.365517 
L 483.284571 214.510345 
L 529.2 214.510345 
" clip-path="url(#pe251bdca24)" style="fill: none; stroke: #8c564b; stroke-width: 1.5; stroke-linecap: square"/>
   </g>
   <g id="line2d_28">
    <path d="M 97.2 244.055172 
L 241.858286 244.055172 
L 248.770286 264.910345 
L 254.201143 264.910345 
L 261.113143 244.055172 
L 266.544 244.055172 
L 273.456 264.910345 
L 278.886857 264.910345 
L 285.798857 244.055172 
L 291.229714 244.055172 
L 298.141714 264.910345 
L 303.572571 264.910345 
L 310.484571 244.055172 
L 315.915429 244.055172 
L 322.827429 264.910345 
L 328.258286 264.910345 
L 335.170286 244.055172 
L 340.601143 244.055172 
L 347.513143 264.910345 
L 352.944 264.910345 
L 359.856 244.055172 
L 365.286857 244.055172 
L 372.198857 264.910345 
L 377.629714 264.910345 
L 384.541714 244.055172 
L 389.972571 244.055172 
L 396.884571 264.910345 
L 402.315429 264.910345 
L 409.227429 244.055172 
L 414.658286 244.055172 
L 421.570286 264.910345 
L 427.001143 264.910345 
L 433.913143 244.055172 
L 439.344 244.055172 
L 446.256 264.910345 
L 451.686857 264.910345 
L 458.598857 244.055172 
L 464.029714 244.055172 
L 470.941714 264.910345 
L 476.372571 264.910345 
L 483.284571 244.055172 
L 529.2 244.055172 
" clip-path="url(#pe251bdca24)" style="fill: none; stroke: #e377c2; stroke-width: 1.5; stroke-linecap: square"/>
   </g>
   <g id="line2d_29">
    <path d="M 97.2 264.910345 
L 241.858286 264.910345 
L 248.770286 244.055172 
L 254.201143 244.055172 
L 261.113143 264.910345 
L 266.544 264.910345 
L 273.456 244.055172 
L 278.886857 244.055172 
L 285.798857 264.910345 
L 291.229714 264.910345 
L 298.141714 244.055172 
L 303.572571 244.055172 
L 310.484571 264.910345 
L 315.915429 264.910345 
L 322.827429 244.055172 
L 328.258286 244.055172 
L 335.170286 264.910345 
L 340.601143 264.910345 
L 347.513143 244.055172 
L 352.944 244.055172 
L 359.856 264.910345 
L 365.286857 264.910345 
L 372.198857 244.055172 
L 377.629714 244.055172 
L 384.541714 264.910345 
L 389.972571 264.910345 
L 396.884571 244.055172 
L 402.315429 244.055172 
L 409.227429 264.910345 
L 414.658286 264.910345 
L 421.570286 244.055172 
L 427.001143 244.055172 
L 433.913143 264.910345 
L 439.344 264.910345 
L 446.256 244.055172 
L 451.686857 244.055172 
L 458.598857 264.910345 
L 464.029714 264.910345 
L 470.941714 244.055172 
L 476.372571 244.055172 
L 483.284571 264.910345 
L 529.2 264.910345 
" clip-path="url(#pe251bdca24)" style="fill: none; stroke: #e377c2; stroke-width: 1.5; stroke-linecap: square"/>
   </g>
   <g id="patch_3">
    <path d="M 97.2 273.6 
L 97.2 21.6 
" style="fill: none; stroke: #d4d4d4; stroke-width: 0.8; stroke-linejoin: miter; stroke-linecap: square"/>
   </g>
   <g id="patch_4">
    <path d="M 529.2 273.6 
L 529.2 21.6 
" style="fill: none; stroke: #d4d4d4; stroke-width: 0.8; stroke-linejoin: miter; stroke-linecap: square"/>
   </g>
   <g id="patch_5">
    <path d="M 97.2 273.6 
L 529.2 273.6 
" style="fill: none; stroke: #d4d4d4; stroke-width: 0.8; stroke-linejoin: miter; stroke-linecap: square"/>
   </g>
   <g id="patch_6">
    <path d="M 97.2 21.6 
L 529.2 21.6 
" style="fill: none; stroke: #d4d4d4; stroke-width: 0.8; stroke-linejoin: miter; stroke-linecap: square"/>
   </g>
   <g id="text_10">
    <!-- 2 -->
    <g style="fill: #ffffff" transform="translate(119.170286 43.314898) scale(0.1 -0.1)">
     <use xlink:href="#DejaVuSans-15"/>
    </g>
   </g>
   <g id="text_11">
    <!-- REPEATS -->
    <g style="fill: #d4d4d4" transform="translate(49.608062 43.314898) scale(0.1 -0.1)">
     <defs>
      <path id="DejaVuSans-35" d="M 2841 2188 
Q 3044 2119 3236 1894 
Q 3428 1669 3622 1275 
L 4263 0 
L 3584 0 
L 2988 1197 
Q 2756 1666 2539 1819 
Q 2322 1972 1947 1972 
L 1259 1972 
L 1259 0 
L 628 0 
L 628 4666 
L 2053 4666 
Q 2853 4666 3247 4331 
Q 3641 3997 3641 3322 
Q 3641 2881 3436 2590 
Q 3231 2300 2841 2188 
z
M 1259 4147 
L 1259 2491 
L 2053 2491 
Q 2509 2491 2742 2702 
Q 2975 2913 2975 3322 
Q 2975 3731 2742 3939 
Q 2509 4147 2053 4147 
L 1259 4147 
z
" transform="scale(0.015625)"/>
      <path id="DejaVuSans-28" d="M 628 4666 
L 3578 4666 
L 3578 4134 
L 1259 4134 
L 1259 2753 
L 3481 2753 
L 3481 2222 
L 1259 2222 
L 1259 531 
L 3634 531 
L 3634 0 
L 628 0 
L 628 4666 
z
" transform="scale(0.015625)"/>
      <path id="DejaVuSans-36" d="M 3425 4513 
L 3425 3897 
Q 3066 4069 2747 4153 
Q 2428 4238 2131 4238 
Q 1616 4238 1336 4038 
Q 1056 3838 1056 3469 
Q 1056 3159 1242 3001 
Q 1428 2844 1947 2747 
L 2328 2669 
Q 3034 2534 3370 2195 
Q 3706 1856 3706 1288 
Q 3706 609 3251 259 
Q 2797 -91 1919 -91 
Q 1588 -91 1214 -16 
Q 841 59 441 206 
L 441 856 
Q 825 641 1194 531 
Q 1563 422 1919 422 
Q 2459 422 2753 634 
Q 3047 847 3047 1241 
Q 3047 1584 2836 1778 
Q 2625 1972 2144 2069 
L 1759 2144 
Q 1053 2284 737 2584 
Q 422 2884 422 3419 
Q 422 4038 858 4394 
Q 1294 4750 2059 4750 
Q 2388 4750 2728 4690 
Q 3069 4631 3425 4513 
z
" transform="scale(0.015625)"/>
     </defs>
     <use xlink:href="#DejaVuSans-35"/>
     <use xlink:href="#DejaVuSans-28" transform="translate(69.484375 0)"/>
     <use xlink:href="#DejaVuSans-33" transform="translate(132.671875 0)"/>
     <use xlink:href="#DejaVuSans-28" transform="translate(192.96875 0)"/>
     <use xlink:href="#DejaVuSans-24" transform="translate(256.15625 0)"/>
     <use xlink:href="#DejaVuSans-37" transform="translate(316.796875 0)"/>
     <use xlink:href="#DejaVuSans-36" transform="translate(377.875 0)"/>
    </g>
   </g>
   <g id="text_12">
    <!-- T1 -->
    <g style="fill: #ffffff" transform="translate(131.513143 72.859725) scale(0.1 -0.1)">
     <use xlink:href="#DejaVuSans-37"/>
     <use xlink:href="#DejaVuSans-14" transform="translate(61.078125 0)"/>
    </g>
   </g>
   <g id="text_13">
    <!-- TABLE -->
    <g style="fill: #d4d4d4" transform="translate(62.820562 72.859725) scale(0.1 -0.1)">
     <defs>
      <path id="DejaVuSans-25" d="M 1259 2228 
L 1259 519 
L 2272 519 
Q 2781 519 3026 730 
Q 3272 941 3272 1375 
Q 3272 1813 3026 2020 
Q 2781 2228 2272 2228 
L 1259 2228 
z
M 1259 4147 
L 1259 2741 
L 2194 2741 
Q 2656 2741 2882 2914 
Q 3109 3088 3109 3444 
Q 3109 3797 2882 3972 
Q 2656 4147 2194 4147 
L 1259 4147 
z
M 628 4666 
L 2241 4666 
Q 2963 4666 3353 4366 
Q 3744 4066 3744 3513 
Q 3744 3084 3544 2831 
Q 3344 2578 2956 2516 
Q 3422 2416 3680 2098 
Q 3938 1781 3938 1306 
Q 3938 681 3513 340 
Q 3088 0 2303 0 
L 628 0 
L 628 4666 
z
" transform="scale(0.015625)"/>
      <path id="DejaVuSans-2f" d="M 628 4666 
L 1259 4666 
L 1259 531 
L 3531 531 
L 3531 0 
L 628 0 
L 628 4666 
z
" transform="scale(0.015625)"/>
     </defs>
     <use xlink:href="#DejaVuSans-37"/>
     <use xlink:href="#DejaVuSans-24" transform="translate(53.3125 0)"/>
     <use xlink:href="#DejaVuSans-25" transform="translate(121.71875 0)"/>
     <use xlink:href="#DejaVuSans-2f" transform="translate(190.328125 0)"/>
     <use xlink:href="#DejaVuSans-28" transform="translate(246.046875 0)"/>
    </g>
   </g>
   <g id="text_14">
    <!-- 1 -->
    <g style="fill: #ffffff" transform="translate(224.084571 102.404553) scale(0.1 -0.1)">
     <use xlink:href="#DejaVuSans-14"/>
    </g>
   </g>
   <g id="text_15">
    <!-- ENABLE -->
    <g style="fill: #d4d4d4" transform="translate(54.351812 102.404553) scale(0.1 -0.1)">
     <defs>
      <path id="DejaVuSans-31" d="M 628 4666 
L 1478 4666 
L 3547 763 
L 3547 4666 
L 4159 4666 
L 4159 0 
L 3309 0 
L 1241 3903 
L 1241 0 
L 628 0 
L 628 4666 
z
" transform="scale(0.015625)"/>
     </defs>
     <use xlink:href="#DejaVuSans-28"/>
     <use xlink:href="#DejaVuSans-31" transform="translate(63.1875 0)"/>
     <use xlink:href="#DejaVuSans-24" transform="translate(138 0)"/>
     <use xlink:href="#DejaVuSans-25" transform="translate(206.40625 0)"/>
     <use xlink:href="#DejaVuSans-2f" transform="translate(275.015625 0)"/>
     <use xlink:href="#DejaVuSans-28" transform="translate(330.734375 0)"/>
    </g>
   </g>
   <g id="text_16">
    <!-- TRIG -->
    <g style="fill: #d4d4d4" transform="translate(69.989312 138.901105) scale(0.1 -0.1)">
     <defs>
      <path id="DejaVuSans-2c" d="M 628 4666 
L 1259 4666 
L 1259 0 
L 628 0 
L 628 4666 
z
" transform="scale(0.015625)"/>
     </defs>
     <use xlink:href="#DejaVuSans-37"/>
     <use xlink:href="#DejaVuSans-35" transform="translate(61.078125 0)"/>
     <use xlink:href="#DejaVuSans-2c" transform="translate(130.5625 0)"/>
     <use xlink:href="#DejaVuSans-2a" transform="translate(160.0625 0)"/>
    </g>
   </g>
   <g id="text_17">
    <!-- ACTIVE -->
    <g style="fill: #d4d4d4" transform="translate(57.878375 191.039036) scale(0.1 -0.1)">
     <defs>
      <path id="DejaVuSans-26" d="M 4122 4306 
L 4122 3641 
Q 3803 3938 3442 4084 
Q 3081 4231 2675 4231 
Q 1875 4231 1450 3742 
Q 1025 3253 1025 2328 
Q 1025 1406 1450 917 
Q 1875 428 2675 428 
Q 3081 428 3442 575 
Q 3803 722 4122 1019 
L 4122 359 
Q 3791 134 3420 21 
Q 3050 -91 2638 -91 
Q 1578 -91 968 557 
Q 359 1206 359 2328 
Q 359 3453 968 4101 
Q 1578 4750 2638 4750 
Q 3056 4750 3426 4639 
Q 3797 4528 4122 4306 
z
" transform="scale(0.015625)"/>
      <path id="DejaVuSans-39" d="M 1831 0 
L 50 4666 
L 709 4666 
L 2188 738 
L 3669 4666 
L 4325 4666 
L 2547 0 
L 1831 0 
z
" transform="scale(0.015625)"/>
     </defs>
     <use xlink:href="#DejaVuSans-24"/>
     <use xlink:href="#DejaVuSans-26" transform="translate(66.65625 0)"/>
     <use xlink:href="#DejaVuSans-37" transform="translate(136.484375 0)"/>
     <use xlink:href="#DejaVuSans-2c" transform="translate(197.5625 0)"/>
     <use xlink:href="#DejaVuSans-39" transform="translate(227.0625 0)"/>
     <use xlink:href="#DejaVuSans-28" transform="translate(295.46875 0)"/>
    </g>
   </g>
   <g id="text_18">
    <!-- 1 -->
    <g style="fill: #ffffff" transform="translate(187.056 227.535587) scale(0.1 -0.1)">
     <use xlink:href="#DejaVuSans-14"/>
    </g>
   </g>
   <g id="text_19">
    <!-- 2 -->
    <g style="fill: #ffffff" transform="translate(230.256 227.535587) scale(0.1 -0.1)">
     <use xlink:href="#DejaVuSans-15"/>
    </g>
   </g>
   <g id="text_20">
    <!-- 1 -->
    <g style="fill: #ffffff" transform="translate(483.284571 227.535587) scale(0.1 -0.1)">
     <use xlink:href="#DejaVuSans-14"/>
    </g>
   </g>
   <g id="text_21">
    <!-- STATE -->
    <g style="fill: #d4d4d4" transform="translate(63.573687 227.535587) scale(0.1 -0.1)">
     <use xlink:href="#DejaVuSans-36"/>
     <use xlink:href="#DejaVuSans-37" transform="translate(63.484375 0)"/>
     <use xlink:href="#DejaVuSans-24" transform="translate(116.796875 0)"/>
     <use xlink:href="#DejaVuSans-37" transform="translate(177.4375 0)"/>
     <use xlink:href="#DejaVuSans-28" transform="translate(238.515625 0)"/>
    </g>
   </g>
   <g id="text_22">
    <!-- 10 -->
    <g style="fill: #ffffff" transform="translate(248.770286 257.080415) scale(0.1 -0.1)">
     <use xlink:href="#DejaVuSans-14"/>
     <use xlink:href="#DejaVuSans-13" transform="translate(63.625 0)"/>
    </g>
   </g>
   <g id="text_23">
    <!-- 11 -->
    <g style="fill: #ffffff" transform="translate(261.113143 257.080415) scale(0.1 -0.1)">
     <use xlink:href="#DejaVuSans-14"/>
     <use xlink:href="#DejaVuSans-14" transform="translate(63.625 0)"/>
    </g>
   </g>
   <g id="text_24">
    <!-- 12 -->
    <g style="fill: #ffffff" transform="translate(273.456 257.080415) scale(0.1 -0.1)">
     <use xlink:href="#DejaVuSans-14"/>
     <use xlink:href="#DejaVuSans-15" transform="translate(63.625 0)"/>
    </g>
   </g>
   <g id="text_25">
    <!-- 13 -->
    <g style="fill: #ffffff" transform="translate(285.798857 257.080415) scale(0.1 -0.1)">
     <use xlink:href="#DejaVuSans-14"/>
     <use xlink:href="#DejaVuSans-16" transform="translate(63.625 0)"/>
    </g>
   </g>
   <g id="text_26">
    <!-- 14 -->
    <g style="fill: #ffffff" transform="translate(298.141714 257.080415) scale(0.1 -0.1)">
     <use xlink:href="#DejaVuSans-14"/>
     <use xlink:href="#DejaVuSans-17" transform="translate(63.625 0)"/>
    </g>
   </g>
   <g id="text_27">
    <!-- 15 -->
    <g style="fill: #ffffff" transform="translate(310.484571 257.080415) scale(0.1 -0.1)">
     <use xlink:href="#DejaVuSans-14"/>
     <use xlink:href="#DejaVuSans-18" transform="translate(63.625 0)"/>
    </g>
   </g>
   <g id="text_28">
    <!-- 16 -->
    <g style="fill: #ffffff" transform="translate(322.827429 257.080415) scale(0.1 -0.1)">
     <use xlink:href="#DejaVuSans-14"/>
     <use xlink:href="#DejaVuSans-19" transform="translate(63.625 0)"/>
    </g>
   </g>
   <g id="text_29">
    <!-- 21 -->
    <g style="fill: #ffffff" transform="translate(335.170286 257.080415) scale(0.1 -0.1)">
     <use xlink:href="#DejaVuSans-15"/>
     <use xlink:href="#DejaVuSans-14" transform="translate(63.625 0)"/>
    </g>
   </g>
   <g id="text_30">
    <!-- 52 -->
    <g style="fill: #ffffff" transform="translate(347.513143 257.080415) scale(0.1 -0.1)">
     <use xlink:href="#DejaVuSans-18"/>
     <use xlink:href="#DejaVuSans-15" transform="translate(63.625 0)"/>
    </g>
   </g>
   <g id="text_31">
    <!-- 32 -->
    <g style="fill: #ffffff" transform="translate(359.856 257.080415) scale(0.1 -0.1)">
     <use xlink:href="#DejaVuSans-16"/>
     <use xlink:href="#DejaVuSans-15" transform="translate(63.625 0)"/>
    </g>
   </g>
   <g id="text_32">
    <!-- 10 -->
    <g style="fill: #ffffff" transform="translate(372.198857 257.080415) scale(0.1 -0.1)">
     <use xlink:href="#DejaVuSans-14"/>
     <use xlink:href="#DejaVuSans-13" transform="translate(63.625 0)"/>
    </g>
   </g>
   <g id="text_33">
    <!-- 11 -->
    <g style="fill: #ffffff" transform="translate(384.541714 257.080415) scale(0.1 -0.1)">
     <use xlink:href="#DejaVuSans-14"/>
     <use xlink:href="#DejaVuSans-14" transform="translate(63.625 0)"/>
    </g>
   </g>
   <g id="text_34">
    <!-- 12 -->
    <g style="fill: #ffffff" transform="translate(396.884571 257.080415) scale(0.1 -0.1)">
     <use xlink:href="#DejaVuSans-14"/>
     <use xlink:href="#DejaVuSans-15" transform="translate(63.625 0)"/>
    </g>
   </g>
   <g id="text_35">
    <!-- 13 -->
    <g style="fill: #ffffff" transform="translate(409.227429 257.080415) scale(0.1 -0.1)">
     <use xlink:href="#DejaVuSans-14"/>
     <use xlink:href="#DejaVuSans-16" transform="translate(63.625 0)"/>
    </g>
   </g>
   <g id="text_36">
    <!-- 14 -->
    <g style="fill: #ffffff" transform="translate(421.570286 257.080415) scale(0.1 -0.1)">
     <use xlink:href="#DejaVuSans-14"/>
     <use xlink:href="#DejaVuSans-17" transform="translate(63.625 0)"/>
    </g>
   </g>
   <g id="text_37">
    <!-- 15 -->
    <g style="fill: #ffffff" transform="translate(433.913143 257.080415) scale(0.1 -0.1)">
     <use xlink:href="#DejaVuSans-14"/>
     <use xlink:href="#DejaVuSans-18" transform="translate(63.625 0)"/>
    </g>
   </g>
   <g id="text_38">
    <!-- 16 -->
    <g style="fill: #ffffff" transform="translate(446.256 257.080415) scale(0.1 -0.1)">
     <use xlink:href="#DejaVuSans-14"/>
     <use xlink:href="#DejaVuSans-19" transform="translate(63.625 0)"/>
    </g>
   </g>
   <g id="text_39">
    <!-- 21 -->
    <g style="fill: #ffffff" transform="translate(458.598857 257.080415) scale(0.1 -0.1)">
     <use xlink:href="#DejaVuSans-15"/>
     <use xlink:href="#DejaVuSans-14" transform="translate(63.625 0)"/>
    </g>
   </g>
   <g id="text_40">
    <!-- 52 -->
    <g style="fill: #ffffff" transform="translate(470.941714 257.080415) scale(0.1 -0.1)">
     <use xlink:href="#DejaVuSans-18"/>
     <use xlink:href="#DejaVuSans-15" transform="translate(63.625 0)"/>
    </g>
   </g>
   <g id="text_41">
    <!-- 32 -->
    <g style="fill: #ffffff" transform="translate(483.284571 257.080415) scale(0.1 -0.1)">
     <use xlink:href="#DejaVuSans-16"/>
     <use xlink:href="#DejaVuSans-15" transform="translate(63.625 0)"/>
    </g>
   </g>
   <g id="text_42">
    <!-- OUT -->
    <g style="fill: #d4d4d4" transform="translate(72.445562 257.080415) scale(0.1 -0.1)">
     <defs>
      <path id="DejaVuSans-32" d="M 2522 4238 
Q 1834 4238 1429 3725 
Q 1025 3213 1025 2328 
Q 1025 1447 1429 934 
Q 1834 422 2522 422 
Q 3209 422 3611 934 
Q 4013 1447 4013 2328 
Q 4013 3213 3611 3725 
Q 3209 4238 2522 4238 
z
M 2522 4750 
Q 3503 4750 4090 4092 
Q 4678 3434 4678 2328 
Q 4678 1225 4090 567 
Q 3503 -91 2522 -91 
Q 1538 -91 948 565 
Q 359 1222 359 2328 
Q 359 3434 948 4092 
Q 1538 4750 2522 4750 
z
" transform="scale(0.015625)"/>
      <path id="DejaVuSans-38" d="M 556 4666 
L 1191 4666 
L 1191 1831 
Q 1191 1081 1462 751 
Q 1734 422 2344 422 
Q 2950 422 3222 751 
Q 3494 1081 3494 1831 
L 3494 4666 
L 4128 4666 
L 4128 1753 
Q 4128 841 3676 375 
Q 3225 -91 2344 -91 
Q 1459 -91 1007 375 
Q 556 841 556 1753 
L 556 4666 
z
" transform="scale(0.015625)"/>
     </defs>
     <use xlink:href="#DejaVuSans-32"/>
     <use xlink:href="#DejaVuSans-38" transform="translate(78.71875 0)"/>
     <use xlink:href="#DejaVuSans-37" transform="translate(151.90625 0)"/>
    </g>
   </g>
   <g id="text_43">
    <!-- Normal operation -->
    <g style="fill: #d4d4d4" transform="translate(260.775 15.6) scale(0.12 -0.12)">
     <defs>
      <path id="DejaVuSans-55" d="M 2631 2963 
Q 2534 3019 2420 3045 
Q 2306 3072 2169 3072 
Q 1681 3072 1420 2755 
Q 1159 2438 1159 1844 
L 1159 0 
L 581 0 
L 581 3500 
L 1159 3500 
L 1159 2956 
Q 1341 3275 1631 3429 
Q 1922 3584 2338 3584 
Q 2397 3584 2469 3576 
Q 2541 3569 2628 3553 
L 2631 2963 
z
" transform="scale(0.015625)"/>
      <path id="DejaVuSans-51" d="M 3513 2113 
L 3513 0 
L 2938 0 
L 2938 2094 
Q 2938 2591 2744 2837 
Q 2550 3084 2163 3084 
Q 1697 3084 1428 2787 
Q 1159 2491 1159 1978 
L 1159 0 
L 581 0 
L 581 3500 
L 1159 3500 
L 1159 2956 
Q 1366 3272 1645 3428 
Q 1925 3584 2291 3584 
Q 2894 3584 3203 3211 
Q 3513 2838 3513 2113 
z
" transform="scale(0.015625)"/>
     </defs>
     <use xlink:href="#DejaVuSans-31"/>
     <use xlink:href="#DejaVuSans-52" transform="translate(74.8125 0)"/>
     <use xlink:href="#DejaVuSans-55" transform="translate(136 0)"/>
     <use xlink:href="#DejaVuSans-50" transform="translate(175.359375 0)"/>
     <use xlink:href="#DejaVuSans-44" transform="translate(272.765625 0)"/>
     <use xlink:href="#DejaVuSans-4f" transform="translate(334.046875 0)"/>
     <use xlink:href="#DejaVuSans-3" transform="translate(361.828125 0)"/>
     <use xlink:href="#DejaVuSans-52" transform="translate(393.609375 0)"/>
     <use xlink:href="#DejaVuSans-53" transform="translate(454.796875 0)"/>
     <use xlink:href="#DejaVuSans-48" transform="translate(518.28125 0)"/>
     <use xlink:href="#DejaVuSans-55" transform="translate(579.8125 0)"/>
     <use xlink:href="#DejaVuSans-44" transform="translate(620.921875 0)"/>
     <use xlink:href="#DejaVuSans-57" transform="translate(682.203125 0)"/>
     <use xlink:href="#DejaVuSans-4c" transform="translate(721.40625 0)"/>
     <use xlink:href="#DejaVuSans-52" transform="translate(749.1875 0)"/>
     <use xlink:href="#DejaVuSans-51" transform="translate(810.375 0)"/>
    </g>
   </g>
  </g>
 </g>
 <defs>
  <clipPath id="pe251bdca24">
   <rect x="97.2" y="21.6" width="432" height="252"/>
  </clipPath>
 </defs>
</svg>
