<?xml version="1.0" encoding="UTF-8" standalone="no"?>
<!-- Created with Inkscape (http://www.inkscape.org/) -->

<svg
   sodipodi:docname="PandA-logo-for-black-background.svg"
   inkscape:version="1.2.2 (732a01da63, 2022-12-09)"
   version="1.1"
   id="svg2"
   height="80"
   width="100"
   inkscape:export-filename="/home/tmc43/test/PandA/PandA-logo-black-background.png"
   inkscape:export-xdpi="360"
   inkscape:export-ydpi="360"
   xmlns:inkscape="http://www.inkscape.org/namespaces/inkscape"
   xmlns:sodipodi="http://sodipodi.sourceforge.net/DTD/sodipodi-0.dtd"
   xmlns="http://www.w3.org/2000/svg"
   xmlns:svg="http://www.w3.org/2000/svg"
   xmlns:rdf="http://www.w3.org/1999/02/22-rdf-syntax-ns#"
   xmlns:cc="http://creativecommons.org/ns#"
   xmlns:dc="http://purl.org/dc/elements/1.1/">
  <sodipodi:namedview
     id="base"
     pagecolor="#858585"
     bordercolor="#666666"
     borderopacity="1.0"
     inkscape:pageopacity="0"
     inkscape:pageshadow="2"
     inkscape:zoom="6.0664376"
     inkscape:cx="52.007458"
     inkscape:cy="41.127926"
     inkscape:document-units="px"
     inkscape:current-layer="layer1"
     showgrid="true"
     inkscape:window-width="1600"
     inkscape:window-height="838"
     inkscape:window-x="-6"
     inkscape:window-y="-6"
     inkscape:window-maximized="1"
     inkscape:showpageshadow="2"
     inkscape:pagecheckerboard="0"
     inkscape:deskcolor="#000000">
    <inkscape:grid
       type="xygrid"
       id="grid1736" />
  </sodipodi:namedview>
  <defs
     id="defs4">
    <marker
       style="overflow:visible"
       id="StopS"
       refX="0"
       refY="0"
       orient="auto"
       inkscape:stockid="StopS">
      <path
         transform="scale(0.2)"
         style="fill:none;fill-rule:evenodd;stroke:#ffffff;stroke-width:1.00000003pt"
         d="M 0,5.65 V -5.65"
         id="path9703"
         inkscape:connector-curvature="0" />
    </marker>
    <marker
       style="overflow:visible"
       id="Arrow1Sstart"
       refX="0"
       refY="0"
       orient="auto"
       inkscape:stockid="Arrow1Sstart">
      <path
         transform="matrix(0.2,0,0,0.2,1.2,0)"
         style="fill-rule:evenodd;stroke:#ffffff;stroke-width:1.00000003pt;marker-start:none"
         d="M 0,0 5,-5 -12.5,0 5,5 Z"
         id="path9539"
         inkscape:connector-curvature="0" />
    </marker>
    <inkscape:path-effect
       fuse_tolerance="0"
       vertical_pattern="false"
       prop_units="false"
       tang_offset="0"
       normal_offset="0"
       spacing="0"
       scale_y_rel="false"
       prop_scale="1"
       copytype="single_stretched"
       pattern="M 0,0 V 10 L 10,5 Z"
       is_visible="true"
       id="path-effect9158"
       effect="skeletal" />
    <inkscape:path-effect
       fuse_tolerance="0"
       vertical_pattern="false"
       prop_units="false"
       tang_offset="0"
       normal_offset="0"
       spacing="0"
       scale_y_rel="false"
       prop_scale="1"
       copytype="single_stretched"
       pattern="M 0,0 V 10 L 10,5 Z"
       is_visible="true"
       id="path-effect9154"
       effect="skeletal" />
    <inkscape:path-effect
       fuse_tolerance="0"
       vertical_pattern="false"
       prop_units="false"
       tang_offset="0"
       normal_offset="0"
       spacing="0"
       scale_y_rel="false"
       prop_scale="1"
       copytype="single_stretched"
       pattern="M 0,0 V 10 L 10,5 Z"
       is_visible="true"
       id="path-effect9110"
       effect="skeletal" />
    <inkscape:path-effect
       fuse_tolerance="0"
       vertical_pattern="false"
       prop_units="false"
       tang_offset="0"
       normal_offset="0"
       spacing="0"
       scale_y_rel="false"
       prop_scale="1"
       copytype="single_stretched"
       pattern="M 0,0 V 10 L 10,5 Z"
       is_visible="true"
       id="path-effect7168"
       effect="skeletal" />
    <inkscape:path-effect
       effect="spiro"
       id="path-effect3790"
       is_visible="true" />
    <inkscape:path-effect
       effect="skeletal"
       id="path-effect3744"
       is_visible="true"
       pattern="M 0,0 V 10 L 10,5 Z"
       copytype="repeated"
       prop_scale="1"
       scale_y_rel="false"
       spacing="0"
       normal_offset="0"
       tang_offset="0"
       prop_units="false"
       vertical_pattern="false"
       fuse_tolerance="0" />
    <inkscape:path-effect
       effect="skeletal"
       id="path-effect3670"
       is_visible="true"
       pattern="M 0,0 V 10 L 10,5 Z"
       copytype="single_stretched"
       prop_scale="1"
       scale_y_rel="false"
       spacing="0"
       normal_offset="0"
       tang_offset="0"
       prop_units="false"
       vertical_pattern="false"
       fuse_tolerance="0" />
    <inkscape:perspective
       sodipodi:type="inkscape:persp3d"
       inkscape:vp_x="0 : 526.18109 : 1"
       inkscape:vp_y="0 : 1000 : 0"
       inkscape:vp_z="744.09448 : 526.18109 : 1"
       inkscape:persp3d-origin="372.04724 : 350.78739 : 1"
       id="perspective10" />
    <inkscape:perspective
       id="perspective3615"
       inkscape:persp3d-origin="0.5 : 0.33333333 : 1"
       inkscape:vp_z="1 : 0.5 : 1"
       inkscape:vp_y="0 : 1000 : 0"
       inkscape:vp_x="0 : 0.5 : 1"
       sodipodi:type="inkscape:persp3d" />
    <inkscape:perspective
       id="perspective3643"
       inkscape:persp3d-origin="0.5 : 0.33333333 : 1"
       inkscape:vp_z="1 : 0.5 : 1"
       inkscape:vp_y="0 : 1000 : 0"
       inkscape:vp_x="0 : 0.5 : 1"
       sodipodi:type="inkscape:persp3d" />
    <inkscape:perspective
       id="perspective3680"
       inkscape:persp3d-origin="0.5 : 0.33333333 : 1"
       inkscape:vp_z="1 : 0.5 : 1"
       inkscape:vp_y="0 : 1000 : 0"
       inkscape:vp_x="0 : 0.5 : 1"
       sodipodi:type="inkscape:persp3d" />
    <inkscape:perspective
       id="perspective3680-5"
       inkscape:persp3d-origin="0.5 : 0.33333333 : 1"
       inkscape:vp_z="1 : 0.5 : 1"
       inkscape:vp_y="0 : 1000 : 0"
       inkscape:vp_x="0 : 0.5 : 1"
       sodipodi:type="inkscape:persp3d" />
    <inkscape:perspective
       id="perspective3680-6"
       inkscape:persp3d-origin="0.5 : 0.33333333 : 1"
       inkscape:vp_z="1 : 0.5 : 1"
       inkscape:vp_y="0 : 1000 : 0"
       inkscape:vp_x="0 : 0.5 : 1"
       sodipodi:type="inkscape:persp3d" />
    <inkscape:perspective
       id="perspective3680-7"
       inkscape:persp3d-origin="0.5 : 0.33333333 : 1"
       inkscape:vp_z="1 : 0.5 : 1"
       inkscape:vp_y="0 : 1000 : 0"
       inkscape:vp_x="0 : 0.5 : 1"
       sodipodi:type="inkscape:persp3d" />
    <inkscape:perspective
       sodipodi:type="inkscape:persp3d"
       inkscape:vp_x="0 : 0.5 : 1"
       inkscape:vp_y="0 : 1000 : 0"
       inkscape:vp_z="1 : 0.5 : 1"
       inkscape:persp3d-origin="0.5 : 0.33333333 : 1"
       id="perspective6272" />
    <inkscape:perspective
       sodipodi:type="inkscape:persp3d"
       inkscape:vp_x="0 : 0.5 : 1"
       inkscape:vp_y="0 : 1000 : 0"
       inkscape:vp_z="1 : 0.5 : 1"
       inkscape:persp3d-origin="0.5 : 0.33333333 : 1"
       id="perspective6368" />
    <inkscape:perspective
       sodipodi:type="inkscape:persp3d"
       inkscape:vp_x="0 : 0.5 : 1"
       inkscape:vp_y="0 : 1000 : 0"
       inkscape:vp_z="1 : 0.5 : 1"
       inkscape:persp3d-origin="0.5 : 0.33333333 : 1"
       id="perspective9120" />
    <inkscape:perspective
       sodipodi:type="inkscape:persp3d"
       inkscape:vp_x="0 : 0.5 : 1"
       inkscape:vp_y="0 : 1000 : 0"
       inkscape:vp_z="1 : 0.5 : 1"
       inkscape:persp3d-origin="0.5 : 0.33333333 : 1"
       id="perspective9120-1" />
    <inkscape:perspective
       sodipodi:type="inkscape:persp3d"
       inkscape:vp_x="0 : 0.5 : 1"
       inkscape:vp_y="0 : 1000 : 0"
       inkscape:vp_z="1 : 0.5 : 1"
       inkscape:persp3d-origin="0.5 : 0.33333333 : 1"
       id="perspective9120-19" />
    <inkscape:perspective
       sodipodi:type="inkscape:persp3d"
       inkscape:vp_x="0 : 0.5 : 1"
       inkscape:vp_y="0 : 1000 : 0"
       inkscape:vp_z="1 : 0.5 : 1"
       inkscape:persp3d-origin="0.5 : 0.33333333 : 1"
       id="perspective10740" />
  </defs>
  <metadata
     id="metadata7">
    <rdf:RDF>
      <cc:Work
         rdf:about="">
        <dc:format>image/svg+xml</dc:format>
        <dc:type
           rdf:resource="http://purl.org/dc/dcmitype/StillImage" />
      </cc:Work>
    </rdf:RDF>
  </metadata>
  <g
     inkscape:label="Layer 1"
     inkscape:groupmode="layer"
     id="layer1"
     transform="translate(0,-972.36218)">
    <path
       sodipodi:nodetypes="csscsss"
       d="m 36.285592,1039.8413 c -10.894417,-2.8041 -16.770723,-8.5819 -16.770723,-20.9445 0,-5.5508 3.146972,-12.5528 5.704285,-17.1044 5.592736,-9.95425 12.66649,-19.54569 25.641192,-19.54569 12.974703,0 20.048457,9.59144 25.641192,19.54569 2.557313,4.5516 5.704285,11.5536 5.704285,17.1044 0,10.6184 -10.366885,17.8165 -18.511787,21.0074"
       style="fill:#ffffff;fill-opacity:1;stroke:#000000;stroke-linecap:round;stroke-linejoin:round;stroke-miterlimit:4;stroke-opacity:1"
       id="path2816-0"
       inkscape:connector-curvature="0" />
    <path
       id="path3659"
       style="fill:#ffffff;fill-opacity:1;stroke:#000000;stroke-opacity:1"
       d="m 62.343473,1016.6265 c 3.857802,3.2049 5.413758,7.9127 5.413758,13.1199 0,5.9711 -2.94277,10.3888 -7.567756,12.2845 -3.209172,5.5874 -5.727799,7.305 -10.146541,7.305 -4.418743,0 -7.865498,-1.7559 -10.137149,-7.2956 -4.663746,-1.8486 -7.663014,-6.3115 -7.663014,-12.2939 0,-5.2928 1.511562,-9.9118 5.48022,-13.1199"
       sodipodi:nodetypes="cscscsc"
       inkscape:connector-curvature="0" />
    <path
       style="fill:#000000;fill-opacity:1;stroke:none"
       d="m 57.462084,1029.9955 c -6.785714,2.9265 -3.277915,5.1785 -7.321429,5.1785 -4.043513,0 -1.160715,-2.0734 -7.321429,-5.1785 -1.497159,-0.7546 3.277916,-3.0357 7.321429,-3.0357 4.043514,0 7.321429,1.3591 7.321429,3.0357 z"
       id="path3601"
       sodipodi:nodetypes="csssc"
       inkscape:connector-curvature="0" />
    <path
       style="fill:#000000;fill-opacity:1;stroke:#ffffff;stroke-opacity:1"
       d="m 40.431356,986.11751 c 0,5.85786 -8.463355,11.49048 -12.374368,14.26839 -4.320932,3.0691 -10.606601,-2.34961 -10.606601,-8.20748 0,-5.85786 7.074396,-17.29886 12.374367,-17.29886 5.299972,0 10.606602,5.38008 10.606602,11.23795 z"
       id="path3632"
       sodipodi:nodetypes="csssc"
       inkscape:connector-curvature="0" />
    <path
       style="fill:#000000;fill-opacity:1;stroke:#ffffff;stroke-opacity:1"
       d="m 60.861691,986.11751 c 0,5.85786 8.463356,11.49048 12.374369,14.26839 4.320932,3.0691 10.606601,-2.34961 10.606601,-8.20748 0,-5.85786 -7.074396,-17.29886 -12.374368,-17.29886 -5.299972,0 -10.606602,5.38008 -10.606602,11.23795 z"
       id="path3632-9"
       sodipodi:nodetypes="csssc"
       inkscape:connector-curvature="0" />
    <path
       sodipodi:nodetypes="cscccccc"
       id="path7166"
       d="m 61.495453,1041.2664 c 0,0 -0.943698,3.714 -11.495453,3.7236 -10.421052,0.01 -11.495453,-3.7236 -11.495453,-3.7236 0,0 6.284054,1.9996 9.747453,0 1.413877,-1.4139 1.748,-6.143 1.748,-6.143 0,0 0.335025,4.7303 1.747725,6.143 3.463467,1.9996 9.725635,0.01 9.725635,0.01 l 0.02209,-0.01 z"
       style="color:#ffffff;display:inline;overflow:visible;visibility:visible;fill:#000000;fill-opacity:1;fill-rule:evenodd;stroke:none;stroke-miterlimit:4;stroke-dasharray:none;marker:none;enable-background:accumulate"
       inkscape:connector-curvature="0" />
    <path
       style="color:#000000;fill:#ffffff;stroke:#000000;stroke-width:0.990351;stroke-linecap:square;stroke-linejoin:round;stroke-opacity:1;-inkscape-stroke:none"
       d="m 38.994567,1041.5625 c -0.625553,0.5511 -1.456934,1.5633 -1.824609,2.085 -0.242229,0.3438 -0.479234,0.6561 -0.696912,0.9048 -0.217679,0.2487 -0.419672,0.4354 -0.576293,0.5433 -0.155654,0.1071 -0.260837,0.139 -0.323566,0.1466 -0.06204,0.01 -0.11248,0.01 -0.224008,-0.049 -0.112267,-0.055 -0.28657,-0.1801 -0.484392,-0.387 -0.19822,-0.2071 -0.423284,-0.4963 -0.656706,-0.8382 -0.23366,-0.3423 -0.478802,-0.7385 -0.727547,-1.1569 -0.24892,-0.4188 -0.501757,-0.8603 -0.762009,-1.2917 -0.2604,-0.4317 -0.526624,-0.8535 -0.806044,-1.2409 -0.279418,-0.3875 -0.569671,-0.7387 -0.901774,-1.0377 -0.330837,-0.2978 -0.706779,-0.5487 -1.164074,-0.6683 h -0.002 c -0.454145,-0.1186 -0.960808,-0.073 -1.389996,0.1153 -0.428601,0.1882 -0.775561,0.4823 -1.091319,0.8305 -0.315317,0.3476 -0.598729,0.751 -0.873055,1.1979 -0.274099,0.4466 -0.537216,0.9346 -0.796472,1.4363 -0.259131,0.5015 -0.512139,1.0153 -0.762008,1.5067 -0.249795,0.4913 -0.495382,0.959 -0.731376,1.362 -0.235968,0.4031 -0.466356,0.7428 -0.662449,0.9752 -0.196131,0.2322 -0.361832,0.3496 -0.421211,0.3772 -0.06034,0.028 -0.0017,0.019 -0.0268,0.01 -6.67e-4,0 -0.0013,0 -0.002,0 -0.02738,-0.01 -0.165271,-0.087 -0.348457,-0.301 -0.183657,-0.2148 -0.409028,-0.5569 -0.641389,-0.9848 -0.232572,-0.4285 -0.476705,-0.9451 -0.723716,-1.5067 -0.247114,-0.5617 -0.497944,-1.1686 -0.752436,-1.7764 -0.254524,-0.6077 -0.513593,-1.2162 -0.777326,-1.7841 -0.263731,-0.5679 -0.531279,-1.0934 -0.821361,-1.5535 -0.289962,-0.4601 -0.59032,-0.8571 -1.001333,-1.1667 -0.411276,-0.3103 -1.004711,-0.5058 -1.564224,-0.3733 -6.67e-4,0 -0.0013,0 -0.002,0 -0.559591,0.1331 -0.962642,0.4937 -1.296181,0.9107 -0.33295,0.416 -0.612787,0.9165 -0.886458,1.5008 -0.273496,0.5837 -0.534993,1.2469 -0.794557,1.962 -0.259488,0.7148 -0.515791,1.4789 -0.769667,2.2414 -0.253816,0.7624 -0.504131,1.5215 -0.752435,2.2218 -0.248274,0.7003 -0.495571,1.3427 -0.729461,1.8585 -0.230515,0.5084 -0.456549,0.8909 -0.612671,1.0846 -0.159595,-0.2153 -0.391951,-0.6555 -0.6260713,-1.2566 -0.235263,-0.604 -0.4832515,-1.3713 -0.7313752,-2.2414 -0.2481682,-0.8703 -0.4982779,-1.8456 -0.7505212,-2.8551 -0.25227,-1.0094 -0.5068261,-2.0541 -0.7620087,-3.0602 -0.2551985,-1.006 -0.51029,-1.9718 -0.7715817,-2.8315 -0.261285,-0.8599 -0.5226206,-1.6084 -0.8156174,-2.22 -0.2928682,-0.6113 -0.5477949,-1.1473 -1.242572,-1.4637 l 7.85e-5,0.01 c -0.3464256,-0.1577 -0.8304553,-0.1612 -1.1832195,0 -0.3527642,0.1631 -0.5827231,0.4151 -0.7715817,0.682 -0.3769898,0.5331 -0.6312969,1.1993 -0.8998595,2.0792 -0.2684646,0.8798 -0.5277232,1.9602 -0.7849839,3.2127 -0.2572375,1.2522 -0.51127369,2.6716 -0.76583789,4.1819 -0.0914382,0.5438 0.26574937,1.0606 0.79838599,1.155 0.5335035,0.094 1.0410015,-0.2704 1.1334401,-0.815 0.2522429,-1.4965 0.5028663,-2.8966 0.7524358,-4.1116 0.2495463,-1.2148 0.4987765,-2.2479 0.737119,-3.0289 0.1685146,-0.5521 0.3045446,-0.7931 0.4384421,-1.0631 0.020044,0.036 0.00705,0.01 0.026805,0.047 0.2138103,0.4463 0.4590488,1.1267 0.7045709,1.9346 0.2455155,0.8078 0.4950834,1.7497 0.7466919,2.7417 0.2516245,0.992 0.5055571,2.0337 0.7600941,3.0524 0.2545637,1.0186 0.5091135,2.0125 0.7677526,2.9195 0.258683,0.9072 0.5191835,1.7241 0.7907276,2.4212 0.2716716,0.6974 0.5431211,1.2676 0.8902865,1.7334 0.3476672,0.4663 0.848992,0.8974 1.5259319,0.9087 0.0051,0 0.01021,0 0.01532,0 0.657389,0 1.15948,-0.3978 1.512529,-0.8285 0.35058,-0.4277 0.625048,-0.9419 0.897946,-1.5438 0.272915,-0.6019 0.534107,-1.2876 0.792641,-2.0167 0.258503,-0.7292 0.512848,-1.5011 0.765838,-2.261 0.252933,-0.7597 0.503203,-1.5073 0.750521,-2.1887 0.247244,-0.681 0.492322,-1.2979 0.725632,-1.7958 0.233137,-0.4978 0.461785,-0.8791 0.635645,-1.0963 0.143522,-0.1794 0.187281,-0.1841 0.185716,-0.1876 0.09737,0.075 0.297221,0.2937 0.511197,0.6331 0.216724,0.3438 0.455751,0.8055 0.698827,1.3288 0.243076,0.5235 0.492496,1.1095 0.744777,1.7119 0.252314,0.6026 0.508059,1.2212 0.767753,1.8115 0.259795,0.5906 0.522235,1.1519 0.796471,1.6572 0.274446,0.5055 0.555648,0.9507 0.878799,1.3288 0.323621,0.3785 0.69231,0.698 1.171732,0.8716 0.481308,0.1742 1.04557,0.1336 1.491469,-0.072 0.447428,-0.2067 0.788303,-0.5251 1.098978,-0.893 0.310715,-0.368 0.588813,-0.792 0.859653,-1.2546 0.270813,-0.4625 0.531802,-0.9621 0.788813,-1.4676 0.256937,-0.5053 0.508585,-1.0156 0.756265,-1.4949 0.24755,-0.479 0.49101,-0.9282 0.723717,-1.3073 0.232482,-0.3788 0.457558,-0.6899 0.649048,-0.9009 0.191051,-0.2107 0.350661,-0.3174 0.428869,-0.3518 0.07703,-0.034 0.0761,-0.029 0.128278,-0.016 6.67e-4,0 0.0013,0 0.002,0 0.04874,0.013 0.178644,0.072 0.3542,0.2306 0.174704,0.1572 0.391027,0.4078 0.618415,0.723 0.227389,0.3153 0.46965,0.6957 0.716057,1.1041 0.246556,0.4089 0.49838,0.8463 0.756266,1.28 0.258063,0.434 0.52141,0.8623 0.794557,1.2624 0.273383,0.4005 0.554893,0.7699 0.863482,1.0924 0.308986,0.323 0.641256,0.6001 1.035796,0.7934 0.39528,0.1937 0.851412,0.2847 1.29618,0.2325 6.67e-4,0 0.0013,0 0.002,0 0.444197,-0.053 0.844325,-0.2337 1.194707,-0.4748 0.350185,-0.2412 0.654767,-0.5392 0.943895,-0.8696 0.289131,-0.3304 0.560614,-0.6935 0.825191,-1.069 0.139131,-0.1974 1.011181,-1.2532 1.239013,-1.4539"
       id="path2890"
       sodipodi:nodetypes="ccscccccccccccccccccccccccccscccccccccccssccccccccccccccccccccsscccsccsccccccccccccccccccccccccsccccccscc" />
    <path
       style="color:#000000;fill:#ffffff;stroke:#000000;stroke-linecap:round;stroke-linejoin:round;stroke-opacity:1;-inkscape-stroke:none"
       d="m 59.2,1043.6602 h 13.505078 c 0.550005,0 0.996755,-0.4442 1,-0.9942 l 0.02734,-5.3183 h 0.345703 l 0.0293,5.3183 c 0.0032,0.55 0.449995,0.9942 1,0.9942 h 7.107422 c 0.550005,0 0.996755,-0.4442 1,-0.9942 l 0.0293,-5.3183 h 0.345703 l 0.0293,5.3183 c 0.0032,0.55 0.449995,0.9942 1,0.9942 h 7.107421 c 0.550005,0 0.996755,-0.4442 1,-0.9942 l 0.02734,-5.3183 h 0.38086 l 0.02734,5.3183 c 0.0032,0.55 0.449995,0.9942 1,0.9942 H 98.375 c 0.552285,0 1,-0.4477 1,-1 0,-0.5523 -0.447715,-1 -1,-1 h -3.216797 l -0.0293,-5.3184 c -0.0033,-0.55 -0.450034,-0.9941 -1,-0.9941 h -2.36914 c -0.549966,0 -0.996701,0.4441 -1,0.9941 l -0.02734,5.3184 h -5.119141 l -0.0293,-5.3184 c -0.0033,-0.55 -0.450034,-0.9941 -1,-0.9941 H 82.25 c -0.549966,0 -0.996701,0.4441 -1,0.9941 l -0.0293,5.3184 h -5.119141 l -0.02734,-5.3184 c -0.0033,-0.55 -0.450034,-0.9941 -1,-0.9941 h -2.335938 c -0.549966,0 -0.996332,0.4441 -0.999631,0.9941 l -0.0293,5.3184 H 61"
       id="path3679"
       sodipodi:nodetypes="cccccccccccccccccccsssccccccccccccccccccc" />
    <path
       style="fill:#000000;fill-opacity:1;stroke:#000000;stroke-width:0.99870747;stroke-linecap:round;stroke-linejoin:round;stroke-miterlimit:4;stroke-opacity:0"
       d="m 45.300323,1008.6872 c 0,1.923 -0.875076,3.9816 -2.708263,4.3074 -2.772444,0.4925 -3.456131,4.354 -5.6177,4.354 -3.614708,0 -4.675006,-1.2884 -4.675006,-6.0719 0,-1.7874 2.092938,-3.199 3.230079,-4.2661 1.90618,-1.7888 3.90039,-5.3776 6.164457,-5.3776 3.614708,0 3.606433,2.2706 3.606433,7.0542 z"
       id="path3596"
       sodipodi:nodetypes="csssssc"
       inkscape:connector-curvature="0" />
    <path
       style="fill:#000000;fill-opacity:1;stroke:#000000;stroke-width:0.99870747;stroke-linecap:round;stroke-linejoin:round;stroke-miterlimit:4;stroke-opacity:0"
       d="m 54.699675,1008.6872 c 0,1.923 0.875076,3.9816 2.708262,4.3074 2.772445,0.4925 3.456132,4.354 5.617701,4.354 3.614708,0 4.675006,-1.2884 4.675006,-6.0719 0,-1.7874 -2.092938,-3.199 -3.230079,-4.2661 -1.90618,-1.7888 -3.90039,-5.3776 -6.164457,-5.3776 -3.614709,0 -3.606433,2.2706 -3.606433,7.0542 z"
       id="path3596-8"
       sodipodi:nodetypes="csssssc"
       inkscape:connector-curvature="0" />
  </g>
</svg>
