<?xml version="1.0" encoding="UTF-8" standalone="no"?>
<!-- Created with sK1/UniConvertor (http://sk1project.org/) -->

<svg
   xmlns:dc="http://purl.org/dc/elements/1.1/"
   xmlns:cc="http://creativecommons.org/ns#"
   xmlns:rdf="http://www.w3.org/1999/02/22-rdf-syntax-ns#"
   xmlns:svg="http://www.w3.org/2000/svg"
   xmlns="http://www.w3.org/2000/svg"
   xmlns:sodipodi="http://sodipodi.sourceforge.net/DTD/sodipodi-0.dtd"
   xmlns:inkscape="http://www.inkscape.org/namespaces/inkscape"
   width="595.276pt"
   height="841.89pt"
   viewBox="0 0 595.276 841.89"
   fill-rule="evenodd"
   id="svg2"
   version="1.1"
   inkscape:version="0.47pre4 r22446"
   sodipodi:docname="ohr_logo.svg"
   inkscape:export-filename="/home/kikito/Desktop/ohr_logo.png"
   inkscape:export-xdpi="126.50246"
   inkscape:export-ydpi="126.50246">
  <metadata
     id="metadata280">
    <rdf:RDF>
      <cc:Work
         rdf:about="">
        <dc:format>image/svg+xml</dc:format>
        <dc:type
           rdf:resource="http://purl.org/dc/dcmitype/StillImage" />
        <dc:title></dc:title>
      </cc:Work>
    </rdf:RDF>
  </metadata>
  <sodipodi:namedview
     pagecolor="#ffffff"
     bordercolor="#666666"
     borderopacity="1"
     objecttolerance="10"
     gridtolerance="10"
     guidetolerance="10"
     inkscape:pageopacity="0"
     inkscape:pageshadow="2"
     inkscape:window-width="1440"
     inkscape:window-height="850"
     id="namedview278"
     showgrid="false"
     inkscape:zoom="0.63429547"
     inkscape:cx="154.33516"
     inkscape:cy="531.90964"
     inkscape:window-x="0"
     inkscape:window-y="25"
     inkscape:window-maximized="1"
     inkscape:current-layer="svg2" />
  <defs
     id="defs4">
    <inkscape:perspective
       sodipodi:type="inkscape:persp3d"
       inkscape:vp_x="0 : 526.18127 : 1"
       inkscape:vp_y="0 : 1000 : 0"
       inkscape:vp_z="744.09497 : 526.18127 : 1"
       inkscape:persp3d-origin="372.04749 : 350.78752 : 1"
       id="perspective282" />
    <marker
       id="ArrowEnd"
       viewBox="0 0 10 10"
       refX="0"
       refY="5"
       markerUnits="strokeWidth"
       markerWidth="4"
       markerHeight="3"
       orient="auto">
      <path
         d="M 0 0 L 10 5 L 0 10 z"
         id="path7" />
    </marker>
    <marker
       id="ArrowStart"
       viewBox="0 0 10 10"
       refX="10"
       refY="5"
       markerUnits="strokeWidth"
       markerWidth="4"
       markerHeight="3"
       orient="auto">
      <path
         d="M 10 0 L 0 5 L 10 10 z"
         id="path10" />
    </marker>
  </defs>
  <g
     id="g3499"
     inkscape:export-xdpi="90"
     inkscape:export-ydpi="90">
    <path
       style="fill:#000000;stroke:#000000;stroke-width:0.500094"
       d="m 107.755,514.353 c -5.661,-12.668 -2.428,-72.033 27.045,-123.394 22.747,-41.806 31.009,-41.861 72.045,-90.603 8.161,-9.826 9.689,-34.606 8.637,-75.755 -1.802,-55.035 14.078,-78.473 27.341,-89.73 5.865,-4.977 10.547,-7.841 14.105,-9.545 37.228,-21.361 78.903,-14.392 104.265,-5.733 3.859,1.407 7.059,3.561 10.358,5.884 21.543,15.169 31.746,47.617 30.424,75.788 -1.411,33.732 -4.26,62.909 5.092,72.584 34.4,32.294 52.584,62.536 67.218,89.578 3.994,7.378 15.965,32.437 19.234,42.973 5.74,21.891 1.526,58.494 -2.018,74.667 3.554,2.424 9.949,8.448 15.019,12.008 13.194,8.326 33.776,16.462 32.95,23.841 -0.392,5.225 -37.929,59.66 -53.917,85.024 -21.622,32.656 -52.625,70.038 -55.664,72.853 -3.51,3.063 -9.044,4.89 -13.678,5.142 -1.665,0.221 -12.546,-3.138 -25.919,-5.724 -12.175,-2.353 -27.482,-4.546 -37.974,-6.055 -5.657,-1.888 -9.645,-11.663 -13.22,-11.761 -7.337,0.199 -23.69,-3.125 -39.484,1.401 -12.9,1.922 -15.965,1.621 -30.255,0.569 -5.256,-1.29 -5.352,-3.138 -7.073,-1.194 -6.908,11.395 -15.781,25.698 -31.42,35.82 -0.768,0.734 -4.275,-0.045 -5.75,-0.609 -35.648,-13.625 -41.715,-6.383 -98.64,-30.944 -14.633,-5.781 -37.7825,-15.278 -49.3237,-18.371 -2.6059,-0.699 -4.0742,-3.158 -5.1835,-3.826 -1.5764,-0.893 -4.3026,-1.048 -5.8114,-1.619 -14.5759,-5.507 -16.3689,-17.271 -15.4357,-19.91 2.4742,-11.348 4.645,-17.421 8.1421,-26.956 11.29,-31.507 26.0679,-51.947 41.5342,-73.392 0.821,-2.451 8.543,-1.378 7.357,-3.011 z"
       id="path18" />
    <path
       style="fill:#767b82;stroke:#676f79;stroke-width:0.500094"
       d="m 225.082,191.519 c 0.121,-1.355 1.131,-3.089 1.944,-2.949 15.396,2.651 26.629,0.066 59.797,-3.31 2.052,-0.409 2.566,1.596 2.759,2.472 2.918,13.25 3.328,24.422 6.093,39.511 0.856,4.578 0.139,5.131 -2.364,6.529 -32.127,9.828 -43.471,22.124 -62.592,33.738 -1.62,0.985 -5.331,3.049 -4.775,-0.453 -1.669,-26.851 -3.398,-48.647 -0.862,-75.538 z"
       id="path20" />
    <path
       style="fill:#424a53;stroke:#424a53;stroke-width:0.500094"
       d="m 333.076,304.867 c 9.991,-7.049 16.336,-13.305 27.018,-18.674 2.198,-1.059 7.122,-10.116 4.789,-12.047 -1.975,-2.075 -2.534,-3.341 -1.611,-8.126 0.243,-3.622 0.569,-6.371 -1.059,-9.728 -0.327,-0.456 -1.283,-3.711 -6.181,-1.053 -0.559,0.664 -1.314,0.462 -2.03,0.062 -14.772,-7.373 -30.275,-18.78 -48.385,-21.397 -1.872,-0.464 -2.519,-2.224 -3.073,-5.382 -3.054,-17.195 -2.474,-31.38 -4.845,-48.302 -0.559,-1.931 -4.503,-5.359 -8.967,-3.97 -8.342,3.599 -33.849,7.498 -59.109,6.906 -1.951,-0.482 -4.344,0.319 -3.668,-3.667 4.56,-19.272 3.716,-21.915 23.916,-41.891 38.35,-31.721 111.302,-22.676 122.21,28.926 4.099,17.731 6.568,60.64 -0.597,95.909 -0.535,4.698 -0.96,9.285 1.697,13.51 14.242,20.576 31.349,34.56 49.562,50.885 13.271,10.635 46.231,49.613 53.953,91.5 2.585,14.518 4.455,30.965 1.328,50.454 -0.132,0.397 -0.205,1.137 -2.053,0.154 -11.715,-8.161 -24.455,-10.028 -33.638,-10.147 -3.193,-0.041 -3.118,-1.618 -3.069,-2.293 0.19,-8.567 0.634,-17.304 -0.71,-26.727 -1.472,-10.045 -7.148,-28.792 -22.716,-46.376 -2.106,-2.485 -5.204,-5.277 -11.335,-3.988 -3.5,0.875 -4.048,3.815 -3.399,6.44 4.357,15.671 12.446,28.859 13.381,51.226 -7.064,-11.201 -18.334,-24.119 -27.112,-34.54 -17.041,-17.015 -16.463,-18.441 -34.309,-28.444 -3.039,-1.305 -6.802,-2.296 -9.149,-3.601 -3.123,-1.595 -2.713,-5.43 -3.268,-8.007 -2.854,-18.884 -5.307,-33.003 -8.291,-52.254 -0.307,-1.31 -1.162,-4.158 0.72,-5.358 z"
       id="path22" />
    <path
       style="fill:#efa417;stroke:#efa417;stroke-width:0.500094"
       d="m 67.4257,623.695 c 14.0267,-54.464 33.2903,-66.747 53.8463,-100.062 3.215,-4.014 1.522,-3.582 -2.511,-2.086 -5.854,2.173 -6.889,-1.95 -14.409,4.888 -7.4603,6.783 -15.8039,22.053 -19.9727,28.661 -9.7038,17.012 -14.6677,27.543 -20.0041,41.488 -6.9562,16.113 -9.1531,29.193 0.1743,31.341 1.5424,0.356 1.6372,1.249 2.8762,-4.23 z"
       id="path24" />
    <path
       style="fill:#f8d222;stroke:#f8d222;stroke-width:0.500094"
       d="m 223.509,595.27 c -13.932,-13.931 -32.698,-29.305 -47.886,-42.114 -8.165,-6.888 -21.045,-17.267 -27.499,-21.995 -18.706,-13.703 -21.209,-2.344 -30.422,10.561 l -11.92,16.696 c -7.6585,10.727 -22.7348,34.92 -25.9552,48.128 -2.3658,9.701 -10.6312,22.228 1.2886,28.027 9.4062,7.588 84.6446,34.736 106.6496,39.513 11.865,2.575 18.951,3.877 32.241,5.558 17.233,2.178 35.505,-26.493 42.145,-40.268 2.876,-5.965 -13.753,-15.829 -19.215,-23.306 -4.071,-5.574 -10.48,-10.882 -19.427,-20.8 z"
       id="path26" />
    <path
       style="fill:#000000;stroke:#000000;stroke-width:0.500094"
       d="m 91.5647,634.558 c -5.6582,-1.042 -8.1074,-3.19 -5.071,-8.372 3.0365,-5.181 6.9497,-13.176 13.1321,-26.58 0.9912,-2.15 2.4962,-4.954 8.1122,-1.001 5.264,3.705 14.206,11.15 23.836,18.209 0.641,0.47 3.066,2.718 -0.2,5.912 -4.087,7.218 -3.667,9.693 -6.093,17.386 -0.826,2.608 -2.897,4.115 -7.694,1.658 -4.798,-2.458 -20.3641,-6.171 -26.0223,-7.212 z"
       id="path28" />
    <path
       style="fill:#efa417;stroke:#efa417;stroke-width:0.500094"
       d="m 98.4522,629.527 c -3.6944,-0.655 -5.2936,-2.007 -3.3111,-5.268 1.9826,-3.261 4.5377,-8.293 8.5749,-16.728 0.647,-1.353 1.629,-3.118 5.296,-0.63 3.437,2.332 9.276,7.017 15.563,11.459 0.419,0.296 2.002,1.711 -0.13,3.721 -2.669,4.543 -2.394,6.1 -3.978,10.942 -0.539,1.641 -1.892,2.589 -5.024,1.043 -3.133,-1.547 -13.296,-3.884 -16.9908,-4.539 z"
       id="path30" />
    <path
       style="fill:#424a53;stroke:#424a53;stroke-width:0.500094"
       d="m 118.049,512.132 c -6.71,-7.445 -4.264,-29.25 -1.675,-47.94 20.578,-86.046 46.603,-106.942 95.483,-155.85 3.43,-3.144 6.805,-7.069 8.245,-11.954 1.776,-7.094 3.648,-20.767 5.968,-20.269 1.864,0 0.258,-0.325 2.883,0.109 2.603,0.286 -0.65,10.661 1.519,12.574 13.994,16.271 21.91,15.299 21.877,20.208 0.408,3.182 1.738,5.733 2.239,8.476 3.564,19.524 5.688,27.751 4.23,52.557 -0.602,5.044 -2.255,4.757 -3.664,5.796 -58.282,33.955 -68.512,78.379 -73.274,111.967 -8.011,-20.073 -6.951,-48.693 4.648,-86.257 0.338,-1.404 1.468,-3.073 2.506,-4.626 4.041,-5.663 -5.011,-12.076 -9.578,-5.663 -22.607,30.029 -29.279,61.28 -26.173,89.267 5.306,26.262 25.034,47.115 45.364,63.161 22.097,18.25 22.908,20.754 32.341,31.399 3.523,5.861 -5.768,13.103 -8.58,9.324 -29.863,-26.796 -56.24,-50.309 -88.084,-71.842 -1.026,-0.694 -2.06,-1.566 -3.989,-1.601 -4.273,0.745 -11.574,2.68 -12.286,1.164 z"
       id="path32" />
    <path
       style="fill:#767b82;stroke:#676f79;stroke-width:0.500094"
       d="m 294.009,327.753 c -1.609,18.521 -0.105,37.527 0.784,56.518 -12.151,2.445 -17.594,3.373 -27.457,7.085 -29.188,11.01 -40.509,24.793 -58.915,57.059 -10.405,25.766 -9,47.682 -11.124,83.234 -16.858,-11.595 -31.971,-34.75 -34.987,-48.805 -6.692,-29.607 6.75,-60.493 13.951,-74.531 -10.621,45.371 -9.071,64.266 0.711,88.674 2.647,4.413 8.193,8.083 11.997,5.919 2.893,-2.325 1.066,-11.209 1.786,-16.433 2.259,-45.762 29.602,-87.782 71.207,-103.815 6.742,-2.585 5.147,-1.917 5.374,-6.61 0.149,-18.388 0.127,-38.509 -5.155,-59.272 -3.027,-8.71 3.938,-3.501 7.573,-1.505 7.889,4.217 16.366,9.336 24.255,12.482 z"
       id="path34" />
    <path
       style="fill:#000000;stroke:#000000;stroke-width:0.500094"
       d="m 281.418,342.075 c -0.264,0.183 -0.527,0.365 -0.785,0.549 2.375,0.039 4.638,0.587 6.344,2.638 3.824,4.6 1.742,13.093 -5.134,12.885 -6.152,-0.186 -10.642,-6.552 -8.384,-12.419 0.747,-1.941 2.36,-3.768 4.483,-4.207 1.184,-0.245 2.313,0.223 3.476,0.554 z"
       id="path36" />
    <path
       style="fill:#000000;stroke:#000000;stroke-width:0.500094"
       d="m 281.559,362.52 c -0.226,0.669 -0.476,1.329 -0.724,1.987 3.878,1.176 7.422,3.962 6.477,8.55 -1.155,5.613 -11.374,8.345 -12.671,1.49 -0.648,-3.425 0.41,-7.248 2.744,-9.682 -0.192,-0.154 -0.368,-0.298 -0.52,-0.432 l 0.114,-0.572 c 0.452,0.014 0.92,0.052 1.397,0.115 0.921,-0.704 1.988,-1.214 3.183,-1.456 z"
       id="path38" />
    <path
       style="fill:#000000;stroke:#000000;stroke-width:0.500094"
       d="m 273.868,321.819 0.141,-0.368 c 3.157,-0.576 6.555,-0.64 8.874,2.055 3.738,4.345 0.107,13.443 -6.128,11.501 -3.959,-1.234 -8.424,-6.332 -6.277,-10.661 0.81,-1.631 1.995,-2.285 3.39,-2.527 z"
       id="path40" />
    <path
       style="fill:none;stroke:#ff0000;stroke-width:0.500094"
       d="m 278.38,329.04 0.026,-0.005 0.013,-0.013 0.006,-0.01 -0.045,0.028 z"
       id="path42" />
    <path
       style="fill:#767b82;stroke:#676f79;stroke-width:0.500094"
       d="m 300.096,326.255 c -0.385,12.457 -0.139,31.878 0.96,38.269 0.427,10.884 0.924,14.981 0.816,18.582 23.806,-3.953 38.885,-1.19 48.696,4.928 16.884,12.628 26.771,23.593 35.84,36.456 4.21,5.795 13.99,28.362 12.441,39.189 8.105,-3.923 19.249,-5.798 30.426,-5.624 1.062,-5.425 7.014,-35.772 -15.674,-64.863 4.968,17.92 10.255,38.332 8.207,57.236 -1.459,4.571 -8.977,5.332 -10.679,1.368 -3.449,-13.224 -2.686,-12.062 -8.768,-20.253 -13.258,-17.709 -24.737,-32.038 -41.375,-44.589 -5.815,-4.631 -7.212,-6.602 -21.212,-11.028 -2.009,-1.067 -9.561,-0.335 -7.148,-8.174 2.079,-7.055 -4.121,-33.797 -6.799,-52.945 -0.077,-7.553 -7.015,-0.787 -8.086,-0.386 -7.15,5.028 -17.499,11.106 -17.645,11.834 z"
       id="path44" />
    <path
       style="fill:#efa417;stroke:#efa417;stroke-width:0.500094"
       d="m 368.464,479.697 c 1.592,3.184 6.129,4.788 9.693,5.893 1.866,0.579 4.908,-2.632 8.083,-2.58 3.487,0.057 1.86,-1.873 1.86,-4.87 0,-4.776 -3.728,-3.602 -7.918,-2.884 l -7.159,1.227 c -1.383,0.236 -5.683,1.528 -4.559,3.214 z"
       id="path46" />
    <path
       style="fill:#417c29;stroke:#417c29;stroke-width:0.500094"
       d="m 233.268,460.889 c 20.193,-0.267 68.437,-8.591 82.849,-8.965 l 23.804,-0.618 c 6.799,-0.177 16.016,-0.52 29.678,3.4 1.327,0.381 2.183,0.306 2.473,1.855 1.564,8.343 0.23,13.092 -3.401,13.911 -10.305,2.327 -10.548,11.712 -13.911,25.968 -4.472,18.958 -4.935,26.751 -6.214,30.63 -0.337,1.022 -5.611,-1.284 -17.576,2.166 -16.6,2.013 -43.935,2.959 -45.998,3.048 -42.753,1.845 -55.842,5.006 -55.842,-15.706 0,-8.795 -3.022,-55.689 4.138,-55.689 z"
       id="path48" />
    <path
       style="fill:#000000;stroke:#000000;stroke-width:0.500094"
       d="m 107.344,580.938 18.791,-35.711 c 2.997,-5.696 7.418,-11.506 14.976,-5.336 3.8,3.102 8.675,7.332 11.853,8.524 6.254,2.346 9.091,6.789 5.388,10.709 -3.077,3.256 -7.076,11.3 -9.635,17.561 -1.957,4.787 -4.355,10.724 -6.101,16.553 -5.061,16.899 -6.809,18.705 -17.285,10.333 l -4.943,-3.949 c -5.047,-4.034 -11.9,-11.919 -13.597,-13.423 -2.134,-1.891 0.981,-4.808 0.553,-5.261 z"
       id="path50" />
    <path
       style="fill:#efa417;stroke:#efa417;stroke-width:0.500094"
       d="m 113.135,583.573 c 2.546,3.587 7.105,8.127 10.807,10.555 3.354,2.199 5.306,4.736 9.359,5.018 0.923,0.064 1.736,-2.695 2.486,-4.534 1.091,-2.672 3.105,-11.359 3.439,-12.418 2.1,-6.664 14.43,-25.125 10.274,-28.981 -1.919,-1.781 -5.207,-3.24 -6.942,-4.976 -4.05,-4.049 -8.93,-5.791 -10.992,0.463 -1.175,3.565 -10.451,19.726 -12.959,23.488 -1.762,2.643 -5.588,8.261 -5.472,11.385 z"
       id="path52" />
    <path
       style="fill:#424a53;stroke:#424a53;stroke-width:0.500094"
       d="m 337.347,637.313 c -10.749,4.217 -38.481,12.749 -65.238,3.463 -10.196,11.363 1.019,10.633 12.465,9.824 10.074,-0.713 19.593,-1.061 29.914,-2.506 6.053,-0.847 14.506,0.547 20.672,0.7 4.372,0.107 3.129,-2.12 2.395,-5.504 -0.433,-1.992 -0.387,-3.984 -0.208,-5.977 z"
       id="path54" />
    <path
       style="fill:#b6bcc6;stroke:#b6bcc6;stroke-width:0.500094"
       d="m 239.955,568.996 c 2.23,8.911 -0.22,18.478 -4.334,21.548 -3.845,2.717 -2.712,3.582 -1.082,5.289 16.895,17.56 22.452,22.72 36.889,34.886 15.87,10.488 46.415,8.17 64.008,-2.299 1.45,-0.767 2.848,-2.747 2.793,-4.736 -0.633,-22.764 1.465,-55.995 8.341,-84.538 0.776,-3.397 -2.277,-3.083 -2.772,-3.108 -31.698,1.954 -55.738,4.741 -77.736,4.323 -14.084,-0.799 -37.714,3.891 -42.043,-1.983 -6.963,-10.44 -1.362,-26.19 -2.249,-38.7 -1.064,-15.025 -1.458,-36.783 3.14,-42.175 7.005,-8.217 46.451,-5.78 74.215,-11.397 31.608,-3.773 49.453,-3.142 68.912,-1.608 2.865,0.323 11.658,4.022 11.323,8.98 -0.201,4.026 -1.242,8.144 -0.23,12.729 0.804,2.953 1.61,2.361 3.534,2.608 3.334,-0.143 2.737,0.106 4.71,-0.201 2.624,-0.666 0.942,-1.432 1.291,-5.375 0.229,-14.171 -4.722,-33.729 -26.016,-54.322 -21.293,-20.592 -30.799,-20.643 -51.81,-20.334 -38.953,4.217 -60.911,15.299 -76.078,32 -20.909,27.808 -32.34,47.744 -30.032,111.02 0.163,7.889 4.383,12.397 24.472,24.345 l 10.754,13.048 z"
       id="path56" />
    <path
       style="fill:#efa417;stroke:#efa417;stroke-width:0.500094"
       d="m 355.62,529.278 c 0.549,-3.005 6.013,-31.122 7.105,-35.477 1.371,-5.465 1.828,-6.428 6.176,-5.192 8.566,2.438 4.819,13.435 4.049,21.132 -1.292,12.917 -2.427,24.425 -3.914,36.21 -2.907,23.042 -7.973,50.453 -13.074,74.879 -2.228,10.67 -2.534,25.814 -5.521,33.163 -0.418,1.03 -3.024,-0.418 -3.495,-2.898 -4.087,-21.524 -1.217,-34.093 -1.217,-55.593 0,-14.063 7.259,-51.817 9.891,-66.224 z"
       id="path58" />
    <path
       style="fill:#f8d222;stroke:#f8d222;stroke-width:0.500094"
       d="m 359.828,651.35 c 6.968,-42.449 16.399,-97.964 23.748,-149.613 0.306,-1.943 4.034,-6.907 5.481,-7.48 5.44,-2.914 6.286,-4.589 11.726,-7.503 25.645,1.36 54.178,4.295 79.823,5.655 16.734,5.949 29.794,11.505 40.097,19.029 4.867,2.915 6.504,12.219 2.405,17.895 -8.018,13.159 -17.424,25.551 -25.592,38.584 -19.932,31.8 -39.627,61.582 -65.259,90.194 -3.692,4.604 -11.017,13.695 -20.692,11.889 -13.677,-4.332 -28.85,-5.673 -41.673,-7.227 -7.557,-0.602 -11.054,-7.188 -10.064,-11.423 z"
       id="path60" />
    <path
       style="fill:#000000;stroke:#000000;stroke-width:0.500094"
       d="m 482.131,528.976 c -1.24,2.617 -3.135,5.104 -5.427,8.592 -1.732,2.636 -3.56,8.568 0.613,10.55 l 9.027,4.287 c 2.513,1.193 2.638,3.744 3.605,3.714 7.3,-0.23 1.515,-0.835 10.207,-7.899 1.874,-1.522 4.365,-4.669 5.873,-6.478 l 7.763,-9.313 c 8.035,-4.775 3.367,-9.623 -2.964,-12.71 -4.453,-2.172 -12.663,-5.425 -17.849,-5.425 -1.051,0 -3.537,0.906 -4.076,1.679 -2.11,3.025 -4.736,8.702 -6.772,13.003 z"
       id="path62" />
    <path
       style="fill:#000000;stroke:#000000;stroke-width:0.500094"
       d="m 392.849,500.413 75.864,3.525 c 3.249,0.151 8.808,1.341 12.127,1.974 2.804,0.536 5.621,2.533 4.794,5.218 -0.786,2.554 -11.571,16.516 -11.986,17.062 -1.95,2.567 -9.215,16.357 -14.101,16.357 -9.165,0 -20.165,-3.95 -29.753,-5.499 -9.622,-1.554 -20.341,-3.103 -30.036,-4.089 -10.1,-1.029 -12.991,-2.183 -11.844,-11.845 0.987,-8.32 -0.706,-20.87 4.935,-22.703 z"
       id="path64" />
    <path
       style="fill:#000000;stroke:#000000;stroke-width:0.500094"
       d="m 250.062,205.816 c 0.002,0 0.004,-0.001 0.006,-0.002 0.096,-0.035 0.194,-0.065 0.292,-0.091 5.797,-1.844 11.86,-4.389 18.071,-3.058 5.138,1.101 10.974,5.938 13.68,10.413 3.165,5.232 1.541,11.415 -1.495,16.3 -6.549,10.538 -20.003,18.998 -32.287,14.085 -5.353,-2.141 -10.193,-5.673 -11.845,-11.478 -1.648,-5.789 -0.555,-12.401 3.196,-17.132 l 9.062,-8.196 c 0.006,-0.007 0.014,-0.013 0.021,-0.02 0.119,-0.117 0.246,-0.226 0.382,-0.327 0.011,-0.008 0.023,-0.017 0.034,-0.025 0.019,-0.014 0.037,-0.027 0.056,-0.04 0.006,-0.004 0.011,-0.008 0.017,-0.011 0.045,-0.031 0.089,-0.061 0.135,-0.089 0.012,-0.008 0.025,-0.015 0.038,-0.023 0.197,-0.12 0.405,-0.22 0.618,-0.299 0.006,-0.002 0.012,-0.005 0.019,-0.007 z"
       id="path66" />
    <path
       style="fill:#f8d222;stroke:#f8d222;stroke-width:0.500094"
       d="m 300.245,315.651 c 1.574,0.947 2.515,-0.606 10.498,-5.352 7.187,-4.273 15.25,-7.945 20.533,-11.763 7.354,-5.315 25.549,-17.509 24.641,-25.042 -0.642,-5.321 -14.214,10.566 -18.936,14.215 -10.67,8.247 -20.691,18.004 -35.328,24.669 -1.166,0.576 -2.139,2.442 -1.408,3.273 z"
       id="path68" />
    <path
       style="fill:#f8d222;stroke:#f8d222;stroke-width:0.500094"
       d="m 238.507,279.676 c 1.909,0.597 6.445,4.889 7.159,5.369 l 6.204,4.176 c 2.387,1.552 8.966,4.859 11.693,6.205 6.46,3.188 14.731,8.157 20.762,12.409 l 9.306,6.562 c 4.417,3.114 -5.012,3.361 -11.096,-0.477 -4.609,-2.907 -13.006,-5.803 -18.733,-9.187 -4.88,-2.884 -14.437,-7.159 -18.494,-10.858 -2.563,-2.337 -5.748,-3.694 -6.682,-7.517 -0.378,-1.546 -2.148,-7.04 -0.119,-6.682 z"
       id="path70" />
    <path
       style="fill:#f8d222;stroke:#f8d222;stroke-width:0.500094"
       d="m 244.212,274.334 c 0.191,2.278 5.742,6.266 8.352,7.403 7.403,3.227 15.172,8.003 20.501,10.63 8.148,4.016 13.668,11.39 24.108,11.39 5.505,0 14.502,-7.123 18.982,-10.061 6.075,-3.983 12.067,-8.629 17.084,-13.288 l 15.945,-14.806 c 2.837,-2.634 -1.374,-4.982 -4.745,-7.593 -6.409,-4.963 -10.058,-4.947 -18.983,-10.06 -7.083,-4.059 -19.843,-7.971 -28.473,-6.644 -7.403,1.138 -18.638,6.738 -26.006,10.44 -8.674,4.358 -26.955,14.047 -26.765,22.589 z"
       id="path72" />
    <path
       style="fill:#000000;stroke:#000000;stroke-width:0.500094"
       d="m 297.904,545.735 c 2.396,-0.288 4.556,0.259 5.919,2.701 2.06,3.686 -0.232,7.974 -4.483,7.802 -3.554,-0.144 -8.933,-3.863 -6.925,-8.003 1.011,-2.084 3.189,-2.289 5.237,-2.515 0.086,0 0.169,0.005 0.252,0.015 z"
       id="path74" />
    <path
       style="fill:#000000;stroke:#000000;stroke-width:0.500094"
       d="m 294.603,560.095 c 0.438,-0.516 1.128,-0.794 1.843,-0.675 3.294,1.113 6.066,4.692 4.64,8.272 -1.198,3.005 -5.618,1.937 -7.535,0.531 -2.1,-1.54 -3.415,-4.711 -1.413,-6.86 0.701,-0.753 1.55,-1.086 2.465,-1.268 z"
       id="path76" />
    <path
       style="fill:none;stroke:none"
       d="m 295.859,248.272 -3.157,21.914 c -1.485,10.309 1.044,10.501 1.26,22.27"
       id="path80" />
    <path
       style="fill:#1f2123;stroke:#1f2123;stroke-width:0.500094"
       d="m 467.032,370.467 c -19.85,-45.516 -51.177,-74.955 -60.487,-85.241 -0.147,-0.163 -0.29,-0.322 -0.426,-0.475 -5.555,-6.336 -12.057,-13.893 -13.059,-25.558 0.993,-23.854 2.247,-42.934 0.369,-65.301 -1.801,-28.672 -6.944,-59.21 -43.6,-69.757 30.16,20.427 29.66,42.071 32.427,61.447 1.985,24.27 -1.256,56.069 -1.545,71.746 -1.87,20.407 10.016,26.761 14.744,32.878 13.685,14.682 50.186,44.053 71.577,80.261 z"
       id="path82" />
    <path
       style="fill:#efa417;stroke:#efa417;stroke-width:0.500094"
       d="m 464.018,508.461 c 1.79,0 13.877,1.413 10.307,7.147 -4.252,6.826 -4.648,9.844 -9.88,16.65 -7.507,9.764 -13.314,5.362 -19.591,4.304 l -23.768,-4.002 c -27.075,-4.561 -25.359,-3.802 -25.359,-8.88 l 0,-12.528 c 17.301,-3.191 36.202,1.265 53.259,-2.884 1.998,-0.461 10.603,-2.459 12.14,-0.922 0.614,0.614 2.485,0.962 2.892,1.115 z"
       id="path84" />
    <path
       style="fill:#000000;stroke:#000000;stroke-width:0.500094"
       d="m 310.591,548.58 c 0.421,-1.593 1.319,-2.973 3.257,-3.183 3.292,-0.356 9.214,2.81 8.056,6.832 -0.826,2.867 -5.66,4.193 -8.116,2.885 -1.5,-0.8 -2.313,-2.316 -3.28,-3.642 -0.776,-0.777 -0.776,-2.036 0,-2.812 0.028,-0.028 0.055,-0.054 0.083,-0.08 z"
       id="path86" />
    <path
       style="fill:#000000;stroke:#000000;stroke-width:0.500094"
       d="m 314.978,559.301 c 1.714,2.222 2.526,5.314 1.347,7.969 -1.123,2.526 -3.846,2.472 -5.775,0.918 -2.448,-1.972 -3.504,-5.559 -1.937,-8.409 0.902,-1.639 2.286,-2.359 3.948,-3.025 1.059,-0.293 2.155,0.327 2.448,1.385 0.111,0.397 0.091,0.799 -0.031,1.162 z"
       id="path88" />
    <path
       style="fill:#424a53;stroke:#424a53;stroke-width:0.500094"
       d="m 296.969,549.787 -0.762,0.101 -0.149,0.064 -0.024,0.014 0.015,0.074 0.118,0.279 c 0.528,0.909 4.496,3.388 4.448,1.075 -0.034,-1.639 -1.255,-2.032 -2.614,-1.707 -0.341,0.129 -0.696,0.157 -1.032,0.1 z"
       id="path90" />
    <path
       style="fill:#424a53;stroke:#424a53;stroke-width:0.500094"
       d="m 296.355,563.842 -1.091,0.136 -0.125,0.049 -0.014,0.007 0.005,0.026 0.082,0.191 c 0.485,0.837 1.345,1.21 2.253,1.363 l -0.064,-0.264 c -0.22,-0.528 -0.484,-1.097 -0.887,-1.516 -0.052,0.005 -0.105,0.008 -0.159,0.008 z"
       id="path92" />
    <path
       style="fill:#000000;stroke:#000000;stroke-width:0.500094"
       d="m 325.735,547.45 c 2.512,-3.106 8.664,-3.632 10.675,0.448 1.113,2.258 0.132,5.033 -2.494,5.421 -1.802,0.266 -3.656,-0.584 -5.293,-1.182 l -0.453,-0.175 -0.077,-0.028 c -1.058,-0.045 -1.901,-0.916 -1.901,-1.986 0,-0.004 10e-4,-0.007 10e-4,-0.01 -0.715,-0.6 -0.929,-1.641 -0.458,-2.488 z"
       id="path94" />
    <path
       style="fill:#000000;stroke:#000000;stroke-width:0.500094"
       d="m 330.829,558.627 c 2.469,1.107 6.172,2.711 5.033,5.892 -1.471,4.106 -8.986,4.958 -10.499,0.49 -0.97,-2.866 0.848,-5.174 3.004,-6.765 0.824,-0.475 1.847,-0.293 2.462,0.383 z"
       id="path96" />
    <path
       style="fill:#000000;stroke:#000000;stroke-width:0.500094"
       d="m 270.164,546.402 c 4.619,-1.875 11.107,-0.078 13.616,4.334 3.166,5.567 4.467,12.057 -1.42,16.231 -5.239,3.714 -14.483,3.822 -18.817,-1.429 -4.008,-4.856 -3.843,-12.723 1.146,-16.827 1.685,-1.386 3.495,-1.985 5.475,-2.309 z"
       id="path98" />
    <path
       style="fill:#424a53;stroke:#424a53;stroke-width:0.500094"
       d="m 267.302,556.065 c -0.123,0.483 -0.16,1.019 -0.089,1.608 0.684,5.661 7.078,6.884 11.448,3.938 3.969,-2.675 -0.421,-9.713 -4.77,-9.419 -0.035,0.021 -0.07,0.042 -0.106,0.061 1.06,0.754 1.606,2.106 1.271,3.444 -0.436,1.744 -2.202,2.804 -3.946,2.368 -1.231,-0.445 -2.677,-1.094 -3.808,-2 z"
       id="path100" />
    <path
       style="fill:#424a53;stroke:#424a53;stroke-width:0.500094"
       d="m 314.265,550.164 c 0.558,0.884 1.21,1.628 2.302,1.336 l 1.17,-0.385 -0.125,-0.195 -0.777,-0.741 -0.912,-0.556 c -1.298,-0.666 -1.573,-0.493 -1.658,0.541 z"
       id="path102" />
    <path
       style="fill:#424a53;stroke:#424a53;stroke-width:0.500094"
       d="m 312.107,561.91 c -0.448,0.921 -0.245,2.067 0.686,2.959 l 0.006,-0.231 c -0.09,-0.906 -0.214,-1.927 -0.692,-2.728 z"
       id="path104" />
    <path
       style="fill:#424a53;stroke:#424a53;stroke-width:0.500094"
       d="m 331.605,548.968 c 0.264,0.096 0.51,0.183 0.73,0.246 l 0.268,0.06 c -0.226,-0.183 -0.588,-0.276 -0.998,-0.306 z"
       id="path106" />
    <path
       style="fill:#424a53;stroke:#424a53;stroke-width:0.500094"
       d="m 329.538,562.469 c -0.456,0.535 -0.812,1.194 -0.249,1.513 0.617,0.35 1.63,-0.199 2.201,-0.501 l -1.952,-1.012 z"
       id="path108" />
    <path
       style="fill:#000000;stroke:#000000;stroke-width:0.500094"
       d="m 253.347,563.463 c -0.005,0.891 -0.374,1.778 -1.093,2.417 -4.581,3.154 -9.342,5.848 -15.118,4.294 -8.297,-2.233 -12.905,-12.736 -8.108,-20.108 4.297,-6.603 12.28,-5.68 18.964,-4.055 6.926,1.685 6.809,9.464 6.065,15.006 -0.111,0.827 -0.347,1.671 -0.71,2.446 z"
       id="path110" />
    <path
       style="fill:#424a53;stroke:#424a53;stroke-width:0.500094"
       d="m 245.615,557.205 1.955,1.829 0.173,0.129 c 0.369,-2.508 1.144,-6.356 -2.013,-7.049 -4.155,-0.912 -10.961,-2.255 -12.048,3.552 -0.648,3.462 1.699,7.306 5.124,8.218 1.523,0.405 2.936,0.267 4.272,-0.171 -0.713,-0.645 -1.394,-1.312 -2.065,-1.906 -1.271,-1.271 -1.271,-3.331 0,-4.602 1.271,-1.27 3.331,-1.27 4.602,0 z"
       id="path112" />
    <path
       style="fill:#000000;stroke:#000000;stroke-width:0.500094"
       d="m 248.165,498.513 9.59,-5.826 c 5.089,-2.321 10.436,-1.122 15.858,-1.833 5.609,-0.735 12.658,-3.012 13.985,-9.454 0.905,-4.396 1.957,-10.386 -0.558,-14.532 -4.122,-6.792 -14.222,-5.811 -20.805,-5.094 -8.498,0.925 -17.133,4.004 -23.302,10.112 -4.848,4.802 -6.515,10.098 -8.147,16.164 -1.436,4.793 -0.679,10.423 4.714,12.833 3.608,1.613 6.177,-0.82 8.665,-2.37 z"
       id="path114" />
    <path
       style="fill:#adeca8;stroke:#adeca8;stroke-width:0.500094"
       d="m 243.091,493.939 c -2.522,1.479 -1.809,-3.165 -1.428,-4.431 1.467,-5.428 2.725,-9.551 6.491,-13.262 7.051,-6.946 17.425,-8.622 26.914,-8.729 1.566,-0.018 6.883,0.236 7.2,2.857 0.376,3.109 1.222,9.121 -1.906,11.536 -4.483,3.463 -11.499,2.193 -16.693,2.52 -6.009,0.377 -16.307,5.274 -20.578,9.509 z"
       id="path116" />
    <path
       style="fill:#d2f799;stroke:#d2f799;stroke-width:0.500094"
       d="m 354.161,499.012 c -0.272,1.187 -0.527,2.326 -0.768,3.421 -0.338,0.189 -0.727,0.297 -1.143,0.297 -4.945,0.382 -11.024,2.019 -16,0.841 -4.57,-1.082 -11.365,-1.696 -15.436,1.133 -2.722,1.891 -5.949,2.138 -7.052,-1.628 l -0.302,-1.363 -0.251,-0.916 -0.048,-0.099 -0.203,-0.012 -0.281,0.021 c -3.75,0.506 -4.53,8.779 -9.192,7.069 -1.632,-0.599 -2.74,-2.446 -3.184,-4.04 l -2.815,-13.974 -2.945,7.099 -5.55,13.378 -0.123,0.27 c -0.657,1.512 -2.907,2.17 -4.084,0.831 -2.1,-2.391 -1.432,-6.373 -3.136,-9.1 -0.732,-1.172 -1.882,-0.377 -2.554,0.552 -2.409,3.338 -2.384,10.958 -8.461,9.154 -3.411,-1.013 -5.846,-4.166 -8.86,-5.908 -1.083,-0.626 -2.643,0.76 -3.517,1.042 -1.625,0.524 -3.309,0.828 -5.013,0.927 l -24.278,1.003 c -0.013,0.001 -0.025,0.001 -0.038,0.001 -0.048,-1.448 -0.101,-3.025 -0.153,-4.697 l 24.469,-1.007 c 3.394,-0.178 6.875,-3.345 10.27,-1.635 3.025,1.522 5.209,4.17 8.199,5.667 l 0.3,0.114 0.073,0.017 0.066,-0.092 0.271,-0.546 0.649,-1.846 c 1.467,-4.016 4.782,-10.124 10.106,-7.549 2.026,0.98 3.155,3.19 3.842,5.287 l 3.18,-7.664 5.549,-13.374 0.195,-0.393 c 0.834,-1.772 3.416,-1.502 4.306,0.008 0.84,1.425 1.067,3.552 1.349,5.074 l 1.847,10.588 1.244,5.087 0.044,0.1 c 2.301,-3.184 5.273,-7.203 9.794,-5.979 1.446,0.391 2.517,1.517 3.053,2.898 l 0.474,1.651 0.034,0.156 c 2.411,-1.603 4.47,-2.192 7.402,-2.454 l 2.697,-0.205 5.26,-0.01 4.167,0.903 -0.189,-0.091 0.262,0.043 0.549,0.036 0.749,0.003 13.265,-1.071 c 0.788,0 1.485,0.386 1.911,0.982 z"
       id="path118" />
    <path
       style="fill:#424a53;stroke:#424a53;stroke-width:0.500094"
       d="m 278.606,344.29 c -1.223,1.27 -1.84,2.793 -0.933,5.004 0.926,2.258 2.897,2.929 5.159,2.419 1.802,-0.407 1.022,-3.574 0.275,-4.557 -1.003,-1.318 -2.834,-2.127 -4.501,-2.866 z"
       id="path120" />
    <path
       style="fill:#424a53;stroke:#424a53;stroke-width:0.500094"
       d="m 275.57,323.019 c -1.01,1.039 -2.043,2.361 -1.315,3.471 0.678,1.033 1.636,1.807 2.78,2.284 l 0.666,0.221 0.525,0.075 0.154,-0.03 -0.015,0.009 -0.166,0.107 -0.186,0.165 0.129,-0.02 0.264,-0.266 0.073,-0.014 -0.015,-0.033 -0.039,0.024 0.297,-0.475 c 1.486,-2.902 -0.87,-4.241 -3.152,-5.518 z"
       id="path122" />
    <path
       style="fill:#424a53;stroke:#424a53;stroke-width:0.500094"
       d="m 279.961,366.995 c -0.52,1.717 -0.801,3.474 -0.377,5.381 l 0.215,0.479 0.098,0.115 0.068,0.028 0.018,-0.048 -0.044,-0.096 -0.093,-0.107 c -0.575,-0.601 2.303,-0.597 2.453,-1.441 0.268,-1.507 -0.934,-3.019 -2.338,-4.311 z"
       id="path124" />
    <path
       style="fill:#000000;stroke:#000000;stroke-width:0.500094"
       d="m 388.055,491.931 c 7.415,11.614 8.662,20.574 14.84,31.834 10.514,16.263 28.007,11.836 31.437,10.404 11.73,-5.163 20.5,-17.082 36.88,-28.388 7.006,-6.081 10.829,-15.698 8.995,-19.834 l -83.308,0.82 -8.844,5.164 z"
       id="path126" />
    <path
       style="fill:#424a53;stroke:#424a53;stroke-width:0.500094"
       d="m 413.013,523.761 c -1.306,-0.979 -5.262,-8.427 -6.448,-11.599 -2.689,-7.194 -9.113,-16.83 -9.113,-24.883 0,-8.272 -3.863,-12.212 7.597,-16.81 12.486,-5.009 26.287,-6.181 40.838,-4.396 8.287,1.016 20.914,4.329 25.404,10.903 3.275,4.795 -1.478,18.075 -4.536,20.911 l -17.767,16.482 c -3.862,3.582 -12.447,11.546 -19.63,11.546 -2.612,0 -10.924,1.2 -16.345,-2.154 z"
       id="path128" />
    <path
       style="fill:#efa417;stroke:#efa417;stroke-width:0.500094"
       d="m 497.371,520.641 c -4.763,0.772 -11.951,14.588 -14.838,19.526 -3.306,5.657 8.621,8.418 10.232,7.836 4.678,-1.689 7.925,-7.893 8.963,-9.035 2.214,-2.431 10.48,-11.767 7.515,-13.185 -5.084,-2.431 -6.622,-4.793 -11.872,-5.142 z"
       id="path130" />
    <path
       style="fill:none;stroke:none"
       d="m 253.108,272.087 c 5.49,-0.845 -0.845,5.912 -0.845,0.422"
       id="path134" />
    <path
       style="fill:none;stroke:none"
       d="m 264.51,280.111 c 1.267,-1.056 3.59,-2.956 3.167,0.211 -0.422,2.956 -4.223,-0.634 -2.322,-1.478"
       id="path138" />
    <path
       style="fill:none;stroke:none"
       d="m 276.757,287.923 c 0,-8.235 1.056,4.857 0,0.423 -0.422,-1.689 -4.434,1.056 -0.845,-3.168"
       id="path142" />
    <path
       style="fill:none;stroke:none"
       d="m 302.307,291.302 c -0.845,-2.745 3.8,-1.689 5.067,-0.422 1.69,1.689 -1.478,4.012 -3.378,1.478"
       id="path146" />
    <path
       style="fill:none;stroke:none"
       d="m 318.777,282.645 c 0,-1.69 2.534,-4.012 4.223,-2.534 1.478,1.267 -3.167,3.589 -3.167,1.689"
       id="path150" />
    <path
       style="fill:none;stroke:none"
       d="m 338.414,269.342 c -7.39,-2.323 6.546,0.844 -0.211,0.844"
       id="path154" />
    <path
       style="fill:#000000;stroke:#000000;stroke-width:0.500094"
       d="m 258.581,132.113 0.295,-1.44 0.068,-0.213 c 0.13,-1.175 1.126,-2.09 2.335,-2.09 1.298,0 2.351,1.053 2.351,2.351 l -0.295,1.44 -0.067,0.209 c -0.128,1.178 -1.126,2.094 -2.337,2.094 -1.298,0 -2.35,-1.053 -2.35,-2.351 z"
       id="path156" />
    <path
       style="fill:#000000;stroke:#000000;stroke-width:0.500094"
       d="m 248.739,141.528 c -1.601,-1.055 -3.019,-2.672 -1.344,-4.398 0.638,-0.657 1.543,-0.682 2.394,-0.751 1.298,0 2.35,1.052 2.35,2.35 0,0.118 -0.008,0.235 -0.025,0.348 0.07,0.462 0.002,0.949 -0.222,1.398 -0.58,1.162 -1.992,1.633 -3.153,1.053 z"
       id="path158" />
    <path
       style="fill:#000000;stroke:#000000;stroke-width:0.500094"
       d="m 273.344,131.02 c -1.546,-0.923 -4.112,-2.434 -2.777,-4.654 0.924,-1.537 2.721,-1.426 4.292,-1.478 1.298,0 2.35,1.053 2.35,2.351 0,0.479 -0.143,0.926 -0.39,1.297 0.103,0.533 0.022,1.102 -0.268,1.61 -0.644,1.127 -2.08,1.518 -3.207,0.874 z"
       id="path160" />
    <path
       style="fill:#000000;stroke:#000000;stroke-width:0.500094"
       d="m 284.175,129.549 c -2.051,-0.676 -4.142,-1.562 -3.837,-4.14 0.318,-2.692 4.103,-4.802 6.369,-3.022 1.622,1.274 0.924,3.253 0.351,4.858 -0.033,0.067 -0.069,0.132 -0.107,0.194 -0.007,0.077 -0.018,0.154 -0.033,0.232 -0.239,1.276 -1.467,2.117 -2.743,1.878 z"
       id="path162" />
    <path
       style="fill:#000000;stroke:#000000;stroke-width:0.500094"
       d="m 295.985,129.891 c -2.559,-0.803 -5.481,-2.802 -3.529,-5.832 2.278,-3.537 6.42,-1.396 6.688,2.135 0,0.455 -0.129,0.88 -0.353,1.24 0.013,0.201 10e-4,0.407 -0.04,0.614 -0.255,1.273 -1.493,2.098 -2.766,1.843 z"
       id="path164" />
    <path
       style="fill:#000000;stroke:#000000;stroke-width:0.500094"
       d="m 304.59,127.023 c -1.264,-1.217 -2.255,-2.819 -0.603,-4.278 2.369,-2.09 7.775,0.524 7.487,3.692 -0.203,2.232 -2.984,2.327 -4.582,2.455 -1.134,0 -2.08,-0.801 -2.302,-1.869 z"
       id="path166" />
    <path
       style="fill:#000000;stroke:#000000;stroke-width:0.500094"
       d="m 323.257,130.982 c -2.279,-0.159 -6.378,-1.101 -4.858,-4.386 0.991,-2.14 4.238,-2.946 6.174,-1.692 1.238,0.802 1.592,1.996 1.73,3.379 0,1.059 -0.701,1.956 -1.664,2.249 -0.388,0.283 -0.865,0.45 -1.382,0.45 z"
       id="path168" />
    <path
       style="fill:#000000;stroke:#000000;stroke-width:0.500094"
       d="m 347.404,135.83 c 1.612,-0.767 3.365,-1.131 4.585,0.341 2.392,2.885 -2.249,7.396 -5.332,6.304 -0.484,-0.172 -0.87,-0.424 -1.178,-0.735 -0.61,-0.108 -1.176,-0.456 -1.546,-1.011 -0.639,-0.96 -0.481,-2.217 0.32,-2.991 0.145,-1.159 1.134,-2.056 2.332,-2.056 0.288,0 0.563,0.053 0.819,0.148 z"
       id="path170" />
    <path
       style="fill:#000000;stroke:#000000;stroke-width:0.500094"
       d="m 333.793,128.576 c 0.106,-0.45 0.326,-0.886 0.643,-1.264 0.917,-0.917 2.405,-0.917 3.323,0 0.114,0.114 0.213,0.237 0.298,0.366 l 0.526,0.32 c 5.453,4.065 -5.784,10.141 -7.365,4.423 -0.584,-2.109 0.855,-3.252 2.575,-3.845 z"
       id="path172" />
    <path
       style="fill:#000000;stroke:#000000;stroke-width:0.500094"
       d="m 354.483,150.534 c -1.804,-0.746 -3.844,-2.061 -2.933,-4.384 1.936,-4.935 11.861,-1.797 9.861,3.125 -1.051,2.586 -4.114,2.004 -6.278,1.367 -0.216,-0.005 -0.433,-0.04 -0.65,-0.108 z"
       id="path174" />
    <path
       style="fill:#000000;stroke:#000000;stroke-width:0.500094"
       d="m 360.204,158.846 c -0.105,-2.008 0.136,-4.362 2.498,-4.857 3.39,-0.711 8.413,5.566 5.38,8.381 -2.079,1.931 -5.001,-0.248 -6.843,-1.316 -0.755,-0.503 -1.125,-1.365 -1.035,-2.208 z"
       id="path176" />
    <path
       style="fill:#000000;stroke:#000000;stroke-width:0.500094"
       d="m 365.681,173.358 c -1.285,-1.236 -3.668,-3.339 -2.048,-5.343 2.096,-2.594 8.802,-1.036 8.998,2.547 0.132,2.399 -2.365,2.849 -4.335,3.002 -0.808,0.455 -1.843,0.405 -2.615,-0.206 z"
       id="path178" />
    <path
       style="fill:#000000;stroke:#000000;stroke-width:0.500094"
       d="m 366.97,179.521 c 0.668,-1.088 1.676,-1.799 3.206,-1.515 3.973,0.735 4.505,7.545 0.586,8.807 -1.584,0.509 -2.862,0.193 -3.827,-0.585 -0.49,-0.268 -0.875,-0.705 -1.074,-1.234 -0.569,-0.907 -0.927,-2.018 -1.07,-3.13 0,-1.24 0.961,-2.256 2.179,-2.343 z"
       id="path180" />
    <path
       style="fill:#000000;stroke:#000000;stroke-width:0.500094"
       d="m 366.882,195.121 c 10e-4,-0.008 0.003,-0.016 0.004,-0.024 -0.889,-1.11 -1.154,-2.552 -1.171,-3.948 0.08,-1.296 1.194,-2.282 2.49,-2.202 0.692,0.042 1.294,0.381 1.695,0.883 0.619,-0.226 1.356,-0.221 2.233,0.125 2.109,0.832 3.322,3.976 1.812,5.832 -0.724,0.89 -1.832,1.239 -2.977,1.206 -0.502,0.564 -1.264,0.875 -2.067,0.768 -1.287,-0.171 -2.191,-1.353 -2.019,-2.64 z"
       id="path182" />
    <path
       style="fill:#000000;stroke:#000000;stroke-width:0.500094"
       d="m 366.711,243.253 c -2.14,-1.948 -2.704,-4.666 10e-4,-6.518 3.673,-2.514 8.917,1.307 7.159,5.589 -0.739,1.801 -2.816,2.734 -4.647,2.049 -0.488,-0.183 -0.883,-0.437 -1.205,-0.746 -0.448,0.007 -0.902,-0.113 -1.308,-0.374 z"
       id="path184" />
    <path
       style="fill:#000000;stroke:#000000;stroke-width:0.500094"
       d="m 363.062,253.311 c 0.952,-2.018 2.271,-4.97 5.094,-3.857 3.461,1.365 4.881,8.753 1.239,10.632 -2.308,1.191 -4.24,-0.67 -5.954,-2.015 -0.824,-0.823 -0.909,-2.105 -0.255,-3.022 -0.254,-0.523 -0.314,-1.141 -0.124,-1.738 z"
       id="path186" />
    <path
       style="fill:#000000;stroke:#000000;stroke-width:0.500094"
       d="m 364.477,277.674 c -0.51,-1.449 -0.608,-2.979 1.097,-3.86 2.79,-1.442 7.426,1.83 6.267,4.997 -0.809,2.211 -3.385,2.253 -5.347,2.42 -1.298,0 -2.35,-1.052 -2.35,-2.35 0,-0.442 0.121,-0.854 0.333,-1.207 z"
       id="path188" />
    <path
       style="fill:#000000;stroke:#000000;stroke-width:0.500094"
       d="m 368.32,291.409 c 0.229,-2.722 1.853,-4.523 4.755,-4.29 2.14,0.172 5.586,1.881 5.324,4.485 -0.082,0.812 -0.473,1.503 -1.105,1.974 -0.897,2.04 -3.853,3.126 -5.815,1.565 -0.436,-0.346 -0.755,-0.844 -0.913,-1.386 -1.25,-0.055 -2.246,-1.085 -2.246,-2.348 z"
       id="path190" />
    <path
       style="fill:#000000;stroke:#000000;stroke-width:0.500094"
       d="m 377.875,299.502 c 1.985,-2.181 5.125,-4.315 8.258,-3.062 4.838,1.933 2.627,6.95 -1.028,8.511 -1.377,0.588 -3.667,0.859 -4.576,-0.729 l -0.482,-0.954 -0.009,-0.031 c -0.135,-0.074 -0.263,-0.16 -0.38,-0.258 -0.297,-0.035 -0.592,-0.127 -0.869,-0.281 -1.135,-0.63 -1.544,-2.061 -0.914,-3.196 z"
       id="path192" />
    <path
       style="fill:#000000;stroke:#000000;stroke-width:0.500094"
       d="m 392.26,312.253 c -0.088,-0.028 -0.176,-0.057 -0.265,-0.088 -0.489,-0.021 -0.978,-0.067 -1.465,-0.124 -1.004,-0.287 -1.669,-1.185 -1.704,-2.175 -0.354,-0.697 -0.408,-1.54 0.029,-2.546 1.312,-3.02 5.725,-3.056 7.872,-1.031 1.485,1.401 1.599,3.812 -0.297,4.949 -0.871,0.523 -1.805,0.784 -2.763,0.887 -0.43,0.181 -0.917,0.235 -1.407,0.128 z"
       id="path194" />
    <path
       style="fill:#000000;stroke:#000000;stroke-width:0.500094"
       d="m 416.208,335.904 c -1.787,-1.168 -5.454,-3.337 -3.163,-5.92 1.933,-2.177 6.675,-0.549 8.742,0.445 1.594,0.766 3.03,2.821 1.53,4.446 -1.343,1.456 -3.449,1.223 -5.255,1.33 -0.12,0 -0.237,-0.008 -0.352,-0.025 -0.5,0.076 -1.027,-0.009 -1.502,-0.276 z"
       id="path196" />
    <path
       style="fill:#000000;stroke:#000000;stroke-width:0.500094"
       d="m 399.133,321.246 c 0.205,-2.1 1.113,-4.444 3.573,-4.702 2.95,-0.308 7.779,2.181 5.944,5.797 -1.292,2.546 -4.799,2.423 -7.167,2.585 -1.298,0 -2.35,-1.052 -2.35,-2.35 0,-0.231 0.033,-0.453 0.095,-0.664 -0.062,-0.211 -0.095,-0.435 -0.095,-0.666 z"
       id="path198" />
    <path
       style="fill:#000000;stroke:#000000;stroke-width:0.500094"
       d="m 426.369,342.627 c 1.879,-3.041 6.734,-5.137 8.725,-0.834 1.964,4.248 -2.58,8.094 -6.659,6.823 -1.794,-0.559 -2.773,-1.822 -3.223,-3.558 -0.167,-1 0.324,-1.958 1.157,-2.431 z"
       id="path200" />
    <path
       style="fill:#000000;stroke:#000000;stroke-width:0.500094"
       d="m 438.823,359.598 c -2.112,-2.05 -2.069,-5.044 0.695,-6.536 2.849,-1.537 10.774,-2.028 9.626,3.426 -0.612,2.904 -4.519,5.618 -7.434,4.246 -0.372,-0.174 -0.685,-0.389 -0.947,-0.633 -0.665,0.125 -1.379,-0.036 -1.94,-0.503 z"
       id="path202" />
    <path
       style="fill:#000000;stroke:#000000;stroke-width:0.500094"
       d="m 449.504,367.991 c 0.459,-0.329 1.067,-0.468 1.873,-0.309 0.257,0.051 0.493,0.131 0.711,0.237 0.937,0.219 1.782,0.744 2.377,1.668 1.118,1.733 0.507,3.586 0.005,5.409 -0.472,1.209 -1.835,1.807 -3.044,1.335 -0.049,-0.019 -0.097,-0.04 -0.143,-0.062 -0.622,0.139 -1.337,0.049 -2.137,-0.361 -2.418,-1.242 -5.124,-4.361 -2.165,-6.683 0.713,-0.56 1.597,-0.997 2.523,-1.234 z"
       id="path204" />
    <path
       style="fill:#000000;stroke:#000000;stroke-width:0.500094"
       d="m 460.887,383.928 c 3.505,0.279 5.866,5.971 1.895,7.43 -0.798,0.293 -1.833,0.308 -2.896,0.097 -0.212,0.063 -0.435,0.097 -0.668,0.097 -0.841,0 -1.58,-0.443 -1.995,-1.108 -1.795,-1.054 -3.056,-2.75 -2.397,-4.745 0.655,-1.985 2.585,-2.299 4.392,-2.467 0.653,0 1.243,0.266 1.669,0.696 z"
       id="path206" />
    <path
       style="fill:#000000;stroke:#000000;stroke-width:0.500094"
       d="m 467.474,406.964 c -1.798,-0.783 -4.577,-1.752 -4.449,-4.19 0.243,-4.596 7.857,-3.291 9.328,-0.216 0.799,1.672 -0.362,3.365 -1.397,4.581 -0.917,0.918 -2.406,0.918 -3.323,0 -0.056,-0.056 -0.11,-0.115 -0.159,-0.175 z"
       id="path208" />
    <path
       style="fill:#000000;stroke:#000000;stroke-width:0.500094"
       d="m 471.216,427.057 c -0.902,0.345 -1.961,0.109 -2.624,-0.667 -1.052,-1.672 -2.519,-4.08 -0.899,-5.961 3.011,-3.497 11.708,-1.604 9.869,3.93 -0.874,2.629 -3.395,3.192 -5.823,2.897 -0.185,-0.046 -0.361,-0.114 -0.523,-0.199 z"
       id="path210" />
    <path
       style="fill:#000000;stroke:#000000;stroke-width:0.500094"
       d="m 475.942,438.485 c 1.04,0.598 1.771,1.552 1.635,3.044 -0.365,3.995 -4.595,6.317 -8.19,4.632 -2.125,-0.996 -2.207,-3.938 -1.071,-5.677 1.332,-2.04 2.826,-3.25 5.14,-3.829 1.185,-0.098 2.236,0.701 2.486,1.83 z"
       id="path212" />
    <path
       style="fill:#000000;stroke:#000000;stroke-width:0.500094"
       d="m 471.258,456.124 c 0.386,-0.77 1.183,-1.299 2.104,-1.299 0.102,0.012 0.202,0.024 0.303,0.04 0.752,-0.142 1.498,0.094 2.029,0.584 1.757,0.801 2.979,2.317 2.715,4.613 -0.475,4.132 -7.629,3.931 -8.864,0.393 -0.687,-1.966 0.309,-3.341 1.713,-4.331 z"
       id="path214" />
    <path
       style="fill:#000000;stroke:#000000;stroke-width:0.500094"
       d="m 365.05,136.106 -0.139,0.028 c -1.915,0.308 -2.917,-4.254 -0.852,-4.624 l 0.028,-0.004 0.013,-0.002 0.237,-0.046 0.543,-0.107 c 0.244,-0.049 0.487,-0.057 0.721,-0.031 l 0.122,-0.014 c 1.298,0 2.35,1.052 2.35,2.35 0,1.298 -1.052,2.35 -2.35,2.35 l -0.243,0.031 -0.43,0.069 z m -0.934,-4.603 0.138,-0.017 -0.077,0.007 -0.061,0.01 z"
       id="path216" />
    <path
       style="fill:#000000;stroke:#000000;stroke-width:0.500094"
       d="m 369.676,143.446 c -0.73,-1.424 -1.183,-3.038 0.349,-4.226 2.433,-1.888 7.486,0.678 7.014,3.865 -0.369,2.494 -3.007,2.667 -5.016,2.848 -1.298,0 -2.351,-1.052 -2.351,-2.35 0,-0.046 0.002,-0.091 0.004,-0.137 z"
       id="path218" />
    <path
       style="fill:#000000;stroke:#000000;stroke-width:0.500094"
       d="m 377.559,149.633 c 2.461,0.216 5.758,1.845 3.748,4.84 -2.11,3.146 -5.866,0.999 -6.098,-2.108 0,-0.065 0.002,-0.128 0.007,-0.191 -0.005,-0.062 -0.007,-0.127 -0.007,-0.191 0,-1.298 1.052,-2.35 2.35,-2.35 z"
       id="path220" />
    <path
       style="fill:#000000;stroke:#000000;stroke-width:0.500094"
       d="m 379.959,162.946 c 1.656,-2.842 7.349,-4.245 7.766,0.257 0.217,2.345 -1.576,3.53 -3.67,3.906 l -0.78,0.056 -0.127,0.004 c -0.834,0.31 -1.808,0.128 -2.478,-0.543 -0.444,-0.587 -0.645,-1.201 -0.64,-1.772 -0.282,-0.576 -0.328,-1.266 -0.071,-1.908 z"
       id="path222" />
    <path
       style="fill:#000000;stroke:#000000;stroke-width:0.500094"
       d="m 383.505,173.306 c 0.408,-0.464 0.965,-0.796 1.716,-0.895 2.871,-0.379 5.553,2.274 4.671,5.22 -0.998,3.337 -5.939,2.471 -7.795,0.519 -0.68,-0.716 -0.877,-1.557 -0.97,-2.495 0,-1.298 1.052,-2.35 2.35,-2.35 0.01,0 0.018,0.001 0.028,0.001 z"
       id="path224" />
    <path
       style="fill:#000000;stroke:#000000;stroke-width:0.500094"
       d="m 382.848,189.533 c -0.692,-2.067 -0.586,-4.342 1.826,-5.219 2.908,-1.057 6.147,1.237 6.537,4.197 0.597,4.515 -5.16,4.508 -7.677,2.551 -0.426,-0.425 -0.655,-0.972 -0.686,-1.529 z"
       id="path226" />
    <path
       style="fill:#000000;stroke:#000000;stroke-width:0.500094"
       d="m 385.826,251.827 c 0.448,-0.282 0.994,-0.415 1.56,-0.34 2.588,0.689 4.562,2.821 3.173,5.606 -1.853,3.717 -9.312,3.173 -9.144,-1.467 0.081,-2.231 2.086,-3.249 3.969,-3.759 0.149,-0.028 0.296,-0.04 0.442,-0.04 z"
       id="path228" />
    <path
       style="fill:#000000;stroke:#000000;stroke-width:0.500094"
       d="m 386.265,263.315 c 0.335,-0.124 0.705,-0.173 1.085,-0.128 2.768,0.504 5.201,2.744 2.977,5.488 -1.55,1.913 -5.537,3.367 -7.431,1.148 -1.53,-1.793 -0.309,-3.859 0.604,-5.606 0.615,-0.922 1.768,-1.269 2.765,-0.902 z"
       id="path230" />
    <path
       style="fill:#000000;stroke:#000000;stroke-width:0.500094"
       d="m 397.797,276.344 c 0.283,0.115 0.55,0.287 0.779,0.517 1.776,2.071 2.07,4.986 -0.942,6.03 -2.414,0.836 -6.668,-0.274 -6.38,-3.45 0.19,-2.092 2.279,-2.926 3.902,-3.74 0.953,-0.378 2.005,-0.089 2.641,0.643 z"
       id="path232" />
    <path
       style="fill:#000000;stroke:#000000;stroke-width:0.500094"
       d="m 406.747,287.629 c 1.08,1.17 2.031,2.637 0.739,4.121 -1.914,2.197 -6.854,0.34 -7.576,-2.23 -0.801,-2.85 2.146,-3.659 4.282,-4.053 1.292,-0.117 2.435,0.836 2.552,2.129 10e-4,0.011 0.002,0.022 0.003,0.033 z"
       id="path234" />
    <path
       style="fill:#000000;stroke:#000000;stroke-width:0.500094"
       d="m 412.436,296.028 c 0.519,-0.573 1.31,-0.88 2.129,-0.744 0.249,0.042 0.48,0.121 0.693,0.231 1.15,0.091 2.087,1.018 2.157,2.203 0.073,1.233 -0.819,2.301 -2.022,2.467 -0.938,1.183 -2.313,1.838 -3.894,0.742 -1.431,-0.991 -1.405,-3.103 -0.147,-4.23 0.334,-0.299 0.698,-0.511 1.084,-0.669 z"
       id="path236" />
    <path
       style="fill:#000000;stroke:#000000;stroke-width:0.500094"
       d="m 424.19,304.681 c 0.203,0.103 0.399,0.224 0.582,0.359 0.918,0.917 0.918,2.406 0,3.323 -0.127,0.128 -0.266,0.239 -0.413,0.33 l -0.242,0.261 c -2.285,2.125 -7.717,-1.007 -5.61,-4.009 0.935,-1.333 2.532,-1.156 3.947,-1.031 0.688,0 1.306,0.296 1.736,0.767 z"
       id="path238" />
    <path
       style="fill:#000000;stroke:#000000;stroke-width:0.500094"
       d="m 425.898,314.312 c 0.185,-0.588 0.599,-1.104 1.194,-1.401 0.692,-0.345 1.472,-0.317 2.113,0.008 1.012,0.178 1.825,1.009 1.931,2.082 0.084,0.84 -0.287,1.622 -0.913,2.101 -0.393,0.75 -1.151,1.242 -2.365,1.144 -1.934,-0.158 -2.884,-2.345 -1.96,-3.934 z"
       id="path240" />
    <path
       style="fill:#000000;stroke:#000000;stroke-width:0.500094"
       d="m 435.675,320.542 c 0.082,-0.038 0.168,-0.072 0.255,-0.102 1.232,-0.41 2.562,0.256 2.972,1.488 0.528,2.539 -0.813,5.337 -3.869,4.182 -2.886,-1.091 -2.514,-4.572 0.198,-5.502 0.149,-0.037 0.297,-0.058 0.444,-0.066 z"
       id="path242" />
    <path
       style="fill:#000000;stroke:#000000;stroke-width:0.500094"
       d="m 445.007,334.777 -0.167,0.037 c -0.586,0.573 -1.399,0.778 -2.147,0.614 -1.271,0.116 -2.358,-0.497 -2.781,-1.725 -0.563,-1.638 1.098,-2.364 2.597,-2.923 l -0.176,-0.027 -0.231,0.013 -0.037,0.004 0.215,-0.061 0.377,-0.097 0.336,-0.011 c 0.375,-0.139 0.721,-0.272 0.995,-0.412 1.267,-0.282 2.522,0.517 2.804,1.784 0.281,1.267 -0.518,2.522 -1.785,2.804 z"
       id="path244" />
    <path
       style="fill:#000000;stroke:#000000;stroke-width:0.500094"
       d="m 450.342,340.548 c 1.425,-0.225 3.788,0.036 3.482,2.21 -0.224,1.591 -1.118,2.111 -2.484,2.468 -1.231,0.41 -2.562,-0.256 -2.972,-1.488 -0.302,-0.906 -0.021,-1.868 0.64,-2.475 0.341,-0.366 0.802,-0.626 1.334,-0.715 z"
       id="path246" />
    <path
       style="fill:#000000;stroke:#000000;stroke-width:0.500094"
       d="m 460.356,355.597 -0.009,0.25 c 0,1.298 -1.052,2.35 -2.35,2.35 -1.298,0 -2.35,-1.052 -2.35,-2.35 0,-0.002 0,-0.003 0,-0.005 -0.085,-0.243 -0.13,-0.502 -0.13,-0.774 0,-0.511 0.162,-0.984 0.438,-1.369 0.364,-1.387 1.147,-2.565 2.921,-2.084 2.102,0.571 2.299,2.497 1.48,3.982 z"
       id="path248" />
    <path
       style="fill:#363a40;stroke:#363a40;stroke-width:0.500094"
       d="m 253.064,212.441 c -5.171,4.318 -10.465,7.777 -10.015,15.252 0.375,6.204 7.982,11.066 13.918,10.177 7.031,-1.054 13.803,-6.459 17.537,-12.357 1.513,-2.39 3.1,-5.964 1.417,-8.698 -1.686,-2.738 -5.801,-6.44 -9.071,-7.093 -4.592,-0.918 -9.509,1.309 -13.786,2.719 z"
       id="path250" />
    <path
       style="fill:#000000;stroke:#000000;stroke-width:0.500094"
       d="m 257.655,218.342 c 0.316,-0.529 0.892,-0.885 1.553,-0.885 4.255,-0.088 8.971,-0.311 9.321,4.987 0.35,5.292 -4.997,8.682 -9.95,7.972 -3.979,-0.57 -6.853,-4.746 -5.027,-8.579 0.897,-1.881 2.39,-2.854 4.103,-3.495 z"
       id="path252" />
    <path
       style="fill:#676f79;stroke:#676f79;stroke-width:0.500094"
       d="m 261.148,221.058 c -1.818,0.434 -5.856,1.65 -4.226,4.412 1.493,2.531 5.837,1.327 7.435,-0.466 0.595,-0.668 1.069,-2.976 0.261,-3.602 -0.684,-0.529 -1.77,-0.596 -2.852,-0.539 -0.187,0.099 -0.395,0.167 -0.618,0.195 z"
       id="path254" />
    <path
       style="fill:#000000;stroke:#000000;stroke-width:0.500094"
       d="m 339.682,197.571 c 1.215,0.322 2.419,0.677 3.6,1.078 l 0.447,0.078 c 0.22,0.081 0.427,0.183 0.62,0.299 5.77,2.13 10.813,5.503 13.201,11.816 3.645,9.638 -1.143,20.015 -10.924,23.128 -9.795,3.118 -21.6,-0.139 -29.443,-6.387 -7.77,-6.189 -6.575,-17.605 1.339,-23.199 5.546,-3.921 11.631,-6.957 18.577,-6.822 l 0.935,0.165 c 0.514,-0.173 1.075,-0.235 1.648,-0.156 z"
       id="path256" />
    <path
       style="fill:#000000;stroke:#000000;stroke-width:0.500094"
       d="m 367.648,208.65 c -0.828,-1.835 -1.187,-4.404 1.262,-5.25 3.401,-1.173 8.014,1.285 8.553,4.948 0.465,3.162 -3.471,4.728 -5.774,2.88 l -0.593,-0.542 -0.14,-0.154 c -0.578,-0.05 -1.127,-0.313 -1.528,-0.75 -0.713,-0.072 -1.383,-0.47 -1.78,-1.132 z"
       id="path258" />
    <path
       style="fill:#000000;stroke:#000000;stroke-width:0.500094"
       d="m 390.23,199.555 c 1.369,0.808 2.247,2.179 1.193,3.934 -1.386,2.308 -4.828,3.856 -6.935,1.592 -2.861,-3.076 0.102,-6.767 3.509,-7.144 1.042,0 1.925,0.679 2.233,1.618 z"
       id="path260" />
    <path
       style="fill:#000000;stroke:#000000;stroke-width:0.500094"
       d="m 389.354,226.668 c 0.194,0.04 0.387,0.105 0.573,0.198 1.94,1.137 3.546,3.258 1.817,5.377 -1.657,2.033 -5.761,2.287 -7.14,-0.19 -1.091,-1.96 0.14,-3.683 1.202,-5.303 0.828,-1 2.309,-1.14 3.309,-0.312 0.086,0.072 0.165,0.149 0.239,0.23 z"
       id="path262" />
    <path
       style="fill:#000000;stroke:#000000;stroke-width:0.500094"
       d="m 387.935,238.324 c 1.766,0.591 2.974,2.125 2.714,4.332 -0.485,4.124 -6.678,2.461 -7.65,-0.568 -0.778,-2.424 0.721,-4.151 2.891,-4.897 0.88,-0.176 1.738,0.32 2.045,1.133 z"
       id="path264" />
    <path
       style="fill:#363a40;stroke:#363a40;stroke-width:0.500094"
       d="m 341.837,205.679 c -0.206,-0.037 -0.411,-0.093 -0.613,-0.168 -8.084,-1.745 -19.919,1.53 -22.156,10.598 -0.913,3.702 3.72,7.021 6.318,8.344 5.656,2.881 12.88,4.524 19.114,2.605 6.725,-2.07 9.018,-9.937 5.181,-15.739 -1.977,-2.989 -4.74,-4.555 -7.844,-5.64 z"
       id="path266" />
    <path
       style="fill:#000000;stroke:#000000;stroke-width:0.500094"
       d="m 365.999,225.171 c -0.748,-0.677 -1.119,-1.572 -0.487,-2.786 1.09,-2.093 4.368,-1.388 6.141,-1.099 1.565,0.255 3.25,1.189 2.963,3.028 -0.34,2.178 -3.015,2.23 -5.019,2.25 -0.292,0.063 -0.6,0.072 -0.907,0.016 -0.189,0.008 -0.364,0.018 -0.521,0.035 -0.977,0 -1.816,-0.595 -2.17,-1.444 z"
       id="path268" />
    <path
       style="fill:#000000;stroke:#000000;stroke-width:0.500094"
       d="m 385.323,213.679 c 0.285,-0.221 0.619,-0.373 0.974,-0.444 0.344,-0.127 0.702,-0.23 1.064,-0.312 1.161,-0.11 2.203,0.643 2.493,1.734 1.519,1.098 2.718,2.616 1.919,4.525 -1.616,3.856 -8.376,2.319 -8.613,-1.73 -0.107,-1.816 0.829,-3.026 2.163,-3.773 z"
       id="path270" />
    <path
       style="fill:#000000;stroke:#000000;stroke-width:0.500094"
       d="m 335.279,211.744 c 0.345,-0.328 0.818,-0.52 1.331,-0.496 0.344,0.029 0.689,0.064 1.037,0.104 0.809,-0.098 1.623,-0.169 2.427,-0.233 0.776,0 1.437,0.49 1.694,1.177 1.986,0.819 3.491,2.272 3.72,4.956 0.668,7.847 -9.275,8.891 -14.504,5.611 -2.58,-1.618 -3.987,-5 -1.947,-7.541 1.66,-2.067 3.868,-3.051 6.242,-3.578 z"
       id="path272" />
    <path
       style="fill:#676f79;stroke:#676f79;stroke-width:0.500094"
       d="m 337.752,214.937 c -2.207,0.259 -4.337,0.822 -5.907,2.663 -0.566,0.664 0.195,1.399 0.705,1.857 2.565,2.304 11.124,2.53 9.15,-2.767 -0.524,-1.406 -2.405,-1.657 -3.948,-1.753 z"
       id="path274" />
  </g>
  <g
     id="g276" />
</svg>
